#N canvas 323 174 822 546 12;
#X obj 76 364 fm_op1;
#X obj 93 322 fm_op1;
#X obj 46 7 tgl 15 0 empty empty empty 0 -6 0 8 -262144 -1 -1 1 1;
#X obj 46 82 mtof;
#X obj 73 295 sig~;
#X obj 93 267 sig~;
#X obj 118 470 dac~;
#X obj 46 29 metro 250;
#X obj 416 -16 nbx 5 14 -1e+037 1e+037 0 0 empty empty empty 0 -6 0
10 -241291 -1 -1 524 256;
#X obj 525 120 random;
#X obj 373 119 random;
#X obj 431 119 random 2048;
#X obj 278 119 random 2048;
#X obj 347 77 t b b b b;
#X obj 431 155 pack f f;
#X obj 278 155 pack f f;
#X obj 369 205 vline~;
#X obj 46 54 random 63;
#X floatatom 362 17 5 0 0 0 - - -;
#X obj 119 422 /~ 4;
#X obj 57 238 * 1;
#X obj 93 239 * 8;
#X connect 0 0 19 0;
#X connect 1 0 0 1;
#X connect 2 0 7 0;
#X connect 3 0 20 0;
#X connect 3 0 21 0;
#X connect 4 0 0 0;
#X connect 5 0 1 0;
#X connect 7 0 13 0;
#X connect 7 0 17 0;
#X connect 8 0 7 1;
#X connect 8 0 9 1;
#X connect 8 0 10 1;
#X connect 9 0 14 1;
#X connect 10 0 15 1;
#X connect 11 0 14 0;
#X connect 12 0 15 0;
#X connect 13 0 12 0;
#X connect 13 1 10 0;
#X connect 13 2 11 0;
#X connect 13 3 9 0;
#X connect 14 0 16 0;
#X connect 15 0 16 0;
#X connect 16 0 0 2;
#X connect 17 0 3 0;
#X connect 18 0 12 1;
#X connect 18 0 11 1;
#X connect 19 0 6 0;
#X connect 19 0 6 1;
#X connect 20 0 4 0;
#X connect 21 0 5 0;
