#N canvas 7 23 1440 852 10;
#X obj 715 298 noise_osc~;
#X obj 715 232 vline~;
#X obj 107 -316 tgl 40 0 empty empty Start 45 7 0 12 -4034 -1 -1 1
1;
#X obj 951 109 tgl 15 0 empty empty empty 17 7 0 10 -262144 -1 -1 1
1;
#X obj 951 131 sel 0 1;
#X obj 976 242 vline~;
#X obj 820 298 noise_osc~;
#X msg 718 148 \$1 500;
#X obj 718 175 line;
#X msg 796 148 \$1 500;
#X obj 796 175 line;
#X obj 570 -46 line;
#X obj 570 -92 random 250;
#X obj 718 123 random 4000;
#X obj 796 123 random 4000;
#X obj 977 158 random 127;
#X obj 977 185 mtof;
#X obj 570 -125 bang;
#X obj 371 254 shepardTone;
#X obj 432 282 ad_env~;
#X obj 372 331 *~;
#X obj 491 119 vsl 15 128 0 500 0 0 empty empty empty 0 -9 0 10 -262144
-1 -1 0 1;
#X obj 518 121 vsl 15 128 0 500 0 0 empty empty empty 0 -9 0 10 -262144
-1 -1 0 1;
#X obj 432 309 sqrt~;
#X obj 432 339 *~ 5000;
#X obj 546 378 vsl 15 128 75 100 0 0 empty empty empty 0 -9 0 10 -261234
-1 -1 4500 1;
#X obj 201 219 *~;
#X obj 216 161 +~ 40;
#X obj 215 131 *~ 50;
#X msg 265 154 0.125;
#X obj 124 102 ad_env~ 0 190;
#X obj -53 -122 cpt 7;
#X obj 273 10 + 100;
#X obj 152 170 *~;
#X obj 286 -26 random 50;
#X obj 317 10 + 47;
#X obj 139 247 vcf~ 5;
#X obj 216 193 osc~;
#X obj 156 219 *~ 100;
#X obj 262 197 osc~;
#X obj 304 98 *~;
#X obj 285 231 *~;
#X obj 413 363 vcf~ 10;
#X obj 715 324 *~ 0.5;
#X obj 820 323 *~ 0.5;
#X obj 371 400 +~;
#X obj 405 401 +~;
#X obj 330 153 +~ 20;
#X obj 323 125 *~ 147;
#X obj 643 -274 metro 50;
#X msg 976 218 \$1 2000;
#X obj 1087 -84 /;
#X obj 1094 -212 t b b;
#X obj 1087 -34 vline~;
#X obj 1072 -9 *~;
#X obj 1021 -38 noise~;
#X obj 1021 16 *~;
#X obj 1074 -114 *~;
#X obj 905 -38 random 5000;
#X obj 904 38 vline~;
#X msg 904 15 \$1 25;
#X obj 1160 -155 + 2;
#X obj 1158 -179 random 4;
#X obj 1087 -180 random 4;
#X obj 102 387 lowfxi 4;
#X obj 102 419 *~ 0.25;
#X obj 199 26 random 1000;
#X obj 199 52 + 250;
#X obj 161 80 random 1;
#X msg 631 -117 60 \, 37 1600;
#X msg 570 -70 \$1 500;
#N canvas 391 316 450 300 randomdrum 0;
#X obj 42 8 inlet reset;
#X obj 220 15 inlet random;
#X obj 30 249 outlet;
#X obj 83 248 outlet;
#X obj 141 250 outlet;
#X obj 201 252 outlet;
#X obj 267 249 outlet;
#X obj 38 180 random 10;
#X obj 102 182 random 10;
#X obj 165 181 random 10;
#X obj 246 180 random 10;
#X obj 319 179 random 10;
#X msg 39 119 7;
#X msg 101 128 8;
#X msg 152 125 4;
#X msg 201 124 6;
#X msg 251 126 2;
#X connect 0 0 12 0;
#X connect 0 0 13 0;
#X connect 0 0 14 0;
#X connect 0 0 15 0;
#X connect 0 0 16 0;
#X connect 1 0 11 0;
#X connect 1 0 10 0;
#X connect 1 0 9 0;
#X connect 1 0 8 0;
#X connect 1 0 7 0;
#X connect 7 0 2 0;
#X connect 8 0 3 0;
#X connect 9 0 4 0;
#X connect 10 0 5 0;
#X connect 11 0 6 0;
#X connect 12 0 2 0;
#X connect 13 0 3 0;
#X connect 14 0 4 0;
#X connect 15 0 5 0;
#X connect 16 0 6 0;
#X restore -40 -207 pd randomdrum;
#X obj -30 -326 bng 15 250 50 0 empty empty reset 17 7 0 10 -4034 -1
-1;
#X obj 36 -267 bng 15 250 50 0 empty empty random 17 7 0 10 -258113
-1 -1;
#X obj 951 85 cpt 2;
#X obj -54 -152 cpt 4;
#X obj 33 -122 cpt 4;
#X obj -10 -122 cpt 8;
#X obj 79 -123 cpt 6;
#X obj 124 -123 cpt 2;
#X obj 782 -147 cpt 4;
#X obj 631 -149 cpt 64;
#X obj 714 -150 cpt 32;
#X obj 570 -148 cpt 16;
#X obj -22 72 bng 15 250 50 0 empty empty empty 17 7 0 10 -262144 -1
-1;
#X obj 383 96 + 40;
#X msg 352 94 147;
#X msg -109 246 2;
#X msg -79 247 4;
#X msg -49 248 8;
#X obj -109 217 sel 0 1 2;
#X obj -109 272 f;
#X obj -109 187 random 3;
#X obj 637 390 lowfxi 2;
#X obj 784 396 lowfxi 2;
#X obj 1145 -216 random 16;
#X obj 1021 -9 vcf~ 5;
#X obj 904 -14 + 4000;
#X obj 371 126 spigot;
#X obj 455 73 tgl 15 0 empty empty empty 17 7 0 10 -260097 -1 -1 1
1;
#X obj 2 123 fm_bd;
#X obj -12 367 delaySimple;
#X obj 382 72 random 1600;
#N canvas 198 240 726 505 seqdrdr 0;
#X obj 194 -18 dwnsmp_noise~;
#X obj 203 -43 random 4;
#X obj 246 -150 random 2;
#X obj 283 11 vline~;
#X msg 474 60 \$1 125;
#X obj 475 96 vline~;
#X obj 229 125 *~;
#X obj 205 -200 t b b b;
#X msg 125 -11 1 \$1;
#X obj 125 17 -;
#X obj 123 100 vline~;
#X obj 101 122 *~;
#X floatatom 160 31 5 0 0 0 - - -, f 5;
#X obj 276 -218 inlet;
#X obj 49 49 phasor~ 110;
#X obj 267 90 *~;
#X obj 268 215 outlet~;
#X msg 561 59 \$1 125;
#X obj 562 95 vline~;
#X obj 461 213 outlet~;
#X obj 428 173 vcf~ 10;
#X obj 53 96 *~ 1;
#X obj 472 23 random 9000;
#X obj 559 22 random 9000;
#X msg 126 77 \$1 \, 0.01 250;
#X msg 283 -11 \$1 \, 0 125;
#X obj 203 11 *~ 0.5;
#X obj 236 185 vcf~ 6;
#X connect 0 0 26 0;
#X connect 1 0 0 0;
#X connect 2 0 25 0;
#X connect 2 0 8 0;
#X connect 3 0 15 1;
#X connect 3 0 15 0;
#X connect 4 0 5 0;
#X connect 5 0 27 1;
#X connect 6 0 20 0;
#X connect 6 0 27 0;
#X connect 7 0 1 0;
#X connect 7 1 2 0;
#X connect 7 2 22 0;
#X connect 7 2 23 0;
#X connect 8 0 9 0;
#X connect 9 0 24 0;
#X connect 9 0 12 0;
#X connect 10 0 11 1;
#X connect 11 0 20 0;
#X connect 11 0 27 0;
#X connect 13 0 7 0;
#X connect 14 0 21 0;
#X connect 15 0 6 1;
#X connect 17 0 18 0;
#X connect 18 0 20 1;
#X connect 20 1 19 0;
#X connect 21 0 11 0;
#X connect 22 0 4 0;
#X connect 23 0 17 0;
#X connect 24 0 10 0;
#X connect 25 0 3 0;
#X connect 26 0 6 0;
#X connect 27 1 16 0;
#X restore 361 -114 pd seqdrdr;
#X obj 935 448 mix~;
#X obj 692 501 adac~;
#X obj 385 565 adac~;
#X obj 321 -49 adac~;
#X obj 321 -82 hfader;
#X obj 1085 151 adac~;
#X obj 14 227 adac~;
#X obj -6 563 adac~;
#X obj 100 476 adac~;
#X obj 505 589 adac~;
#X obj 370 462 adac~;
#X obj 185 313 adac~;
#X obj 1022 42 *~ 0.5;
#X obj 289 67 ad_env~ 2 250;
#X obj 1073 -144 ad_env~ 0 250;
#X msg 1087 -61 \$1 500;
#X obj 1023 73 bp~ 5000 10;
#X obj 1040 329 vsl 15 128 75 100 0 0 empty empty empty 0 -9 0 10 -261234
-1 -1 12400 1;
#X obj 999 540 adac~;
#X obj 639 438 hfader;
#X obj 1045 110 hfader;
#X obj -1 200 hfader;
#X obj -6 530 hfader;
#X obj 100 443 hfader;
#X obj 505 556 hfader;
#X obj 370 429 hfader;
#X obj 185 280 hfader;
#X obj 999 507 hfader;
#X obj 1081 323 vsl 15 128 0 100 0 0 empty empty empty 0 -9 0 10 -261234
-1 -1 11300 1;
#X obj 834 211 fader~;
#X obj 142 337 fader~;
#X obj 517 281 bufferoverride;
#X obj 503 355 adac~;
#X obj 530 314 hfader;
#X obj 48 -319 key;
#X obj 37 -295 sel 97;
#X obj 575 376 vsl 15 128 0 100 0 0 empty empty empty 0 -9 0 10 -261234
-1 -1 8900 1;
#X obj 1020 470 rev2~ 95;
#X obj 295 -222 fm_synthAU;
#X obj 284 -146 adac~;
#X obj 284 -179 hfader;
#N canvas 0 22 450 300 seq 0;
#X msg 170 184 3;
#X msg 212 185 2;
#X msg 121 183 -2;
#X msg 249 183 5;
#X obj 162 213 f;
#X msg 85 184 0;
#X obj 163 100 cpt 4, f 4;
#X obj 92 152 sel 0 1 2 3;
#X obj 160 270 outlet;
#X obj 165 69 inlet;
#X obj 236 240 mtof;
#X obj 159 235 + 20;
#X connect 0 0 4 0;
#X connect 1 0 4 0;
#X connect 2 0 4 0;
#X connect 3 0 4 0;
#X connect 4 0 11 0;
#X connect 5 0 4 0;
#X connect 6 1 7 0;
#X connect 7 0 5 0;
#X connect 7 1 2 0;
#X connect 7 2 0 0;
#X connect 7 3 1 0;
#X connect 7 4 3 0;
#X connect 9 0 6 0;
#X connect 10 0 8 0;
#X connect 11 0 10 0;
#X restore 352 -249 pd seq;
#X obj 526 519 rev2~ 90;
#X connect 0 0 43 0;
#X connect 1 0 0 0;
#X connect 1 0 6 0;
#X connect 2 0 49 0;
#X connect 3 0 4 0;
#X connect 4 0 15 0;
#X connect 5 0 0 1;
#X connect 5 0 6 1;
#X connect 6 0 44 0;
#X connect 7 0 8 0;
#X connect 8 0 133 0;
#X connect 9 0 10 0;
#X connect 10 0 133 1;
#X connect 11 0 0 3;
#X connect 11 0 6 3;
#X connect 12 0 70 0;
#X connect 13 0 7 0;
#X connect 14 0 9 0;
#X connect 15 0 16 0;
#X connect 16 0 50 0;
#X connect 17 0 12 0;
#X connect 17 0 18 0;
#X connect 18 0 20 0;
#X connect 19 0 23 0;
#X connect 20 0 42 0;
#X connect 20 0 146 0;
#X connect 21 0 19 1;
#X connect 22 0 19 2;
#X connect 23 0 20 1;
#X connect 23 0 24 0;
#X connect 24 0 42 1;
#X connect 25 0 146 2;
#X connect 26 0 36 0;
#X connect 27 0 37 0;
#X connect 28 0 27 0;
#X connect 29 0 37 1;
#X connect 29 0 39 1;
#X connect 30 0 28 0;
#X connect 30 0 33 0;
#X connect 30 0 33 1;
#X connect 31 0 19 0;
#X connect 31 0 92 0;
#X connect 31 0 135 1;
#X connect 31 0 103 0;
#X connect 31 0 145 0;
#X connect 32 0 38 1;
#X connect 33 0 26 0;
#X connect 33 0 38 0;
#X connect 34 0 32 0;
#X connect 34 0 35 0;
#X connect 35 0 28 1;
#X connect 36 1 64 0;
#X connect 37 0 26 1;
#X connect 38 0 36 1;
#X connect 39 0 41 0;
#X connect 40 0 48 0;
#X connect 40 0 41 1;
#X connect 41 0 130 0;
#X connect 41 0 130 1;
#X connect 42 0 45 0;
#X connect 42 0 46 0;
#X connect 43 0 93 0;
#X connect 44 0 94 0;
#X connect 45 0 129 0;
#X connect 46 0 129 1;
#X connect 47 0 39 0;
#X connect 48 0 47 0;
#X connect 49 0 80 0;
#X connect 49 0 81 0;
#X connect 49 0 82 0;
#X connect 49 0 83 0;
#X connect 49 0 75 0;
#X connect 50 0 5 0;
#X connect 51 0 119 0;
#X connect 52 0 58 0;
#X connect 52 0 63 0;
#X connect 52 1 62 0;
#X connect 53 0 54 1;
#X connect 54 0 56 1;
#X connect 55 0 96 0;
#X connect 55 0 26 0;
#X connect 56 0 116 0;
#X connect 57 0 54 0;
#X connect 58 0 97 0;
#X connect 59 0 96 1;
#X connect 60 0 59 0;
#X connect 61 0 51 1;
#X connect 62 0 61 0;
#X connect 63 0 51 0;
#X connect 64 0 65 0;
#X connect 65 0 127 0;
#X connect 65 0 127 1;
#X connect 66 0 67 0;
#X connect 67 0 30 2;
#X connect 68 0 30 1;
#X connect 69 0 1 0;
#X connect 70 0 11 0;
#X connect 71 0 31 1;
#X connect 71 1 77 1;
#X connect 71 2 76 1;
#X connect 71 3 78 1;
#X connect 71 4 79 1;
#X connect 72 0 71 0;
#X connect 72 0 135 2;
#X connect 73 0 71 1;
#X connect 74 0 3 0;
#X connect 75 0 31 0;
#X connect 75 0 76 0;
#X connect 75 0 77 0;
#X connect 75 0 78 0;
#X connect 75 0 79 0;
#X connect 76 0 19 0;
#X connect 76 0 29 0;
#X connect 76 0 30 0;
#X connect 76 0 68 0;
#X connect 76 0 86 0;
#X connect 76 0 101 2;
#X connect 76 0 117 0;
#X connect 76 0 142 0;
#X connect 77 0 19 0;
#X connect 77 0 84 0;
#X connect 77 0 100 0;
#X connect 77 0 102 0;
#X connect 78 0 30 0;
#X connect 78 0 34 0;
#X connect 78 0 66 0;
#X connect 78 0 142 0;
#X connect 79 0 34 0;
#X connect 79 0 135 1;
#X connect 79 0 145 0;
#X connect 80 0 12 0;
#X connect 80 0 103 0;
#X connect 80 0 118 0;
#X connect 80 1 52 0;
#X connect 81 0 69 0;
#X connect 81 0 74 0;
#X connect 82 0 13 0;
#X connect 82 0 95 0;
#X connect 82 0 14 0;
#X connect 83 0 17 0;
#X connect 85 0 98 0;
#X connect 86 0 48 1;
#X connect 87 0 91 0;
#X connect 88 0 91 0;
#X connect 89 0 91 0;
#X connect 90 0 87 0;
#X connect 90 1 88 0;
#X connect 90 2 89 0;
#X connect 91 0 134 0;
#X connect 92 0 90 0;
#X connect 93 0 123 0;
#X connect 94 0 123 1;
#X connect 95 0 63 1;
#X connect 95 0 62 1;
#X connect 96 0 56 0;
#X connect 97 0 60 0;
#X connect 98 0 48 1;
#X connect 99 0 98 1;
#X connect 100 0 101 0;
#X connect 100 0 101 1;
#X connect 100 0 125 0;
#X connect 100 0 125 1;
#X connect 101 0 126 0;
#X connect 101 1 126 1;
#X connect 102 0 85 0;
#X connect 103 0 108 0;
#X connect 103 0 141 0;
#X connect 103 1 108 1;
#X connect 103 1 141 0;
#X connect 108 0 107 0;
#X connect 108 1 107 1;
#X connect 116 0 120 0;
#X connect 117 0 40 0;
#X connect 117 0 40 1;
#X connect 118 0 57 0;
#X connect 118 0 57 1;
#X connect 119 0 53 0;
#X connect 120 0 124 0;
#X connect 120 0 124 1;
#X connect 121 0 141 2;
#X connect 123 0 105 0;
#X connect 123 1 105 1;
#X connect 124 0 109 0;
#X connect 124 1 109 1;
#X connect 125 0 110 0;
#X connect 125 1 110 1;
#X connect 126 0 111 0;
#X connect 126 1 111 1;
#X connect 127 0 112 0;
#X connect 127 1 112 1;
#X connect 128 0 113 0;
#X connect 128 0 135 0;
#X connect 128 1 113 1;
#X connect 129 0 114 0;
#X connect 129 1 114 1;
#X connect 130 0 115 0;
#X connect 130 0 135 0;
#X connect 130 1 115 1;
#X connect 131 0 122 0;
#X connect 131 1 122 1;
#X connect 132 0 141 4;
#X connect 133 0 0 2;
#X connect 133 1 6 2;
#X connect 134 0 64 1;
#X connect 135 0 137 0;
#X connect 135 0 137 1;
#X connect 137 0 136 0;
#X connect 137 1 136 1;
#X connect 138 0 139 0;
#X connect 139 0 73 0;
#X connect 140 0 146 3;
#X connect 141 0 131 0;
#X connect 141 0 135 0;
#X connect 141 1 131 1;
#X connect 142 0 144 0;
#X connect 142 1 144 1;
#X connect 144 0 143 0;
#X connect 144 0 135 0;
#X connect 144 1 143 1;
#X connect 145 0 142 1;
#X connect 146 0 101 0;
#X connect 146 0 101 1;
#X connect 146 0 128 0;
#X connect 146 1 128 1;
