#N canvas 12 50 1267 758 12;
#X obj 29 34 inlet~;
#X obj 96 34 inlet;
#X obj 96 79 s go_grain;
#X obj 238 291 r go_grain;
#X obj 194 257 r~ tab;
#X obj 29 81 s~ tab;
#X obj 379 293 r go_grain;
#X obj 335 259 r~ tab;
#X obj 506 297 r go_grain;
#X obj 462 263 r~ tab;
#X obj 653 300 r go_grain;
#X obj 609 266 r~ tab;
#X obj 807 306 r go_grain;
#X obj 763 272 r~ tab;
#X obj 956 302 r go_grain;
#X obj 912 268 r~ tab;
#X obj 1110 295 r go_grain;
#X obj 1066 261 r~ tab;
#X obj 78 301 r go_grain;
#X obj 34 267 r~ tab;
#X obj 233 178 r go_grain;
#X obj 189 144 r~ tab;
#X obj 374 180 r go_grain;
#X obj 330 146 r~ tab;
#X obj 501 184 r go_grain;
#X obj 457 150 r~ tab;
#X obj 648 187 r go_grain;
#X obj 604 153 r~ tab;
#X obj 802 193 r go_grain;
#X obj 758 159 r~ tab;
#X obj 951 189 r go_grain;
#X obj 907 155 r~ tab;
#X obj 1105 182 r go_grain;
#X obj 1061 148 r~ tab;
#X obj 73 188 r go_grain;
#X obj 29 154 r~ tab;
#X obj 141 572 catch~ grainL;
#X obj 296 570 catch~ grainR;
#X obj 230 80 s space;
#X obj 230 41 inlet;
#X obj 317 41 inlet;
#X obj 317 80 s freqmulti;
#X obj 142 667 outlet~;
#X obj 249 672 outlet~;
#X obj 195 323 grain1;
#X obj 190 210 grain1;
#X obj 35 333 grain1;
#X obj 336 325 grain1;
#X obj 463 329 grain1;
#X obj 610 332 grain1;
#X obj 764 338 grain1;
#X obj 913 334 grain1;
#X obj 1067 327 grain1;
#X obj 331 212 grain1;
#X obj 458 216 grain1;
#X obj 605 219 grain1;
#X obj 759 225 grain1;
#X obj 908 221 grain1;
#X obj 1062 214 grain1;
#X obj 30 220 grain1;
#X connect 0 0 5 0;
#X connect 1 0 2 0;
#X connect 3 0 44 1;
#X connect 4 0 44 0;
#X connect 6 0 47 1;
#X connect 7 0 47 0;
#X connect 8 0 48 1;
#X connect 9 0 48 0;
#X connect 10 0 49 1;
#X connect 11 0 49 0;
#X connect 12 0 50 1;
#X connect 13 0 50 0;
#X connect 14 0 51 1;
#X connect 15 0 51 0;
#X connect 16 0 52 1;
#X connect 17 0 52 0;
#X connect 18 0 46 1;
#X connect 19 0 46 0;
#X connect 20 0 45 1;
#X connect 21 0 45 0;
#X connect 22 0 53 1;
#X connect 23 0 53 0;
#X connect 24 0 54 1;
#X connect 25 0 54 0;
#X connect 26 0 55 1;
#X connect 27 0 55 0;
#X connect 28 0 56 1;
#X connect 29 0 56 0;
#X connect 30 0 57 1;
#X connect 31 0 57 0;
#X connect 32 0 58 1;
#X connect 33 0 58 0;
#X connect 34 0 59 1;
#X connect 35 0 59 0;
#X connect 36 0 42 0;
#X connect 37 0 43 0;
#X connect 39 0 38 0;
#X connect 40 0 41 0;
