#N canvas 257 63 1268 750 12;
#X obj 269 41 inlet;
#X obj 329 43 inlet;
#X obj 182 41 inlet~;
#X obj 310 340 tabwrite~ \$0-part;
#X obj 309 130 tgl 15 0 empty empty empty 0 -6 0 8 -262144 -1 -1 0
1;
#X obj 309 155 sel 1 0;
#X msg 389 297 stop;
#X obj 258 411 timer;
#X obj 258 509 tabplay~ \$0-part;
#X msg 337 75 0;
#X obj 258 474 * 44.1;
#X obj 468 339 pow;
#X msg 467 308 2 \$1;
#X obj 258 446 *;
#X obj 269 74 t b b;
#X msg 675 379 \; \$1-part const 0 \;;
#X obj 675 353 f \$0;
#X obj 681 296 bng 15 250 50 0 empty empty empty 0 -6 0 8 -262144 -1
-1;
#X obj 313 258 sel 1;
#X obj 389 259 sel 1;
#X obj 383 43 table \$0-part 400000;
#X obj 427 666 outlet;
#X obj 240 624 hip~ 500;
#X obj 175 738 outlet~;
#X obj 273 578 *~ 1;
#X obj 313 222 random 2;
#X obj 389 223 random 2;
#X obj 465 246 random 5;
#X obj 465 281 - 3;
#X obj 293 701 lowfxi 2;
#X connect 0 0 14 0;
#X connect 1 0 9 0;
#X connect 1 0 17 0;
#X connect 2 0 3 0;
#X connect 2 0 22 0;
#X connect 4 0 5 0;
#X connect 5 0 7 0;
#X connect 5 0 25 0;
#X connect 5 1 7 1;
#X connect 5 1 26 0;
#X connect 6 0 3 0;
#X connect 7 0 13 0;
#X connect 8 0 24 0;
#X connect 9 0 4 0;
#X connect 10 0 8 0;
#X connect 11 0 13 1;
#X connect 12 0 11 0;
#X connect 13 0 10 0;
#X connect 14 0 4 0;
#X connect 14 1 27 0;
#X connect 16 0 15 0;
#X connect 17 0 16 0;
#X connect 18 0 3 0;
#X connect 18 0 21 0;
#X connect 19 0 6 0;
#X connect 19 0 21 0;
#X connect 22 0 29 0;
#X connect 24 0 22 0;
#X connect 25 0 18 0;
#X connect 26 0 19 0;
#X connect 27 0 28 0;
#X connect 28 0 12 0;
#X connect 29 0 23 0;
