#N canvas 0 22 466 316 12;
#X obj 48 24 inlet;
#X obj 48 123 f;
#X obj 83 124 + 1;
#X obj 48 195 sel 0;
#X obj 48 239 outlet;
#X obj 45 157 % \$1;
#X obj 108 27 inlet;
#X msg 201 60 0;
#X obj 187 241 outlet;
#X obj 202 30 inlet;
#X connect 0 0 1 0;
#X connect 1 0 2 0;
#X connect 1 0 5 0;
#X connect 2 0 1 1;
#X connect 3 0 4 0;
#X connect 5 0 3 0;
#X connect 5 0 8 0;
#X connect 6 0 5 1;
#X connect 7 0 1 1;
#X connect 9 0 7 0;
