#N canvas 0 22 638 575 10;
#X obj 56 27 inlet~;
#X obj 268 25 inlet~;
#X obj 62 493 outlet~;
#X obj 276 495 outlet~;
#X obj 486 36 inlet;
#X obj 487 256 pow;
#X msg 486 229 2 \$1;
#X obj 568 258 pow;
#X msg 567 231 2 \$1;
#X obj 486 88 cpt 8;
#X obj 61 375 vline~;
#X obj 270 371 vline~;
#X obj 61 413 vd~ \$0_tab_R;
#X obj 269 414 vd~ \$0_tab_L;
#X obj 34 135 delwrite~ \$0_tab_L 88200;
#X obj 267 132 delwrite~ \$0_tab_R 88200;
#X obj 132 166 vsl 15 128 0 1 0 0 empty empty out 0 -9 0 10 -257985
-1 -1 11700 1;
#X obj 60 459 *~;
#X obj 297 457 *~;
#X obj 27 87 bp~ 1200 20;
#X obj 263 91 bp~ 1100 20;
#X obj 331 458 *~ 0.75;
#X obj 92 457 *~ 0.75;
#X obj 107 166 vsl 15 128 0 1 0 0 empty empty in 0 -9 0 10 -4034 -1
-1 7200 1;
#X obj 118 88 *~;
#X obj 354 92 *~;
#X obj 157 166 vsl 15 128 0 1 0 0 empty empty fb 0 -9 0 10 -258113
-1 -1 11500 1;
#X obj 17 61 *~;
#X obj 257 61 *~;
#X obj 486 289 * 48000;
#X obj 557 290 * 48000;
#X msg 269 348 \$1 250;
#X msg 60 352 \$1 500;
#X obj 486 205 - 8;
#X obj 567 207 - 8;
#X obj 486 178 random 16;
#X obj 567 179 random 16;
#X connect 0 0 24 0;
#X connect 1 0 25 0;
#X connect 4 0 9 0;
#X connect 5 0 29 0;
#X connect 6 0 5 0;
#X connect 7 0 30 0;
#X connect 8 0 7 0;
#X connect 9 0 35 0;
#X connect 9 0 36 0;
#X connect 10 0 12 0;
#X connect 11 0 13 0;
#X connect 12 0 17 0;
#X connect 12 0 22 0;
#X connect 13 0 18 0;
#X connect 13 0 21 0;
#X connect 16 0 17 1;
#X connect 16 0 18 1;
#X connect 17 0 2 0;
#X connect 18 0 3 0;
#X connect 19 0 14 0;
#X connect 19 0 15 0;
#X connect 20 0 15 0;
#X connect 20 0 14 0;
#X connect 21 0 28 0;
#X connect 22 0 27 0;
#X connect 23 0 24 1;
#X connect 23 0 25 1;
#X connect 24 0 14 0;
#X connect 25 0 15 0;
#X connect 26 0 27 1;
#X connect 26 0 28 1;
#X connect 27 0 19 0;
#X connect 28 0 20 0;
#X connect 29 0 32 0;
#X connect 30 0 31 0;
#X connect 31 0 11 0;
#X connect 32 0 10 0;
#X connect 33 0 6 0;
#X connect 34 0 8 0;
#X connect 35 0 33 0;
#X connect 36 0 34 0;
#X coords 0 -1 1 1 85 150 2 100 150;
