#N canvas 475 223 450 300 10;
#X obj 390 65 inlet~;
#X obj 384 216 outlet~;
#X obj 240 63 inlet;
#X obj 234 214 outlet;
#X obj 156 215 vline~;
#X obj 408 154 *~;
#X obj 105 216 line;
#X obj 260 149 * 0;
#X obj 108 117 hsl 64 15 0 1 0 0 empty empty empty -2 -8 0 10 -260097
-1 -1 6300 1;
#X obj 338 64 inlet~;
#X obj 332 215 outlet~;
#X obj 356 153 *~;
#X obj 292 64 inlet;
#X obj 286 215 outlet;
#X obj 312 150 * 0;
#X msg 105 187 \$1 25;
#X msg 156 186 \$1 25;
#X connect 0 0 5 0;
#X connect 2 0 7 0;
#X connect 4 0 5 1;
#X connect 4 0 11 1;
#X connect 5 0 1 0;
#X connect 6 0 7 1;
#X connect 6 0 14 1;
#X connect 7 0 3 0;
#X connect 8 0 15 0;
#X connect 8 0 16 0;
#X connect 9 0 11 0;
#X connect 11 0 10 0;
#X connect 12 0 14 0;
#X connect 14 0 13 0;
#X connect 15 0 6 0;
#X connect 16 0 4 0;
#X coords 0 -1 1 1 85 40 1 100 100;
