#N canvas 172 65 1268 749 12;
#N canvas 433 275 698 332 clock_divider 0;
#X obj 12 15 inlet;
#X obj 548 9 inlet;
#X obj 214 216 outlet;
#X obj 428 215 outlet;
#X obj 362 216 outlet;
#X obj 274 215 outlet;
#X obj 497 216 outlet;
#X obj 585 217 outlet;
#X obj 431 178 cpt 2;
#X obj 490 178 cpt 6;
#X obj 586 178 cpt 3;
#X obj 119 220 outlet;
#X obj 119 182 cpt 16;
#X obj 214 178 cpt 6;
#X obj 278 177 cpt 3;
#X obj 357 177 cpt 1;
#X connect 0 0 8 0;
#X connect 0 0 9 0;
#X connect 0 0 10 0;
#X connect 0 0 12 0;
#X connect 0 0 13 0;
#X connect 0 0 14 0;
#X connect 0 0 15 0;
#X connect 1 0 8 1;
#X connect 1 0 9 1;
#X connect 1 0 10 1;
#X connect 1 0 12 1;
#X connect 1 0 13 1;
#X connect 1 0 14 1;
#X connect 1 0 15 1;
#X connect 8 0 3 0;
#X connect 9 0 6 0;
#X connect 10 0 7 0;
#X connect 12 0 11 0;
#X connect 13 0 2 0;
#X connect 14 0 5 0;
#X connect 15 0 4 0;
#X restore -11 44 pd clock_divider;
#X obj 20 325 FM_synth;
#X obj 17 294 mtof;
#N canvas 341 270 758 364 seq 0;
#X obj 111 -3 inlet;
#X msg 315 73 0;
#X msg 348 57 1;
#X obj 296 130 moses 64;
#X obj 296 265 outlet;
#X obj 186 0 inlet;
#X obj 147 241 spigot;
#X obj 186 82 sel 1;
#X obj 190 211 tgl 15 0 empty empty empty 17 7 0 10 -262144 -1 -1 0
1;
#X obj 429 -87 sel 0 1 2 3 4;
#X msg 433 -42 3;
#X msg 388 -43 -12;
#X msg 520 -42 2;
#X msg 561 -42 2;
#X obj 428 -118 random 6;
#X obj 466 22 f;
#X obj 112 26 t b b;
#X msg 150 273 bang;
#X obj 329 101 + 1;
#X obj 186 53 < 2;
#X obj 186 27 random 8;
#X obj 337 206 > 0;
#X obj 356 264 sel 1 0;
#X obj 381 296 bng 15 250 50 0 empty empty empty 17 7 0 10 -262144
-1 -1;
#X msg 320 6 bang;
#X obj 354 170 del 5;
#X obj 296 101 f 0;
#X msg 597 -42 -5;
#X msg 474 -40 19;
#X obj 296 205 + 40;
#X connect 0 0 16 0;
#X connect 1 0 26 1;
#X connect 2 0 18 1;
#X connect 3 0 21 0;
#X connect 3 0 29 0;
#X connect 3 1 25 0;
#X connect 5 0 20 0;
#X connect 6 0 17 0;
#X connect 7 0 8 0;
#X connect 8 0 6 1;
#X connect 9 0 11 0;
#X connect 9 1 10 0;
#X connect 9 2 28 0;
#X connect 9 3 12 0;
#X connect 9 4 13 0;
#X connect 9 5 27 0;
#X connect 10 0 15 0;
#X connect 11 0 15 0;
#X connect 12 0 15 0;
#X connect 13 0 15 0;
#X connect 14 0 9 0;
#X connect 15 0 18 1;
#X connect 16 0 6 0;
#X connect 16 1 14 0;
#X connect 17 0 26 0;
#X connect 18 0 26 1;
#X connect 19 0 7 0;
#X connect 20 0 19 0;
#X connect 21 0 22 0;
#X connect 22 1 24 0;
#X connect 22 1 23 0;
#X connect 24 0 1 0;
#X connect 24 0 2 0;
#X connect 25 0 24 0;
#X connect 26 0 3 0;
#X connect 26 0 18 0;
#X connect 27 0 15 0;
#X connect 28 0 15 0;
#X connect 29 0 4 0;
#X restore 26 224 pd seq;
#X obj 104 147 timer;
#X obj 69 200 delay;
#X obj -9 11 inlet;
#X obj 22 393 outlet~;
#X obj 86 399 outlet~;
#X obj 104 173 / 3;
#X obj 9 125 bng 15 250 50 0 empty empty empty 17 7 0 10 -262144 -1
-1;
#X obj 134 13 inlet;
#X obj 27 249 +;
#X obj 195 404 outlet;
#X obj 176 333 mtof;
#X obj 192 277 + 48;
#X connect 0 1 4 0;
#X connect 0 2 3 0;
#X connect 0 2 10 0;
#X connect 0 3 5 0;
#X connect 0 3 4 1;
#X connect 0 6 1 1;
#X connect 1 0 7 0;
#X connect 1 1 8 0;
#X connect 2 0 1 0;
#X connect 3 0 12 0;
#X connect 4 0 9 0;
#X connect 5 0 3 1;
#X connect 6 0 0 0;
#X connect 9 0 5 1;
#X connect 11 0 12 1;
#X connect 12 0 2 0;
#X connect 12 0 15 0;
#X connect 14 0 13 0;
#X connect 15 0 14 0;
#X coords 0 0 1 1 85 60 0;
