#N canvas 0 22 450 300 10;
#X obj 10 9 inlet~;
#X obj 64 10 inlet~;
#X obj 0 260 outlet~;
#X obj 54 261 outlet~;
#X obj 32 105 hsl 128 15 0 1 0 0 empty empty MIX -2 -8 0 10 -4034 -1
-1 9900 1;
#X obj 363 74 *~;
#X obj 23 170 *~;
#X obj 67 172 *~;
#X obj 304 32 vline~;
#X msg 305 8 \$1 250;
#X connect 0 0 6 0;
#X connect 1 0 7 0;
#X connect 4 0 9 0;
#X connect 5 0 6 1;
#X connect 5 0 7 1;
#X connect 6 0 2 0;
#X connect 7 0 3 0;
#X connect 8 0 5 0;
#X connect 8 0 5 1;
#X connect 9 0 8 0;
#X coords 0 -1 1 1 150 25 1 25 100;
