#N canvas 0 22 450 300 10;
#X obj 182 21 inlet;
#X obj 182 48 mtof;
#X obj 181 100 vline~;
#X msg 181 74 \$1 10;
#X obj 181 127 outlet~;
#X connect 0 0 1 0;
#X connect 1 0 3 0;
#X connect 2 0 4 0;
#X connect 3 0 2 0;
