#N canvas 0 22 929 631 10;
#X obj 210 131 noise~;
#X obj 210 155 vcf~ 20;
#X obj 210 212 +~;
#X obj 210 235 osc~;
#X obj 14 14 inlet~ carrier_freq;
#X obj 307 15 inlet~ modulation_amount;
#X obj 154 14 inlet~ modulator_freq;
#X obj 210 187 *~;
#X obj 467 14 inlet resonnance_amount;
#X obj 210 259 outlet~;
#X connect 0 0 1 0;
#X connect 1 0 7 0;
#X connect 2 0 3 0;
#X connect 3 0 9 0;
#X connect 4 0 2 1;
#X connect 5 0 7 1;
#X connect 6 0 1 1;
#X connect 7 0 2 0;
#X connect 8 0 1 2;
