#N canvas 0 1 1268 749 12;
#X obj 192 41 tgl 15 0 empty empty empty 17 7 0 10 -262144 -1 -1 1
1;
#N canvas 433 275 698 332 clock_divider 0;
#X obj 12 15 inlet;
#X obj 548 9 inlet;
#X obj 214 216 outlet;
#X obj 428 215 outlet;
#X obj 362 216 outlet;
#X obj 274 215 outlet;
#X obj 497 216 outlet;
#X obj 585 217 outlet;
#X obj 214 178 cpt 24;
#X obj 431 178 cpt 2;
#X obj 357 177 cpt 4;
#X obj 278 177 cpt 12;
#X obj 490 178 cpt 6;
#X obj 586 178 cpt 3;
#X obj 119 220 outlet;
#X obj 119 182 cpt 48;
#X connect 0 0 8 0;
#X connect 0 0 9 0;
#X connect 0 0 10 0;
#X connect 0 0 11 0;
#X connect 0 0 12 0;
#X connect 0 0 13 0;
#X connect 0 0 15 0;
#X connect 1 0 8 1;
#X connect 1 0 9 1;
#X connect 1 0 10 1;
#X connect 1 0 11 1;
#X connect 1 0 12 1;
#X connect 1 0 13 1;
#X connect 1 0 15 1;
#X connect 8 0 2 0;
#X connect 9 0 3 0;
#X connect 10 0 4 0;
#X connect 11 0 5 0;
#X connect 12 0 6 0;
#X connect 13 0 7 0;
#X connect 15 0 14 0;
#X restore 192 158 pd clock_divider;
#X obj 192 92 t f b;
#X obj 618 396 delay;
#X obj 671 201 t b b;
#X obj 706 272 + 1;
#X obj 670 396 delay;
#X obj 732 399 delay;
#X obj 795 401 delay;
#X obj 706 239 random 16;
#X obj 706 305 * 8;
#X obj 260 665 FM_synth;
#X obj 260 634 mtof;
#N canvas 341 270 758 364 seq 0;
#X obj 111 -3 inlet;
#X msg 315 73 0;
#X msg 348 57 1;
#X obj 296 130 moses 64;
#X obj 296 265 outlet;
#X obj 186 0 inlet;
#X obj 147 241 spigot;
#X obj 186 82 sel 1;
#X obj 190 211 tgl 15 0 empty empty empty 17 7 0 10 -262144 -1 -1 1
1;
#X obj 429 -87 sel 0 1 2 3 4;
#X msg 433 -42 3;
#X msg 388 -43 -12;
#X msg 520 -42 2;
#X msg 561 -42 2;
#X obj 428 -118 random 6;
#X obj 466 22 f;
#X obj 112 26 t b b;
#X msg 150 273 bang;
#X obj 329 101 + 1;
#X obj 186 53 < 2;
#X obj 186 27 random 8;
#X obj 337 206 > 0;
#X obj 356 264 sel 1 0;
#X obj 381 296 bng 15 250 50 0 empty empty empty 17 7 0 10 -262144
-1 -1;
#X msg 320 6 bang;
#X obj 354 170 del 5;
#X obj 296 101 f 0;
#X msg 597 -42 -5;
#X msg 474 -40 19;
#X obj 296 205 + 40;
#X connect 0 0 16 0;
#X connect 1 0 26 1;
#X connect 2 0 18 1;
#X connect 3 0 21 0;
#X connect 3 0 29 0;
#X connect 3 1 25 0;
#X connect 5 0 20 0;
#X connect 6 0 17 0;
#X connect 7 0 8 0;
#X connect 8 0 6 1;
#X connect 9 0 11 0;
#X connect 9 1 10 0;
#X connect 9 2 28 0;
#X connect 9 3 12 0;
#X connect 9 4 13 0;
#X connect 9 5 27 0;
#X connect 10 0 15 0;
#X connect 11 0 15 0;
#X connect 12 0 15 0;
#X connect 13 0 15 0;
#X connect 14 0 9 0;
#X connect 15 0 18 1;
#X connect 16 0 6 0;
#X connect 16 1 14 0;
#X connect 17 0 26 0;
#X connect 18 0 26 1;
#X connect 19 0 7 0;
#X connect 20 0 19 0;
#X connect 21 0 22 0;
#X connect 22 1 24 0;
#X connect 22 1 23 0;
#X connect 24 0 1 0;
#X connect 24 0 2 0;
#X connect 25 0 24 0;
#X connect 26 0 3 0;
#X connect 26 0 18 0;
#X connect 27 0 15 0;
#X connect 28 0 15 0;
#X connect 29 0 4 0;
#X restore 260 607 pd seq;
#X obj 338 530 timer;
#X obj 303 583 delay;
#X obj 338 556 / 4;
#X obj 457 665 FM_toc;
#X obj 114 380 cpt 2;
#X obj 33 666 FM_bd;
#X obj 363 664 FM_snare;
#X obj 767 370 * 0.5;
#X obj 115 416 tgl 15 0 empty empty empty 17 7 0 10 -262144 -1 -1 1
1;
#X obj 115 465 timer;
#X obj 115 439 sel 1 0;
#N canvas 9 0 1268 750 anasnare 0;
#X obj 161 3 inlet;
#X obj 292 245 osc~;
#X obj 257 315 *~;
#X obj 345 362 *~;
#X obj 327 427 +~;
#X obj 296 131 *~;
#X obj 293 164 *~;
#X obj 293 189 *~ 500;
#X obj 329 688 *~;
#X obj 250 3 inlet;
#X obj 300 85 ad_env~ 0 75;
#X obj 328 724 adac~;
#X obj 9 8 tgl 15 0 empty empty empty 17 7 0 10 -262144 -1 -1 1 1;
#X obj 326 460 *~ 0;
#X obj 133 105 ad_env~ 0 1000;
#X obj 231 260 /~ 16;
#X obj 292 218 +~ 200;
#X obj 134 77 cpt 6;
#X obj 300 54 cpt 2;
#X obj 378 298 noise~;
#X obj 345 391 vcf~ 2;
#X obj 377 363 *~ 16;
#X obj 345 331 *~ 0.125;
#X obj 327 567 wrap~;
#X obj 327 590 /~ 4;
#X obj 383 258 ad_env~ 0 65;
#X obj 329 618 hip~ 400;
#X obj 329 658 hip~ 400;
#X obj 328 508 lop~ 200;
#X obj 327 540 *~ 4;
#X connect 0 0 17 0;
#X connect 0 0 18 0;
#X connect 0 0 25 0;
#X connect 1 0 2 1;
#X connect 2 0 4 0;
#X connect 3 0 20 0;
#X connect 4 0 13 0;
#X connect 5 0 6 1;
#X connect 5 0 6 0;
#X connect 6 0 7 0;
#X connect 7 0 16 0;
#X connect 8 0 11 0;
#X connect 8 0 11 1;
#X connect 9 0 17 1;
#X connect 10 0 5 0;
#X connect 10 0 5 1;
#X connect 10 0 15 0;
#X connect 12 0 13 1;
#X connect 13 0 28 0;
#X connect 14 0 8 1;
#X connect 15 0 2 0;
#X connect 16 0 1 0;
#X connect 16 0 21 0;
#X connect 17 0 14 0;
#X connect 18 0 10 0;
#X connect 19 0 3 1;
#X connect 20 0 4 1;
#X connect 21 0 20 1;
#X connect 22 0 3 0;
#X connect 23 0 24 0;
#X connect 24 0 26 0;
#X connect 25 0 22 0;
#X connect 26 0 27 0;
#X connect 27 0 8 0;
#X connect 28 0 29 0;
#X connect 29 0 23 0;
#X coords 0 -1 1 1 85 60 1 0 0;
#X restore 140 665 pd anasnare;
#X obj 140 639 delay;
#X obj 115 494 * 0.75;
#X obj 470 633 cpt 2;
#X obj 192 639 delay;
#X obj 228 577 / 64;
#X obj 828 371 * 0.25;
#X obj 706 369 * 1.5;
#X obj 676 703 mix~;
#X obj 192 612 cpt 8;
#X obj 129 272 bng 15 250 50 0 empty empty empty 17 7 0 10 -262144
-1 -1;
#X obj 63 269 bng 15 250 50 0 empty empty empty 17 7 0 10 -262144 -1
-1;
#X obj 6 273 bng 15 250 50 0 empty empty empty 17 7 0 10 -262144 -1
-1;
#X obj 145 221 cpt 2;
#X obj 28 218 cpt 6;
#X obj 84 219 cpt 16;
#X obj 706 333 * 8;
#X msg 26 268 16;
#X msg 83 266 8;
#X msg 150 265 32;
#X obj 192 271 bng 15 250 50 0 empty empty empty 17 7 0 10 -262144
-1 -1;
#X msg 214 267 64;
#X obj 201 222 cpt 96;
#X text 14 7 A Lame Ae Patch Like Human Koala;
#X obj 194 125 metro 16;
#X connect 0 0 2 0;
#X connect 1 0 4 0;
#X connect 1 0 3 0;
#X connect 1 0 18 0;
#X connect 1 0 28 0;
#X connect 1 0 38 0;
#X connect 1 0 39 0;
#X connect 1 0 40 0;
#X connect 1 1 20 0;
#X connect 1 1 14 0;
#X connect 1 2 34 0;
#X connect 1 2 13 0;
#X connect 1 3 15 0;
#X connect 1 3 14 1;
#X connect 1 4 47 0;
#X connect 1 6 11 1;
#X connect 2 0 49 0;
#X connect 2 1 1 1;
#X connect 2 1 18 1;
#X connect 2 1 28 1;
#X connect 2 1 25 1;
#X connect 2 1 34 1;
#X connect 2 1 39 1;
#X connect 2 1 40 1;
#X connect 2 1 47 1;
#X connect 3 0 6 0;
#X connect 3 0 17 0;
#X connect 4 1 9 0;
#X connect 5 0 10 0;
#X connect 6 0 7 0;
#X connect 6 0 17 0;
#X connect 7 0 8 0;
#X connect 7 0 19 0;
#X connect 7 0 22 0;
#X connect 7 0 20 1;
#X connect 8 0 25 0;
#X connect 9 0 5 0;
#X connect 10 0 20 2;
#X connect 10 0 41 0;
#X connect 12 0 11 0;
#X connect 13 0 12 0;
#X connect 14 0 16 0;
#X connect 15 0 13 1;
#X connect 16 0 15 1;
#X connect 18 0 19 0;
#X connect 18 0 22 0;
#X connect 18 0 26 0;
#X connect 21 0 7 1;
#X connect 22 0 24 0;
#X connect 23 0 27 0;
#X connect 23 0 30 0;
#X connect 24 0 23 0;
#X connect 24 1 23 1;
#X connect 26 0 25 0;
#X connect 27 0 26 1;
#X connect 28 0 17 0;
#X connect 29 0 25 0;
#X connect 30 0 29 1;
#X connect 31 0 8 1;
#X connect 32 0 6 1;
#X connect 34 0 29 0;
#X connect 38 0 44 0;
#X connect 38 0 35 0;
#X connect 39 0 42 0;
#X connect 39 0 37 0;
#X connect 40 0 43 0;
#X connect 40 0 36 0;
#X connect 41 0 3 1;
#X connect 41 0 21 0;
#X connect 41 0 31 0;
#X connect 41 0 32 0;
#X connect 42 0 49 1;
#X connect 43 0 49 1;
#X connect 44 0 49 1;
#X connect 46 0 49 1;
#X connect 47 0 46 0;
#X connect 47 0 45 0;
#X connect 49 0 1 0;
