#N canvas 502 206 709 400 12;
#X obj 231 237 simpleFM~;
#X obj 211 263 *~;
#X obj 209 0 inlet;
#X obj 206 101 t b b f;
#X obj 231 152 sig~;
#X obj 262 195 sig~ 55;
#X obj 474 39 inlet;
#X msg 527 89 1 \$1;
#X obj 527 117 /;
#X obj 394 183 *~ 1;
#X obj 311 15 inlet;
#X obj 317 97 spigot;
#X obj 361 75 tgl 15 0 empty empty empty 17 7 0 10 -262144 -1 -1 0
1;
#X obj 375 38 random 6;
#X obj 424 85 > 4;
#X obj 311 43 t b b;
#X obj 29 26 tgl 15 0 empty empty empty 17 7 0 10 -262144 -1 -1 1 1
;
#X obj 260 300 *~ 1;
#X obj 130 301 *~;
#X obj 349 144 ad_env~ 0 100;
#X obj 218 338 adac~;
#X obj 156 235 *~ 0;
#X obj 100 154 ad_env~ 1 100;
#X obj 527 145 * 32000;
#X msg 194 59 220;
#X obj 97 213 /~ 8;
#X connect 0 0 1 1;
#X connect 1 0 17 0;
#X connect 1 0 18 0;
#X connect 2 0 24 0;
#X connect 3 0 22 0;
#X connect 3 1 19 0;
#X connect 3 2 4 0;
#X connect 4 0 0 0;
#X connect 5 0 0 1;
#X connect 6 0 7 0;
#X connect 7 0 8 0;
#X connect 8 0 23 0;
#X connect 9 0 0 2;
#X connect 10 0 15 0;
#X connect 11 0 24 0;
#X connect 12 0 11 1;
#X connect 12 0 17 1;
#X connect 13 0 14 0;
#X connect 14 0 12 0;
#X connect 15 0 11 0;
#X connect 15 1 13 0;
#X connect 16 0 21 1;
#X connect 17 0 20 1;
#X connect 18 0 20 0;
#X connect 19 0 9 0;
#X connect 19 0 18 1;
#X connect 21 0 1 0;
#X connect 22 0 25 0;
#X connect 23 0 9 1;
#X connect 24 0 3 0;
#X connect 25 0 21 0;
#X coords 0 -1 1 1 85 60 1 0 0;
