#N canvas 659 90 709 574 10;
#X obj 558 330 f;
#X obj 594 330 + 1;
#X msg 600 301 0;
#X obj 558 300 until;
#X obj 558 249 t b b;
#X obj 558 362 t f f;
#X obj 34 294 +~ 1;
#X obj 34 322 /~ 2;
#X obj 34 252 inlet~;
#X obj 34 431 outlet~;
#X obj 511 -7 loadbang;
#X obj 512 428 t b f f;
#X obj 136 122 hradio 10 1 1 16 empty empty empty 0 -8 0 10 -262144
-1 -1 2;
#X obj 512 402 + 1;
#X obj 512 188 t f b;
#N canvas 426 166 450 300 bitcruncher 0;
#X obj 59 103 i;
#X obj 59 180 - 0.5;
#X obj 59 207 * 2;
#X obj 59 78 / 2;
#X obj 59 126 * 2;
#X obj 195 17 inlet bit;
#X obj 59 25 inlet;
#X obj 59 237 outlet;
#X obj 59 152 / 65536;
#X connect 0 0 4 0;
#X connect 1 0 2 0;
#X connect 2 0 7 0;
#X connect 3 0 0 0;
#X connect 4 0 8 0;
#X connect 5 0 3 1;
#X connect 5 0 4 1;
#X connect 6 0 3 0;
#X connect 8 0 1 0;
#X restore 470 455 pd bitcruncher;
#X obj 512 135 pow;
#X obj 512 84 -;
#X msg 512 108 2 \$1;
#X obj 512 160 / 2;
#X obj 511 17 t b b;
#X msg 512 61 16 \$1;
#X msg 558 276 65536;
#X obj 34 349 *~ 65536;
#X obj 197 293 +~ 1;
#X obj 197 321 /~ 2;
#X obj 197 251 inlet~;
#X obj 197 430 outlet~;
#X obj 197 348 *~ 65536;
#X msg 125 76 2;
#X obj 34 374 tabread4~ \$0-lesignalCrush;
#X obj 197 373 tabread4~ \$0-lesignalCrush;
#X obj 295 438 table \$0-lesignalCrush 65536;
#X obj 470 503 tabwrite \$0-lesignalCrush;
#X connect 0 0 1 0;
#X connect 0 0 5 0;
#X connect 1 0 0 1;
#X connect 2 0 0 1;
#X connect 3 0 0 0;
#X connect 4 0 22 0;
#X connect 4 1 2 0;
#X connect 5 0 15 0;
#X connect 5 1 33 1;
#X connect 6 0 7 0;
#X connect 7 0 23 0;
#X connect 8 0 6 0;
#X connect 10 0 20 0;
#X connect 11 0 4 0;
#X connect 11 2 15 1;
#X connect 12 0 21 0;
#X connect 13 0 11 0;
#X connect 14 0 13 0;
#X connect 14 1 4 0;
#X connect 15 0 33 0;
#X connect 16 0 19 0;
#X connect 17 0 18 0;
#X connect 18 0 16 0;
#X connect 19 0 14 0;
#X connect 20 1 29 0;
#X connect 21 0 17 0;
#X connect 22 0 3 0;
#X connect 23 0 30 0;
#X connect 24 0 25 0;
#X connect 25 0 28 0;
#X connect 26 0 24 0;
#X connect 28 0 31 0;
#X connect 29 0 12 0;
#X connect 30 0 9 0;
#X connect 31 0 27 0;
#X coords 0 -1 1 1 200 40 1 100 100;
