#N canvas 46 22 1129 679 10;
#N canvas 0 22 1268 750 disto 0;
#X obj 449 267 f;
#X obj 486 267 + 1;
#X msg 522 234 0;
#X obj 449 237 until;
#X obj 446 199 t b b;
#X obj 34 294 +~ 1;
#X obj 34 322 /~ 2;
#X obj 446 165 t b f;
#X obj 34 350 *~ 128;
#X obj 444 354 / 128;
#X obj 524 200 sel 127;
#X obj 444 420 - 1;
#X obj 444 396 *;
#X obj 443 503 * 3.14159;
#X obj 442 564 cos;
#X obj 444 375 * 2;
#X obj 35 233 inlet~;
#X obj 35 436 outlet~;
#X obj 286 13 loadbang;
#X obj 34 402 hip~ 5;
#X msg 446 134 1;
#X obj 444 324 t f f f;
#X obj 196 293 +~ 1;
#X obj 196 321 /~ 2;
#X obj 196 349 *~ 128;
#X obj 197 232 inlet~;
#X obj 197 435 outlet~;
#X obj 196 401 hip~ 5;
#X obj 443 446 t f f;
#X obj 451 599 +;
#X obj 451 621 / 2;
#X obj 34 374 tabread4~ \$0-lesignalDisto;
#X obj 196 373 tabread4~ \$0-lesignalDisto;
#X obj 126 490 table \$0-lesignalDisto 128;
#X obj 479 680 tabwrite \$0-lesignalDisto;
#X obj 442 534 * 3;
#X connect 0 0 1 0;
#X connect 0 0 10 0;
#X connect 0 0 21 0;
#X connect 1 0 0 1;
#X connect 2 0 0 1;
#X connect 3 0 0 0;
#X connect 4 0 3 0;
#X connect 4 1 2 0;
#X connect 5 0 6 0;
#X connect 6 0 8 0;
#X connect 7 0 4 0;
#X connect 7 1 12 1;
#X connect 7 1 15 1;
#X connect 8 0 31 0;
#X connect 9 0 15 0;
#X connect 10 0 3 1;
#X connect 11 0 28 0;
#X connect 12 0 11 0;
#X connect 13 0 35 0;
#X connect 14 0 29 0;
#X connect 15 0 12 0;
#X connect 16 0 5 0;
#X connect 18 0 20 0;
#X connect 19 0 17 0;
#X connect 20 0 7 0;
#X connect 21 0 9 0;
#X connect 21 2 34 1;
#X connect 22 0 23 0;
#X connect 23 0 24 0;
#X connect 24 0 32 0;
#X connect 25 0 22 0;
#X connect 27 0 26 0;
#X connect 28 0 13 0;
#X connect 28 1 29 1;
#X connect 29 0 30 0;
#X connect 30 0 34 0;
#X connect 31 0 19 0;
#X connect 32 0 27 0;
#X connect 35 0 14 0;
#X restore 36 189 pd disto;
#X obj 44 33 inlet~;
#X obj 113 36 inlet~;
#X obj 36 216 outlet~;
#X obj 98 216 outlet~;
#X obj 400 402 vsl 25 90 0 4 0 0 empty empty dist 5 20 1 10 -203904
-1 -1 0 1;
#X obj 208 207 *~;
#X obj 243 207 *~;
#X connect 0 0 3 0;
#X connect 0 1 4 0;
#X connect 1 0 6 1;
#X connect 2 0 7 1;
#X connect 5 0 6 0;
#X connect 5 0 7 0;
#X connect 6 0 0 0;
#X connect 7 0 0 1;
#X coords 0 -1 1 1 25 100 2 400 400;
