#N canvas 70 91 832 602 10;
#N canvas 0 22 474 324 comb1 0;
#X obj 21 22 inlet~;
#X obj 21 177 +~;
#X obj 274 236 outlet~;
#X obj 149 56 *~ 0.85;
#X obj 148 25 delread~ $0-comb-1 39.71;
#X obj 21 238 delwrite~ $0-comb-1 100;
#X connect 0 0 1 0;
#X connect 1 0 2 0;
#X connect 1 0 5 0;
#X connect 3 0 1 1;
#X connect 4 0 3 0;
#X restore 136 184 pd comb1;
#N canvas 0 22 474 324 comb2 0;
#X obj 21 22 inlet~;
#X obj 21 177 +~;
#X obj 274 236 outlet~;
#X obj 21 238 delwrite~ $0-comb-2 100;
#X obj 149 56 *~ 0.85;
#X obj 150 24 delread~ $0-comb-2 47.79;
#X connect 0 0 1 0;
#X connect 1 0 2 0;
#X connect 1 0 3 0;
#X connect 4 0 1 1;
#X connect 5 0 4 0;
#X restore 222 184 pd comb2;
#N canvas 0 22 466 316 comb3 0;
#X obj 21 22 inlet~;
#X obj 21 177 +~;
#X obj 274 236 outlet~;
#X obj 22 238 delwrite~ $0-comb-3 100;
#X obj 149 56 *~ 0.85;
#X obj 149 24 delread~ $0-comb-3 43.31;
#X connect 0 0 1 0;
#X connect 1 0 2 0;
#X connect 1 0 3 0;
#X connect 4 0 1 1;
#X connect 5 0 4 0;
#X restore 310 184 pd comb3;
#N canvas 0 22 470 320 comb4 0;
#X obj 21 22 inlet~;
#X obj 21 177 +~;
#X obj 274 236 outlet~;
#X obj 150 24 delread~ $0-comb-4 49.91;
#X obj 21 238 delwrite~ $0-comb-4 100;
#X obj 149 56 *~ 0.85;
#X connect 0 0 1 0;
#X connect 1 0 2 0;
#X connect 1 0 4 0;
#X connect 3 0 5 0;
#X connect 5 0 1 1;
#X restore 397 185 pd comb4;
#N canvas 0 22 470 320 allpass1 0;
#X obj 21 22 inlet~;
#X obj 21 152 +~;
#X obj 274 271 outlet~;
#X obj 20 273 delwrite~ $0-allpass-1 10;
#X obj 274 218 +~;
#X obj 149 55 *~ 0.8;
#X obj 40 60 *~ -0.8;
#X obj 92 180 *~ 0.36;
#X obj 149 24 delread~ $0-allpass-1 4.797;
#X connect 0 0 1 0;
#X connect 0 0 6 0;
#X connect 1 0 3 0;
#X connect 1 0 7 0;
#X connect 4 0 2 0;
#X connect 5 0 1 1;
#X connect 6 0 4 1;
#X connect 7 0 4 0;
#X connect 8 0 5 0;
#X restore 271 273 pd allpass1;
#N canvas 0 22 490 340 allpass2 0;
#X obj 21 22 inlet~;
#X obj 21 152 +~;
#X obj 149 56 *~ 0.9;
#X obj 274 271 outlet~;
#X obj 40 60 *~ -0.9;
#X obj 274 218 +~;
#X obj 92 180 *~ 0.19;
#X obj 20 273 delwrite~ $0-allpass-2 10;
#X obj 149 24 delread~ $0-allpass-2 4.97;
#X connect 0 0 1 0;
#X connect 0 0 4 0;
#X connect 1 0 6 0;
#X connect 1 0 7 0;
#X connect 2 0 1 1;
#X connect 4 0 5 1;
#X connect 5 0 3 0;
#X connect 6 0 5 0;
#X connect 8 0 2 0;
#X restore 271 302 pd allpass2;
#N canvas 0 22 462 312 allpass3 0;
#X obj 21 22 inlet~;
#X obj 21 152 +~;
#X obj 149 56 *~ 0.9;
#X obj 274 271 outlet~;
#X obj 40 60 *~ -0.9;
#X obj 274 218 +~;
#X obj 92 180 *~ 0.19;
#X obj 149 24 delread~ $0-allpass-3 4.69;
#X obj 20 273 delwrite~ $0-allpass-3 10;
#X connect 0 0 1 0;
#X connect 0 0 4 0;
#X connect 1 0 6 0;
#X connect 1 0 8 0;
#X connect 2 0 1 1;
#X connect 4 0 5 1;
#X connect 5 0 3 0;
#X connect 6 0 5 0;
#X connect 7 0 2 0;
#X restore 271 333 pd allpass3;
#N canvas 0 22 470 320 allpass4 0;
#X obj 21 22 inlet~;
#X obj 21 152 +~;
#X obj 149 56 *~ 0.9;
#X obj 274 271 outlet~;
#X obj 40 60 *~ -0.9;
#X obj 274 218 +~;
#X obj 92 180 *~ 0.19;
#X obj 20 273 delwrite~ $0-allpass-4 10;
#X obj 149 24 delread~ $0-allpass-4 4.93;
#X connect 0 0 1 0;
#X connect 0 0 4 0;
#X connect 1 0 6 0;
#X connect 1 0 7 0;
#X connect 2 0 1 1;
#X connect 4 0 5 1;
#X connect 5 0 3 0;
#X connect 6 0 5 0;
#X connect 8 0 2 0;
#X restore 271 364 pd allpass4;
#N canvas 0 22 466 316 naive-pitchshift 0;
#X obj 15 12 inlet~;
#X obj 265 245 outlet~;
#X obj 15 89 delwrite~ $0-harm 20000;
#X obj 265 87 vd~ $0-harm;
#X obj 265 14 inlet;
#X obj 265 62 vline~;
#X msg 265 39 \$1 5;
#X connect 0 0 2 0;
#X connect 3 0 1 0;
#X connect 4 0 6 0;
#X connect 5 0 3 0;
#X connect 6 0 5 0;
#X restore 493 185 pd naive-pitchshift;
#X text 77 273 allpasses smear transients;
#X text 20 132 comb filters produce echo-trains;
#X obj 270 563 outlet~;
#X obj 468 69 inlet~;
#X connect 0 0 4 0;
#X connect 1 0 4 0;
#X connect 2 0 4 0;
#X connect 3 0 4 0;
#X connect 4 0 5 0;
#X connect 5 0 6 0;
#X connect 6 0 7 0;
#X connect 7 0 11 0;
#X connect 8 0 11 0;
#X connect 12 0 0 0;
#X connect 12 0 1 0;
#X connect 12 0 2 0;
#X connect 12 0 3 0;
#X connect 12 0 8 0;
