#N canvas 428 215 726 540 12;
#X obj 386 379 simpleFM~;
#X obj 232 150 vline~;
#X obj 345 415 *~;
#X obj 124 35 inlet;
#X obj 124 69 t b b;
#X obj 370 115 noise~;
#X obj 115 182 /~ 8;
#X obj 552 156 +~ 1000;
#X obj 371 166 osc~ 4400;
#X obj 555 123 *~ 1000;
#X obj 33 16 tgl 15 0 empty empty empty 17 7 0 10 -262144 -1 -1 1 1
;
#X obj 455 353 *~;
#X msg 233 122 150 \, 50 125;
#X obj 116 123 ad_env~ 1 800;
#X obj 371 141 *~ 880;
#X obj 440 251 vcf~ 10;
#X obj 439 279 *~ 5555;
#X obj 554 97 ad_env~ 0 100;
#X obj 345 379 *~ 0;
#X obj 319 502 outlet~;
#X obj 20 59 hsl 50 15 800 4000 0 0 empty empty decay -2 -8 0 10 -262144
-1 -1 3500 1;
#X connect 0 0 2 1;
#X connect 1 0 0 0;
#X connect 2 0 19 0;
#X connect 3 0 4 0;
#X connect 4 0 13 0;
#X connect 4 0 17 0;
#X connect 4 1 12 0;
#X connect 5 0 14 0;
#X connect 6 0 18 0;
#X connect 7 0 15 1;
#X connect 8 0 15 0;
#X connect 9 0 7 0;
#X connect 9 0 11 0;
#X connect 10 0 18 1;
#X connect 11 0 0 2;
#X connect 12 0 1 0;
#X connect 13 0 6 0;
#X connect 14 0 8 0;
#X connect 15 0 16 0;
#X connect 16 0 0 1;
#X connect 17 0 9 0;
#X connect 17 0 11 1;
#X connect 18 0 2 0;
#X connect 20 0 13 2;
#X coords 0 -1 1 1 100 100 1 0 0;
