#N canvas 12 50 1268 750 10;
#X obj 42 132 cpt 8;
#X obj 42 13 tgl 15 0 empty empty empty 0 -6 0 8 -262144 -1 -1 1 1
;
#X obj 42 50 t f b;
#X obj 42 86 metro 250;
#X obj 42 159 sel 0 2 4 6;
#X msg 19 188 0;
#X msg 86 190 5;
#X msg 115 193 7;
#X obj 19 252 + 63;
#X obj 19 225 f;
#X obj 19 280 mtof;
#X obj 249 399 osc~ 110;
#X floatatom 69 375 5 0 0 0 - - -;
#X obj 317 53 vsl 15 128 0 127 0 0 empty empty empty 0 -8 0 8 -262144
-1 -1 0 1;
#X obj 350 55 vsl 15 128 0 127 0 0 empty empty empty 0 -8 0 8 -262144
-1 -1 4300 1;
#X obj 384 58 vsl 15 128 0 127 0 0 empty empty empty 0 -8 0 8 -262144
-1 -1 8300 1;
#X obj 248 474 lowfxi 16;
#X obj 382 399 osc~ 110;
#X obj 381 474 lowfxi 16;
#X obj 146 228 f;
#X obj 146 283 mtof;
#X floatatom 451 397 5 0 0 0 - - -;
#X msg 179 192 15;
#X msg 242 196 -5;
#X obj 169 162 sel 0 1 2 3;
#X obj 172 131 cpt 8;
#X msg 213 193 12;
#X msg 146 191 19;
#X obj 505 225 dwnsmp_noise~;
#X floatatom 507 174 5 0 0 0 - - -;
#X obj 675 437 ahd_env~;
#X obj 728 129 vsl 15 128 0 250 0 0 empty empty empty 0 -8 0 8 -262144
-1 -1 4800 1;
#X obj 753 129 vsl 15 128 0 250 0 0 empty empty empty 0 -8 0 8 -262144
-1 -1 7100 1;
#X obj 787 129 vsl 15 128 0 250 0 0 empty empty empty 0 -8 0 8 -262144
-1 -1 5200 1;
#X obj 248 428 ahd_env~;
#X obj 381 428 ahd_env~;
#X obj 347 600 dac~;
#X obj 607 122 sel 0 4 5 6;
#X obj 146 255 + 75;
#X msg 52 189 19;
#X connect 0 0 4 0;
#X connect 0 0 37 0;
#X connect 1 0 2 0;
#X connect 2 0 3 0;
#X connect 2 1 0 2;
#X connect 2 1 25 2;
#X connect 3 0 0 0;
#X connect 3 0 25 0;
#X connect 3 0 34 1;
#X connect 3 0 35 1;
#X connect 4 0 5 0;
#X connect 4 1 39 0;
#X connect 4 2 6 0;
#X connect 4 3 7 0;
#X connect 5 0 9 0;
#X connect 6 0 9 0;
#X connect 7 0 9 0;
#X connect 8 0 10 0;
#X connect 9 0 8 0;
#X connect 10 0 11 0;
#X connect 10 0 12 0;
#X connect 11 0 34 0;
#X connect 13 0 34 2;
#X connect 13 0 35 2;
#X connect 14 0 34 3;
#X connect 14 0 35 3;
#X connect 15 0 34 4;
#X connect 15 0 35 4;
#X connect 16 0 36 0;
#X connect 17 0 35 0;
#X connect 18 0 36 1;
#X connect 19 0 38 0;
#X connect 20 0 17 0;
#X connect 21 0 16 1;
#X connect 21 0 18 1;
#X connect 22 0 19 0;
#X connect 23 0 19 0;
#X connect 24 0 27 0;
#X connect 24 1 22 0;
#X connect 24 2 26 0;
#X connect 24 3 23 0;
#X connect 25 0 24 0;
#X connect 26 0 19 0;
#X connect 27 0 19 0;
#X connect 28 0 30 0;
#X connect 29 0 28 0;
#X connect 30 0 36 0;
#X connect 30 0 36 1;
#X connect 31 0 30 2;
#X connect 32 0 30 3;
#X connect 33 0 30 4;
#X connect 34 0 16 0;
#X connect 35 0 18 0;
#X connect 37 0 30 1;
#X connect 37 1 30 1;
#X connect 37 2 30 1;
#X connect 37 3 30 1;
#X connect 38 0 20 0;
#X connect 39 0 9 0;
