#N canvas 433 0 744 750 12;
#X obj 317 16 inlet;
#X obj 480 21 inlet;
#X obj 26 10 inlet;
#X obj 276 252 f \$1;
#X obj 330 252 f \$2;
#X obj 210 514 vline~;
#X obj 210 540 outlet~;
#X msg 228 480 0;
#X obj 188 191 t b b b b b;
#X obj 208 309 pack 1 f;
#X obj 187 404 t b f;
#X obj 187 431 pack 0 f;
#X obj 188 370 del;
#X connect 0 0 3 0;
#X connect 1 0 4 0;
#X connect 2 0 8 0;
#X connect 3 0 9 1;
#X connect 3 0 12 1;
#X connect 4 0 11 1;
#X connect 5 0 6 0;
#X connect 7 0 5 0;
#X connect 8 0 12 0;
#X connect 8 1 9 0;
#X connect 8 2 7 0;
#X connect 8 3 3 0;
#X connect 8 4 4 0;
#X connect 9 0 5 0;
#X connect 10 0 11 0;
#X connect 11 0 5 0;
#X connect 12 0 10 0;
