#N canvas 0 22 450 300 10;
#X obj 5 20 tgl 15 0 empty empty empty 17 7 0 10 -262144 -1 -1 1 1
;
#X obj -181 193 sig~;
#X obj -141 193 sig~;
#X obj -181 266 outlet~;
#X obj -168 33 inlet~;
#X obj -126 33 inlet~;
#X obj -181 216 *~;
#X obj -141 216 *~;
#X obj -81 33 loadbang;
#X msg -81 60 0;
#X obj -181 172 -;
#X msg -181 149 1 \$1;
#X obj -141 170 f;
#X obj -207 33 inlet;
#X connect 0 0 11 0;
#X connect 0 0 12 0;
#X connect 1 0 6 0;
#X connect 2 0 7 0;
#X connect 4 0 6 1;
#X connect 5 0 7 1;
#X connect 6 0 3 0;
#X connect 7 0 3 0;
#X connect 8 0 9 0;
#X connect 9 0 0 0;
#X connect 10 0 1 0;
#X connect 11 0 10 0;
#X connect 12 0 2 0;
#X connect 13 0 0 0;
#X coords 0 -1 1 1 85 40 1 0 0;
