#N canvas 214 81 1205 626 12;
#X obj 185 18 inlet~;
#X obj 63 250 outlet~ out1;
#X obj 297 250 outlet~ out2;
#X obj 583 250 outlet~ out3;
#X obj 827 250 outlet~ out4;
#N canvas 473 238 450 300 switch 0;
#X obj 45 17 inlet;
#X obj 52 157 unpack f f f f;
#X obj 52 191 outlet;
#X obj 104 191 outlet;
#X obj 156 191 outlet;
#X obj 208 191 outlet;
#X msg 53 118 1 0 0 0;
#X msg 132 118 0 1 0 0;
#X msg 203 118 0 0 1 0;
#X obj 115 68 sel 0 1 2 3;
#X msg 281 118 0 0 0 1;
#X connect 0 0 9 0;
#X connect 1 0 2 0;
#X connect 1 1 3 0;
#X connect 1 2 4 0;
#X connect 1 3 5 0;
#X connect 6 0 1 0;
#X connect 7 0 1 0;
#X connect 8 0 1 0;
#X connect 9 0 6 0;
#X connect 9 1 7 0;
#X connect 9 2 8 0;
#X connect 9 3 10 0;
#X connect 10 0 1 0;
#X restore 33 144 pd switch;
#X obj 34 105 hradio 20 1 0 4 empty empty empty 0 -8 0 10 -203904 -1
-1 0;
#X obj 656 18 loadbang;
#X msg 657 42 0;
#X obj 63 220 *~ 0;
#X obj 297 220 *~ 0;
#X obj 583 220 *~ 0;
#X obj 827 220 *~ 0;
#X obj 183 250 outlet~ out1;
#X obj 417 250 outlet~ out2;
#X obj 703 250 outlet~ out3;
#X obj 947 250 outlet~ out4;
#N canvas 473 238 450 300 switch 0;
#X obj 45 17 inlet;
#X obj 52 157 unpack f f f f;
#X obj 52 191 outlet;
#X obj 104 191 outlet;
#X obj 156 191 outlet;
#X obj 208 191 outlet;
#X msg 53 118 1 0 0 0;
#X msg 132 118 0 1 0 0;
#X msg 203 118 0 0 1 0;
#X obj 115 68 sel 0 1 2 3;
#X msg 281 118 0 0 0 1;
#X connect 0 0 9 0;
#X connect 1 0 2 0;
#X connect 1 1 3 0;
#X connect 1 2 4 0;
#X connect 1 3 5 0;
#X connect 6 0 1 0;
#X connect 7 0 1 0;
#X connect 8 0 1 0;
#X connect 9 0 6 0;
#X connect 9 1 7 0;
#X connect 9 2 8 0;
#X connect 9 3 10 0;
#X connect 10 0 1 0;
#X restore 153 144 pd switch;
#X obj 183 220 *~ 0;
#X obj 417 220 *~ 0;
#X obj 703 220 *~ 0;
#X obj 947 220 *~ 0;
#X obj 252 18 inlet~;
#X obj 343 18 inlet;
#X connect 0 0 9 0;
#X connect 0 0 10 0;
#X connect 0 0 11 0;
#X connect 0 0 12 0;
#X connect 5 0 9 1;
#X connect 5 1 10 1;
#X connect 5 2 11 1;
#X connect 5 3 12 1;
#X connect 6 0 5 0;
#X connect 6 0 17 0;
#X connect 7 0 8 0;
#X connect 8 0 5 0;
#X connect 8 0 17 0;
#X connect 9 0 1 0;
#X connect 10 0 2 0;
#X connect 11 0 3 0;
#X connect 12 0 4 0;
#X connect 17 0 18 1;
#X connect 17 1 19 1;
#X connect 17 2 20 1;
#X connect 17 3 21 1;
#X connect 18 0 13 0;
#X connect 19 0 14 0;
#X connect 20 0 15 0;
#X connect 21 0 16 0;
#X connect 22 0 18 0;
#X connect 22 0 19 0;
#X connect 22 0 20 0;
#X connect 22 0 21 0;
#X connect 23 0 6 0;
#X coords 0 -1 1 1 100 30 2 25 100;
