#N canvas 140 22 450 300 10;
#X obj 5 20 tgl 15 0 empty empty empty 17 7 0 10 -262144 -1 -1 1 1
;
#X obj -181 193 sig~;
#X obj -141 193 sig~;
#X obj -181 266 outlet~;
#X obj -168 33 inlet~;
#X obj -126 33 inlet~;
#X obj -181 216 *~;
#X obj -141 216 *~;
#X obj -81 33 loadbang;
#X msg -81 60 0;
#X obj -183 174 -;
#X msg -181 149 1 \$1;
#X obj -141 170 f;
#X obj -207 33 inlet;
#X floatatom 14 58 5 0 0 0 - - -;
#X floatatom -77 176 5 0 0 0 - - -;
#X floatatom -223 194 5 0 0 0 - - -;
#X obj 101 131 +;
#X msg 94 92 2 3;
#X floatatom 115 184 5 0 0 0 - - -;
#X obj 17 153 t b f;
#X obj 22 208 +;
#X floatatom -24 170 5 0 0 0 - - -;
#X floatatom 53 171 5 0 0 0 - - -;
#X floatatom 23 245 5 0 0 0 - - -;
#X floatatom 3 106 5 0 0 0 - - -;
#X connect 0 0 11 0;
#X connect 0 0 12 0;
#X connect 0 0 14 0;
#X connect 1 0 6 0;
#X connect 2 0 7 0;
#X connect 4 0 6 1;
#X connect 5 0 7 1;
#X connect 6 0 3 0;
#X connect 7 0 3 0;
#X connect 8 0 9 0;
#X connect 9 0 0 0;
#X connect 10 0 1 0;
#X connect 10 0 16 0;
#X connect 11 0 10 0;
#X connect 12 0 2 0;
#X connect 12 0 15 0;
#X connect 13 0 0 0;
#X connect 17 0 19 0;
#X connect 18 0 17 0;
#X connect 20 0 21 0;
#X connect 20 1 21 1;
#X connect 21 0 24 0;
#X connect 22 0 21 0;
#X connect 23 0 21 1;
#X connect 25 0 20 0;
#X coords 0 -1 1 1 85 40 1 0 0;
