#N canvas 0 22 1440 852 10;
#X obj 516 354 cnv 15 100 200 empty empty Enveloppe 20 12 0 14 -4034
-66577 0;
#X obj 77 349 cnv 15 140 200 empty empty Oscillateurs 20 12 0 14 -257985
-66577 0;
#X obj 109 444 phasor~;
#X obj 175 444 osc~;
#X obj 172 477 /~ 2;
#X obj 110 477 /~ 8;
#X obj 81 408 +~ 0.2;
#X obj 171 410 -~ 0.2;
#X obj 164 691 audio/output~;
#X obj 131 62 f;
#X obj 168 62 + 1;
#X msg 49 137 12;
#X msg 98 136 3;
#X msg 153 136 2;
#X msg 206 134 7;
#X obj 160 0 tgl 15 0 empty empty empty 17 7 0 10 -262144 -1 -1 0 1
;
#X obj 162 236 mtof;
#X floatatom 210 223 5 0 0 0 - - -;
#X obj 131 87 % 12;
#X obj 116 111 sel 0 1 2 4 6 8 11;
#X msg 246 134 24;
#X obj 538 410 vline~;
#X obj 241 276 *;
#X obj 288 100 vsl 15 128 0 8 0 0 empty empty empty 0 -9 0 10 -262144
-1 -1 0 1;
#X obj 667 347 cnv 15 100 200 empty empty Enveloppe 20 12 0 14 -4034
-66577 0;
#X obj 677 435 vline~;
#X obj 677 476 *~;
#X obj 168 647 *~;
#X obj 168 168 + 80;
#X obj 269 344 cnv 15 140 200 empty empty Oscillateurs 20 12 0 14 -257985
-66577 0;
#X obj 301 439 phasor~;
#X obj 367 439 osc~;
#X obj 328 310 mtof;
#X obj 273 403 +~ 0.8;
#X obj 363 405 -~ 0.8;
#X obj 150 619 vcf~ 5;
#X obj 151 31 metro 500;
#X msg 680 389 1 \, 0 2000;
#X msg 535 380 \$1 \, 20 500;
#X obj 350 242 - 48;
#X obj 302 472 /~ 2;
#X obj 364 472 /~ 2;
#X connect 2 0 5 0;
#X connect 3 0 4 0;
#X connect 4 0 35 0;
#X connect 5 0 35 0;
#X connect 6 0 2 0;
#X connect 7 0 3 0;
#X connect 9 0 10 0;
#X connect 9 0 18 0;
#X connect 10 0 9 1;
#X connect 11 0 28 0;
#X connect 12 0 28 0;
#X connect 13 0 28 0;
#X connect 14 0 28 0;
#X connect 15 0 36 0;
#X connect 16 0 6 0;
#X connect 16 0 7 0;
#X connect 16 0 22 0;
#X connect 16 0 37 0;
#X connect 18 0 19 0;
#X connect 19 0 11 0;
#X connect 19 1 12 0;
#X connect 19 2 13 0;
#X connect 19 3 14 0;
#X connect 19 4 13 0;
#X connect 19 5 11 0;
#X connect 19 6 20 0;
#X connect 20 0 28 0;
#X connect 21 0 35 1;
#X connect 22 0 38 0;
#X connect 23 0 22 1;
#X connect 25 0 26 0;
#X connect 25 0 26 1;
#X connect 26 0 27 1;
#X connect 27 0 8 0;
#X connect 27 0 8 1;
#X connect 28 0 16 0;
#X connect 28 0 17 0;
#X connect 28 0 39 0;
#X connect 30 0 40 0;
#X connect 31 0 41 0;
#X connect 32 0 33 0;
#X connect 32 0 34 0;
#X connect 33 0 30 0;
#X connect 34 0 31 0;
#X connect 35 0 27 0;
#X connect 36 0 9 0;
#X connect 37 0 25 0;
#X connect 38 0 21 0;
#X connect 39 0 32 0;
#X connect 40 0 35 0;
#X connect 41 0 35 0;
