#N canvas 0 22 785 537 24;
#X declare -lib cyclone;
#X text -1088 -1110 PD <-> Equivalence Synthese Analo;
#X obj -1086 -946 *~;
#X obj -1006 -883 *~;
#X obj -894 -919 vline~;
#X text -1000 -957 a) VCA;
#X obj -687 -710 *~;
#X obj -767 -767 osc~ 440;
#X obj -628 -768 osc~ 440;
#X obj -575 -914 mtof;
#X obj -572 -935 hsl 128 15 0 127 0 0 empty empty empty -2 -8 0 10
-262144 -1 -1 0 1;
#X text -683 -963 b) Ring Modulator/Balanced modulator;
#X text -1076 -657 2) Quantizer;
#X text -1108 -616 freq->note;
#X obj -951 -492 ftom;
#X floatatom -1008 -404 8 0 0 0 - - -;
#X msg -964 -543 440;
#X obj -952 -448 i;
#X text -745 -662 2) sample & Hold;
#X obj -635 -521 samphold~;
#X obj -704 -627 osc~ 0.005;
#X obj -512 -562 vline~;
#X obj -630 -408 snapshot~;
#X floatatom -681 -364 5 0 0 0 - - -;
#X msg -447 -662 bang;
#X text -479 -525 signaux;
#X text -478 -416 controles;
#X text -317 -666 3) slew;
#X obj -306 -437 pack f f;
#X obj -303 -371 vline~;
#X obj -293 -615 metro 100;
#X obj -299 -567 random 256;
#X obj -293 -529 t f b;
#X obj -221 -482 f;
#X obj -91 -1080 import cyclone;
#X obj -10 -523 Scope~ 130 130 256 3 128 0 256 0 0 0 0 102 255 51 135
135 135 0;
#X msg 40 -574 range 0 256;
#X obj -287 -633 tgl 15 0 empty empty empty 17 7 0 10 -262144 -1 -1
1 1;
#X msg -35 -694 buffsize 1000;
#X obj -153 -792 vsl 15 128 0 1000 0 0 empty empty time_slew 0 -9 0
10 -262144 -1 -1 0 1;
#X text -1089 -1005 1) VCA/Ring Modulator/Balanced Modulator/analog
xor;
#X obj -1006 -767 osc~;
#X obj -999 -812 +~ 110;
#X obj -1105 -805 dac~;
#X obj -1032 -968 sig~ 440;
#X obj -1002 -848 *~ 11;
#X msg -887 -967 1 \, 0 500;
#X obj -563 -729 dac~;
#X obj -589 -835 vline~;
#X msg -590 -870 \$1 3000;
#X obj -932 -493 ftom;
#X obj -932 -446 i;
#X obj -931 -403 mtof;
#X obj -931 -356 osc~;
#X obj -932 -531 line;
#X obj -932 -295 dac~;
#X msg -925 -602 220 \, 800 8000;
#X obj -673 -577 noise~;
#X obj -691 -306 osc~;
#X obj -573 -355 +~ 1;
#X obj -575 -311 *~ 0.5;
#X obj -573 -237 +~ 440;
#X obj -573 -273 *~ 440;
#X obj -694 -257 dac~;
#X msg -512 -600 1 \, 0 1;
#X connect 2 0 44 0;
#X connect 3 0 2 1;
#X connect 6 0 5 0;
#X connect 7 0 5 1;
#X connect 8 0 48 0;
#X connect 9 0 8 0;
#X connect 13 0 16 0;
#X connect 15 0 13 0;
#X connect 16 0 14 0;
#X connect 18 0 21 0;
#X connect 18 0 58 0;
#X connect 20 0 18 1;
#X connect 21 0 22 0;
#X connect 23 0 63 0;
#X connect 23 0 21 0;
#X connect 27 0 28 0;
#X connect 28 0 34 0;
#X connect 29 0 30 0;
#X connect 30 0 31 0;
#X connect 31 0 27 0;
#X connect 31 1 32 0;
#X connect 32 0 27 1;
#X connect 35 0 34 0;
#X connect 36 0 29 0;
#X connect 37 0 34 0;
#X connect 38 0 32 1;
#X connect 40 0 42 0;
#X connect 43 0 2 0;
#X connect 44 0 41 0;
#X connect 45 0 3 0;
#X connect 47 0 7 0;
#X connect 48 0 47 0;
#X connect 49 0 50 0;
#X connect 50 0 51 0;
#X connect 51 0 52 0;
#X connect 53 0 49 0;
#X connect 55 0 53 0;
#X connect 56 0 18 0;
#X connect 58 0 59 0;
#X connect 59 0 61 0;
#X connect 60 0 57 0;
#X connect 61 0 60 0;
#X connect 63 0 20 0;
