#N canvas 244 189 954 556 10;
#X obj 105 242 osc~;
#X obj 280 186 noise~;
#X obj 280 220 bp~ 5;
#X msg 121 82 220 \, 110 100;
#X obj 127 121 vline~;
#X obj 212 183 vline~;
#X obj 105 274 *~;
#X obj 98 361 dac~;
#X msg 129 26 bang;
#X obj 276 291 *~ 0.25;
#X obj 482 219 vline~;
#X obj 375 310 *~;
#X msg 295 110 1 \, 0 100;
#X obj 42 118 vline~;
#X obj 50 155 osc~;
#X msg 36 79 330 \, 110 50;
#X msg 565 146 1 \, 0 100;
#X msg 745 145 \$1 \, 0 100;
#X obj 745 119 f;
#X floatatom 773 61 5 0 0 0 - - -;
#X obj 709 32 bng 15 250 50 0 empty empty empty 17 7 0 10 -262144 -1
-1;
#X obj 752 185 print;
#X obj 721 378 print;
#X msg 714 338 \$1 \, \$2 \$3;
#X obj 714 310 pack f f f;
#X obj 772 279 f 0;
#X obj 743 275 f 0;
#X obj 713 278 f 0;
#X obj 712 247 t b b b;
#X obj 707 225 bng 15 250 50 0 empty empty empty 17 7 0 10 -262144
-1 -1;
#X floatatom 868 227 5 0 0 0 - - -;
#X floatatom 818 225 5 0 0 0 - - -;
#X floatatom 769 227 5 0 0 0 - - -;
#X obj 605 253 bng 15 250 50 0 empty empty empty 17 7 0 10 -262144
-1 -1;
#X obj 595 340 print;
#X msg 602 308 \$1-monPatch;
#X obj 607 281 f \$0;
#X connect 0 0 6 0;
#X connect 1 0 2 0;
#X connect 2 0 9 0;
#X connect 3 0 4 0;
#X connect 4 0 0 0;
#X connect 5 0 6 1;
#X connect 6 0 7 0;
#X connect 6 0 7 1;
#X connect 8 0 12 0;
#X connect 8 0 3 0;
#X connect 8 0 16 0;
#X connect 8 0 15 0;
#X connect 9 0 11 0;
#X connect 10 0 11 1;
#X connect 11 0 7 0;
#X connect 11 0 7 1;
#X connect 12 0 5 0;
#X connect 13 0 14 0;
#X connect 14 0 6 0;
#X connect 15 0 13 0;
#X connect 16 0 10 0;
#X connect 17 0 21 0;
#X connect 18 0 17 0;
#X connect 19 0 18 1;
#X connect 20 0 18 0;
#X connect 23 0 22 0;
#X connect 24 0 23 0;
#X connect 25 0 24 2;
#X connect 26 0 24 1;
#X connect 27 0 24 0;
#X connect 28 0 27 0;
#X connect 28 1 26 0;
#X connect 28 2 25 0;
#X connect 29 0 28 0;
#X connect 30 0 25 1;
#X connect 31 0 26 1;
#X connect 32 0 27 1;
#X connect 33 0 36 0;
#X connect 35 0 34 0;
#X connect 36 0 35 0;
