#N canvas 12 0 1268 750 12;
#X obj 274 12 inlet~ audioin;
#X obj 33 12 inlet bang;
#X obj 281 670 outlet~;
#X obj 22 107 == 0;
#X obj 66 107 == 1;
#X obj 110 107 == 2;
#X obj 154 107 == 3;
#X obj 263 308 *~;
#X obj 320 307 *~;
#X obj 394 308 *~;
#X obj 449 309 *~;
#X obj 22 181 vline~;
#X obj 82 181 vline~;
#X obj 142 181 vline~;
#X obj 202 181 vline~;
#X msg 22 151 \$1 5;
#X msg 82 151 \$1 5;
#X msg 142 151 \$1 5;
#X msg 202 151 \$1 5;
#N canvas 276 79 538 532 compteur 0;
#X obj 66 30 inlet clock;
#X obj 196 31 inlet init;
#X msg 227 191 0;
#X obj 207 218 f;
#X obj 252 218 + 1;
#X obj 207 257 % 4;
#X obj 95 310 outlet;
#X obj 177 191 bang;
#X obj 88 217 random 4;
#X obj 87 188 bang;
#X obj 86 153 moses 0;
#X obj 87 123 random 50;
#X connect 0 0 11 0;
#X connect 1 0 2 0;
#X connect 2 0 3 1;
#X connect 3 0 4 0;
#X connect 3 0 5 0;
#X connect 4 0 3 1;
#X connect 5 0 6 0;
#X connect 7 0 3 0;
#X connect 8 0 6 0;
#X connect 9 0 8 0;
#X connect 10 0 9 0;
#X connect 10 1 7 0;
#X connect 11 0 10 0;
#X restore 79 50 pd compteur;
#X obj 162 11 inlet init;
#N canvas 237 122 562 682 fxshortdelayfdbk 0;
#X obj 84 18 inlet~;
#X obj 122 605 outlet~;
#X obj 121 499 vd~ \$0-buff1;
#X obj 232 538 s~ \$0-feedbkk;
#X obj 114 159 r~ \$0-feedbkk;
#X msg 141 350 2 \$1;
#X obj 141 378 pow;
#X obj 122 413 *;
#X obj 122 440 pack f f;
#X obj 122 469 vline~;
#X obj 323 -9 inlet;
#X obj 322 14 t f b f;
#X obj 142 557 /~ 2;
#X obj 140 278 random 8;
#X obj 292 468 nbx 5 14 -1e+037 1e+037 0 0 empty empty empty 0 -6 0
10 -262144 -1 -1 460.045 256;
#X obj 141 323 - 8;
#X obj 80 227 delwrite~ \$0-buff1 4000;
#X obj 113 192 *~ 0.5;
#X connect 0 0 12 0;
#X connect 0 0 16 0;
#X connect 2 0 3 0;
#X connect 2 0 12 0;
#X connect 4 0 17 0;
#X connect 5 0 6 0;
#X connect 6 0 7 1;
#X connect 7 0 8 0;
#X connect 7 0 14 0;
#X connect 8 0 9 0;
#X connect 9 0 2 0;
#X connect 10 0 11 0;
#X connect 11 0 7 0;
#X connect 11 1 13 0;
#X connect 11 2 8 1;
#X connect 12 0 1 0;
#X connect 13 0 15 0;
#X connect 15 0 5 0;
#X connect 17 0 16 0;
#X restore 144 450 pd fxshortdelayfdbk;
#X obj 452 152 timer;
#X obj 452 98 tgl 15 0 empty empty empty 0 -6 0 8 -262144 -1 -1 1 1
;
#X obj 452 122 sel 1 0;
#N canvas 12 50 1268 750 ringmod 0;
#X obj 118 8 inlet~;
#X obj 201 7 inlet;
#X obj 264 79 f;
#X obj 232 79 max;
#X obj 252 234 metro;
#X obj 215 171 t b b;
#X msg 270 197 0;
#X msg 212 199 1;
#X obj 161 77 f;
#X obj 195 78 + 1;
#X msg 182 50 0;
#X obj 141 50 bang;
#X obj 161 137 sel 0;
#X obj 161 107 % 16;
#X obj 237 362 random 63;
#X obj 238 483 *~;
#X obj 237 438 osc~;
#X obj 237 412 mtof;
#X obj 196 526 *~;
#X obj 185 642 outlet~;
#X obj 284 10 inlet;
#X obj 331 417 osc~;
#X obj 331 467 clip~ -1 1;
#X obj 329 362 pack f f;
#X obj 330 387 vline~;
#X obj 388 330 / 16;
#X obj 331 441 *~ 1000;
#X floatatom 329 54 5 0 0 0 - - -;
#X obj 377 271 / 1000;
#X msg 329 304 1 \$1;
#X obj 329 332 /;
#X obj 238 386 + 64;
#X obj 150 590 /~ 0.75;
#X connect 0 0 18 0;
#X connect 1 0 3 0;
#X connect 1 0 11 0;
#X connect 1 0 25 0;
#X connect 1 0 27 0;
#X connect 1 0 28 0;
#X connect 2 0 3 1;
#X connect 2 0 4 1;
#X connect 3 0 2 0;
#X connect 4 0 14 0;
#X connect 5 0 7 0;
#X connect 5 1 6 0;
#X connect 6 0 4 0;
#X connect 6 0 3 1;
#X connect 7 0 4 0;
#X connect 8 0 9 0;
#X connect 8 0 13 0;
#X connect 9 0 8 1;
#X connect 10 0 8 1;
#X connect 11 0 8 0;
#X connect 12 0 5 0;
#X connect 13 0 12 0;
#X connect 14 0 31 0;
#X connect 15 0 18 1;
#X connect 16 0 15 0;
#X connect 17 0 16 0;
#X connect 18 0 32 0;
#X connect 20 0 10 0;
#X connect 20 0 6 0;
#X connect 21 0 26 0;
#X connect 22 0 15 1;
#X connect 23 0 24 0;
#X connect 24 0 21 0;
#X connect 25 0 23 1;
#X connect 26 0 22 0;
#X connect 28 0 29 0;
#X connect 29 0 30 0;
#X connect 30 0 23 0;
#X connect 31 0 17 0;
#X connect 32 0 19 0;
#X restore 344 448 pd ringmod;
#N canvas 0 0 1268 750 disto 0;
#X obj 449 267 f;
#X obj 486 267 + 1;
#X msg 522 234 0;
#X obj 449 237 until;
#X obj 446 199 t b b;
#X obj 34 294 +~ 1;
#X obj 34 322 /~ 2;
#X obj 446 165 t b f;
#X obj 34 350 *~ 128;
#X obj 444 354 / 128;
#X obj 524 200 sel 127;
#X obj 444 420 - 1;
#X obj 444 396 *;
#X obj 443 443 * 3.14159;
#X obj 443 468 cos;
#X obj 444 375 * 2;
#X obj 35 233 inlet~;
#X obj 35 436 outlet~;
#X obj 126 490 table \$0-lesignal 128;
#X obj 34 374 tabread4~ \$0-lesignal;
#X obj 479 680 tabwrite \$0-lesignal;
#X obj 286 13 loadbang;
#X obj 34 402 hip~ 5;
#X msg 446 134 1;
#X floatatom 488 470 5 0 0 0 - - -;
#X obj 488 510 / 64;
#X obj 489 535 - 1;
#X obj 444 324 t f f f;
#X obj 372 618 + 0;
#X obj 345 530 i;
#X obj 343 555 f;
#X obj 344 505 * 32;
#X obj 346 577 / 32;
#X connect 0 0 1 0;
#X connect 0 0 10 0;
#X connect 0 0 27 0;
#X connect 1 0 0 1;
#X connect 2 0 0 1;
#X connect 3 0 0 0;
#X connect 4 0 3 0;
#X connect 4 1 2 0;
#X connect 5 0 6 0;
#X connect 6 0 8 0;
#X connect 7 0 4 0;
#X connect 7 1 12 1;
#X connect 7 1 15 1;
#X connect 8 0 19 0;
#X connect 9 0 15 0;
#X connect 10 0 3 1;
#X connect 11 0 13 0;
#X connect 12 0 11 0;
#X connect 13 0 14 0;
#X connect 14 0 20 0;
#X connect 15 0 12 0;
#X connect 16 0 5 0;
#X connect 19 0 22 0;
#X connect 21 0 23 0;
#X connect 22 0 17 0;
#X connect 23 0 7 0;
#X connect 24 0 25 0;
#X connect 25 0 26 0;
#X connect 27 0 9 0;
#X connect 27 1 24 0;
#X connect 27 2 20 1;
#X connect 28 0 20 0;
#X connect 29 0 30 0;
#X connect 30 0 32 0;
#X connect 31 0 29 0;
#X restore 441 447 pd disto;
#X obj 273 60 *~ 0.5;
#X connect 0 0 27 0;
#X connect 1 0 19 0;
#X connect 1 0 23 0;
#X connect 3 0 15 0;
#X connect 4 0 16 0;
#X connect 5 0 17 0;
#X connect 6 0 18 0;
#X connect 7 0 21 0;
#X connect 8 0 2 0;
#X connect 9 0 25 0;
#X connect 10 0 26 0;
#X connect 11 0 7 1;
#X connect 12 0 8 1;
#X connect 13 0 9 1;
#X connect 14 0 10 1;
#X connect 15 0 11 0;
#X connect 16 0 12 0;
#X connect 17 0 13 0;
#X connect 18 0 14 0;
#X connect 19 0 3 0;
#X connect 19 0 4 0;
#X connect 19 0 5 0;
#X connect 19 0 6 0;
#X connect 20 0 19 1;
#X connect 20 0 25 2;
#X connect 21 0 2 0;
#X connect 22 0 25 1;
#X connect 22 0 21 1;
#X connect 23 0 24 0;
#X connect 24 0 22 0;
#X connect 24 1 22 1;
#X connect 25 0 2 0;
#X connect 26 0 2 0;
#X connect 27 0 7 0;
#X connect 27 0 8 0;
#X connect 27 0 9 0;
#X connect 27 0 10 0;
