#N canvas 182 88 1270 747 12;
#X obj 147 273 tabplay~ \$1;
#X obj 147 174 r index;
#X obj 186 245 random;
#X obj 228 174 r deltaindex;
#X obj 147 243 +;
#X obj 432 518 vline~;
#X msg 429 424 1 5;
#X obj 436 379 delay 5;
#X obj 479 424 f;
#X msg 479 461 0 \$1;
#X obj 273 506 *~;
#X obj 358 83 bng 15 250 50 0 empty empty empty 0 -6 0 8 -262144 -1
-1;
#X obj 147 213 t f b;
#X obj 419 351 delay;
#X obj 49 313 random 100;
#X obj 50 337 / 100;
#X obj 58 422 -;
#X obj 50 366 t b f;
#X obj 51 392 1;
#X obj 314 616 *~;
#X obj 268 617 *~;
#X obj 260 645 throw~ sumleft;
#X obj 396 647 throw~ sumright;
#X obj 281 587 /~ 16;
#X obj 452 316 / 44.1;
#X obj 498 386 / 4.41;
#X connect 0 0 10 0;
#X connect 1 0 12 0;
#X connect 2 0 4 1;
#X connect 2 0 24 0;
#X connect 3 0 2 1;
#X connect 3 0 25 0;
#X connect 4 0 0 0;
#X connect 5 0 10 1;
#X connect 6 0 5 0;
#X connect 7 0 8 0;
#X connect 8 0 9 0;
#X connect 9 0 5 0;
#X connect 10 0 23 0;
#X connect 11 0 13 0;
#X connect 12 0 4 0;
#X connect 12 0 11 0;
#X connect 12 1 2 0;
#X connect 12 1 14 0;
#X connect 13 0 7 0;
#X connect 13 0 6 0;
#X connect 14 0 15 0;
#X connect 15 0 17 0;
#X connect 15 0 20 1;
#X connect 16 0 19 1;
#X connect 17 0 18 0;
#X connect 17 1 16 1;
#X connect 18 0 16 0;
#X connect 19 0 22 0;
#X connect 20 0 21 0;
#X connect 23 0 19 0;
#X connect 23 0 20 0;
#X connect 24 0 13 1;
#X connect 25 0 8 1;
