#N canvas 2 45 1268 750 10;
#X obj 147 273 tabplay~ \$1;
#X obj 147 174 r index;
#X obj 186 245 random;
#X obj 217 161 r deltaindex;
#X obj 147 243 +;
#X obj 327 286 r freq;
#X obj 358 219 r deltafreq;
#X obj 267 218 random 250;
#X obj 267 252 pack f f;
#X obj 266 285 vline~;
#X obj 266 317 +~;
#X obj 432 518 vline~;
#X msg 429 424 1 5;
#X obj 436 379 delay 5;
#X obj 479 424 f;
#X msg 479 461 0 \$1;
#X obj 273 506 *~;
#X obj 358 83 bng 15 250 50 0 empty empty empty 0 -6 0 8 -262144 -1
-1;
#X obj 147 213 t f b;
#X obj 267 349 osc~ 2000;
#X obj 419 351 delay;
#X obj 117 418 random 100;
#X obj 123 465 / 100;
#X obj 105 579 -;
#X obj 100 512 t b f;
#X obj 91 541 1;
#X obj 314 616 *~;
#X obj 268 617 *~;
#X obj 260 645 throw~ sumleft;
#X obj 396 647 throw~ sumright;
#X obj 452 316 / 44.1;
#X obj 498 386 / 44.1;
#X obj 281 587 /~ 16;
#X obj 247 393 *~;
#X connect 0 0 33 0;
#X connect 1 0 18 0;
#X connect 2 0 4 1;
#X connect 2 0 30 0;
#X connect 3 0 2 1;
#X connect 3 0 31 0;
#X connect 4 0 0 0;
#X connect 5 0 10 1;
#X connect 6 0 8 1;
#X connect 7 0 8 0;
#X connect 8 0 9 0;
#X connect 9 0 10 0;
#X connect 10 0 19 0;
#X connect 11 0 16 1;
#X connect 12 0 11 0;
#X connect 13 0 14 0;
#X connect 14 0 15 0;
#X connect 15 0 11 0;
#X connect 16 0 32 0;
#X connect 17 0 7 0;
#X connect 17 0 20 0;
#X connect 18 0 4 0;
#X connect 18 0 17 0;
#X connect 18 1 2 0;
#X connect 18 1 21 0;
#X connect 19 0 33 1;
#X connect 20 0 13 0;
#X connect 20 0 12 0;
#X connect 21 0 22 0;
#X connect 22 0 24 0;
#X connect 22 0 27 1;
#X connect 23 0 26 1;
#X connect 24 0 25 0;
#X connect 24 1 23 1;
#X connect 25 0 23 0;
#X connect 26 0 29 0;
#X connect 27 0 28 0;
#X connect 30 0 20 1;
#X connect 31 0 14 1;
#X connect 31 0 7 1;
#X connect 32 0 26 0;
#X connect 32 0 27 0;
#X connect 33 0 16 0;
