#N canvas -18 17 1264 746 10;
#X floatatom 69 211 5 0 0 0 tempo(ms) - -;
#N canvas 109 22 1175 750 fxbuff 0;
#X obj 282 38 inlet~;
#X obj 354 37 inlet~;
#X obj 102 677 outlet~;
#X obj 221 671 outlet~;
#X obj 9 37 inlet clock;
#X obj 103 37 inlet delta;
#X obj 202 39 inlet go;
#X obj 564 699 tabwrite~ tablel;
#X obj 689 698 tabwrite~ tabler;
#X msg 530 648 bang;
#X msg 586 649 stop;
#X obj 102 580 tabplay~ tablel;
#X obj 221 580 tabplay~ tabler;
#X obj 759 566 table tablel 88200;
#X obj 760 589 table tabler 88200;
#X obj 103 86 t b b f;
#X obj 132 188 *;
#X obj 143 261 delay;
#X obj 103 65 f;
#X obj 9 113 t b b b;
#X obj 174 294 delay;
#X obj 144 434 f 0;
#X obj 175 344 delay;
#X obj 146 618 *~;
#X obj 253 620 *~;
#X obj 632 130 bang;
#X obj 631 234 osc~ 400;
#X obj 132 216 * 44.1;
#X msg 631 184 \$1 125;
#X obj 631 78 random 4;
#X obj 633 105 sel 0 1 2;
#X obj 494 111 f;
#X obj 532 112 + 1;
#X msg 510 85 0;
#X obj 494 158 sel 0;
#X msg 494 226 2 \$1;
#X obj 494 249 pow;
#X obj 146 644 *~;
#X obj 253 643 *~;
#X obj 494 183 random 4;
#X floatatom 503 280 5 0 0 0 - - -;
#X obj 494 204 + 1;
#X obj 494 134 % 64;
#X obj 124 136 random 16;
#X obj 124 162 * 1;
#X obj 334 406 random 4;
#X obj 334 434 / 4;
#X obj 204 269 * 0.5;
#X obj 147 108 / 8;
#X obj 726 132 bang;
#X obj 191 384 delay;
#X obj 629 158 random 4000;
#X obj 725 160 random 2000;
#X obj 630 209 vline~;
#X obj 173 239 * 2;
#X obj 205 322 * 1;
#X obj 221 362 * 0.75;
#X connect 0 0 7 0;
#X connect 1 0 8 0;
#X connect 4 0 19 0;
#X connect 4 0 31 0;
#X connect 5 0 18 0;
#X connect 6 0 9 0;
#X connect 6 0 33 0;
#X connect 9 0 7 0;
#X connect 9 0 8 0;
#X connect 10 0 7 0;
#X connect 10 0 8 0;
#X connect 11 0 2 0;
#X connect 11 0 23 0;
#X connect 11 1 10 0;
#X connect 11 1 21 0;
#X connect 12 0 3 0;
#X connect 12 0 24 0;
#X connect 15 1 43 0;
#X connect 15 2 48 0;
#X connect 16 0 27 0;
#X connect 16 0 47 0;
#X connect 16 0 54 0;
#X connect 17 0 10 0;
#X connect 17 0 20 0;
#X connect 17 0 21 0;
#X connect 18 0 15 0;
#X connect 19 0 17 0;
#X connect 19 0 21 0;
#X connect 19 2 18 0;
#X connect 19 2 29 0;
#X connect 19 2 45 0;
#X connect 20 0 22 0;
#X connect 20 0 21 0;
#X connect 21 0 11 0;
#X connect 21 0 12 0;
#X connect 22 0 21 0;
#X connect 22 0 9 0;
#X connect 22 0 50 0;
#X connect 23 0 37 0;
#X connect 24 0 38 0;
#X connect 25 0 51 0;
#X connect 26 0 23 1;
#X connect 26 0 24 1;
#X connect 27 0 21 1;
#X connect 28 0 53 0;
#X connect 29 0 30 0;
#X connect 30 0 25 0;
#X connect 30 1 39 0;
#X connect 30 1 25 0;
#X connect 30 2 49 0;
#X connect 31 0 32 0;
#X connect 31 0 42 0;
#X connect 32 0 31 1;
#X connect 33 0 31 1;
#X connect 34 0 39 0;
#X connect 35 0 36 0;
#X connect 36 0 40 0;
#X connect 36 0 43 1;
#X connect 37 0 7 0;
#X connect 38 0 8 0;
#X connect 39 0 41 0;
#X connect 41 0 35 0;
#X connect 42 0 34 0;
#X connect 43 0 44 0;
#X connect 44 0 16 0;
#X connect 45 0 46 0;
#X connect 46 0 37 1;
#X connect 46 0 38 1;
#X connect 47 0 20 1;
#X connect 47 0 55 0;
#X connect 48 0 16 1;
#X connect 49 0 52 0;
#X connect 50 0 21 0;
#X connect 51 0 28 0;
#X connect 52 0 28 0;
#X connect 53 0 26 0;
#X connect 54 0 17 1;
#X connect 55 0 22 1;
#X connect 55 0 56 0;
#X connect 56 0 50 1;
#X restore 482 580 pd fxbuff;
#X obj 505 626 dac~;
#X obj 473 445 *~ 0.5;
#X obj 518 445 *~ 0.5;
#X obj 1010 125 soundfiler;
#X obj 1195 228 / 44.1;
#N canvas 0 0 474 324 smp2phz 0;
#X obj 62 -2 inlet;
#X obj 71 212 outlet;
#X obj 83 56 t b f;
#X obj 81 129 /;
#X msg 41 97 44100;
#X connect 0 0 2 0;
#X connect 2 0 4 0;
#X connect 2 1 3 1;
#X connect 3 0 1 0;
#X connect 4 0 3 0;
#X restore 1037 227 pd smp2phz;
#X obj 1009 154 f;
#X obj 1012 12 bng 15 250 50 0 empty empty empty 0 -6 0 8 -262144 -1
-1;
#X obj 1012 42 openpanel;
#X obj 1037 269 s smparrayphz;
#X obj 1105 227 s smparraysize;
#X obj 1195 256 s smparraytime;
#X obj 69 159 r smparraytime;
#X obj 655 289 phasor~;
#X obj 674 231 r smparrayphz;
#X obj 655 257 *~ 1;
#X obj 655 175 pack 1 0;
#X obj 655 203 vline~;
#X msg 625 116 1;
#X obj 653 318 *~;
#X obj 708 293 r smparraysize;
#X obj 652 343 +~ 1;
#X obj 746 470 f;
#X obj 773 469 + 1;
#X obj 744 514 sel 0;
#X obj 855 537 timer;
#X obj 855 461 f;
#X obj 882 460 + 1;
#X obj 855 512 sel 0 1;
#X msg 1037 8 go;
#X msg 544 61 bang;
#X msg 819 246 0;
#X obj 1017 481 f;
#X obj 1044 480 + 1;
#X obj 1017 532 sel 0;
#X msg 1017 558 0;
#X obj 1075 44 table Lesamplel;
#X obj 1139 23 table Lesampler;
#X msg 1011 81 read -resize \$1 Lesamplel Lesampler;
#X obj 651 376 tabread4~ Lesamplel;
#X obj 797 379 tabread4~ Lesampler;
#X obj 682 34 t b b;
#X obj 667 88 sel 0 1 2 3 4;
#X obj 667 63 random 5;
#X msg 661 116 0.75;
#X msg 734 117 -1;
#X msg 701 117 0.125;
#X obj 626 -68 f;
#X obj 653 -69 + 1;
#X obj 626 -17 sel 0;
#X obj 483 731 delwrite~ del1 4000;
#X obj 471 372 delread~ del1;
#X floatatom 417 376 5 0 0 0 - - -;
#X obj 483 707 bp~ 2000 20;
#X obj 1017 505 % 32;
#X obj 746 494 % 16;
#X obj 472 342 * 2;
#X obj 389 385 *;
#X obj 485 409 *~ 1;
#X obj 400 238 vsl 15 128 0 2 0 0 empty empty empty 0 -8 0 8 -262144
-1 -1 5800 1;
#X floatatom 344 389 5 0 0 0 - - -;
#X obj 650 412 fiddle~ 512;
#X obj 1076 7 bng 15 250 50 0 empty empty empty 0 -6 0 8 -262144 -1
-1;
#X floatatom 855 563 10 0 0 0 - - -;
#X obj 745 541 bng 15 250 50 0 empty empty empty 0 -6 0 8 -262144 -1
-1;
#X obj 570 15 bng 15 250 50 0 empty empty empty 0 -6 0 8 -262144 -1
-1;
#X obj 855 485 % 16;
#X obj 69 186 / 8;
#X obj 698 150 / 32;
#X obj 626 -44 % 2;
#X obj 633 466 bng 15 250 50 0 empty empty empty 0 -6 0 8 -262144 -1
-1;
#X msg 761 118 1.25;
#X obj 647 656 record300;
#X connect 0 0 1 1;
#X connect 0 0 70 0;
#X connect 1 0 2 0;
#X connect 1 0 55 0;
#X connect 1 0 63 0;
#X connect 1 0 74 0;
#X connect 1 1 2 1;
#X connect 1 1 55 0;
#X connect 1 1 63 0;
#X connect 1 1 74 1;
#X connect 3 0 1 3;
#X connect 4 0 1 4;
#X connect 5 0 8 0;
#X connect 6 0 13 0;
#X connect 7 0 11 0;
#X connect 8 0 7 0;
#X connect 8 0 6 0;
#X connect 8 0 12 0;
#X connect 9 0 10 0;
#X connect 10 0 40 0;
#X connect 14 0 69 0;
#X connect 15 0 21 0;
#X connect 16 0 17 1;
#X connect 17 0 15 0;
#X connect 18 0 19 0;
#X connect 19 0 17 0;
#X connect 20 0 18 0;
#X connect 21 0 23 0;
#X connect 22 0 21 1;
#X connect 23 0 41 0;
#X connect 23 0 42 0;
#X connect 24 0 25 0;
#X connect 24 0 57 0;
#X connect 25 0 24 1;
#X connect 26 0 1 0;
#X connect 26 0 66 0;
#X connect 27 0 1 1;
#X connect 27 0 58 0;
#X connect 27 0 65 0;
#X connect 27 0 70 0;
#X connect 28 0 29 0;
#X connect 28 0 68 0;
#X connect 29 0 28 1;
#X connect 30 0 27 0;
#X connect 30 1 27 1;
#X connect 31 0 43 0;
#X connect 32 0 1 2;
#X connect 32 0 20 0;
#X connect 33 0 15 1;
#X connect 33 0 24 1;
#X connect 33 0 28 1;
#X connect 33 0 34 1;
#X connect 33 0 49 1;
#X connect 34 0 35 0;
#X connect 34 0 56 0;
#X connect 35 0 34 1;
#X connect 36 0 37 0;
#X connect 37 0 15 1;
#X connect 40 0 5 0;
#X connect 41 0 3 0;
#X connect 41 0 63 0;
#X connect 42 0 4 0;
#X connect 43 0 32 0;
#X connect 43 0 74 2;
#X connect 43 1 33 0;
#X connect 44 0 20 0;
#X connect 44 1 46 0;
#X connect 44 2 48 0;
#X connect 44 3 47 0;
#X connect 44 4 73 0;
#X connect 45 0 44 0;
#X connect 46 0 18 0;
#X connect 47 0 18 0;
#X connect 48 0 18 0;
#X connect 49 0 50 0;
#X connect 49 0 71 0;
#X connect 50 0 49 1;
#X connect 51 0 45 0;
#X connect 51 0 67 0;
#X connect 53 0 60 0;
#X connect 55 0 52 0;
#X connect 56 0 36 0;
#X connect 57 0 26 0;
#X connect 58 0 53 0;
#X connect 58 0 54 0;
#X connect 59 0 60 1;
#X connect 60 0 3 0;
#X connect 60 0 4 0;
#X connect 61 0 59 0;
#X connect 61 0 59 1;
#X connect 61 0 62 0;
#X connect 63 1 24 0;
#X connect 63 1 34 0;
#X connect 63 1 49 0;
#X connect 63 1 28 0;
#X connect 63 1 72 0;
#X connect 68 0 30 0;
#X connect 69 0 0 0;
#X connect 70 0 18 1;
#X connect 71 0 51 0;
#X connect 73 0 18 0;
