#N canvas 361 244 599 312 12;
#X obj 151 205 soundrec;
#X obj 32 15 inlet~ l;
#X obj 107 14 inlet~ r;
#X obj 201 15 inlet bang;
#X obj 201 41 bang;
#X obj 349 19 loadbang;
#X obj 348 46 t b b;
#X msg 417 68 \; dsp 1 \;;
#X msg 328 79 pd301.wav;
#X obj 300 17 inlet;
#X connect 1 0 0 0;
#X connect 2 0 0 1;
#X connect 3 0 4 0;
#X connect 4 0 0 2;
#X connect 5 0 6 0;
#X connect 6 0 8 0;
#X connect 6 1 7 0;
#X connect 7 0 0 4;
#X connect 8 0 0 4;
#X connect 9 0 0 3;
