#N canvas 0 0 1268 750 12;
#X obj 725 584 tabplay~ thetab;
#X obj 1104 29 table thetab;
#X obj 815 68 openpanel;
#X obj 815 126 soundfiler;
#X msg 815 96 read -resize \$1 thetab;
#X msg 814 1 bang;
#X obj 815 157 f;
#X obj 815 188 / 44.1;
#X obj 692 127 metro;
#X msg 657 62 bang;
#X obj 692 156 s bgmetro;
#X obj 630 414 random 16;
#X obj 725 560 *;
#X obj 681 708 dac~;
#X obj 744 531 / 16;
#X obj 725 468 f;
#X obj 766 468 + 1;
#X obj 725 496 % 16;
#X obj 692 101 t b b;
#X obj 630 307 tgl 15 0 empty empty empty 0 -6 0 8 -262144 -1 -1 1
1;
#X obj 630 331 f;
#X obj 630 386 bang;
#X obj 725 437 bang;
#X obj 494 253 r bgmetro;
#N canvas 0 0 1268 750 rfx 0;
#X obj 339 14 inlet~ audioin;
#X obj 151 14 inlet bang;
#X obj 151 43 random 4;
#X obj 348 672 outlet~;
#X obj 89 109 == 0;
#X obj 133 109 == 1;
#X obj 177 109 == 2;
#X obj 221 109 == 3;
#X obj 330 310 *~;
#X obj 397 310 *~;
#X obj 461 310 *~;
#X obj 503 309 *~;
#X obj 89 183 vline~;
#X obj 149 183 vline~;
#X obj 209 183 vline~;
#X obj 269 183 vline~;
#N canvas 0 0 1268 750 fx1 0;
#X obj 140 14 inlet~;
#X obj 161 311 outlet~;
#X obj 267 60 env~ 4096;
#X obj 266 146 vline~;
#X obj 366 132 loadbang;
#X obj 352 60 block~ 64 1 0.125;
#X obj 161 277 *~ 8;
#X msg 266 117 \$1 250;
#X obj 267 89 * 10;
#X msg 367 162 30;
#X obj 162 235 vcf~ 4000 30;
#X connect 0 0 2 0;
#X connect 0 0 10 0;
#X connect 2 0 8 0;
#X connect 3 0 10 1;
#X connect 4 0 9 0;
#X connect 6 0 1 0;
#X connect 7 0 3 0;
#X connect 8 0 7 0;
#X connect 9 0 10 2;
#X connect 10 0 6 0;
#X restore 331 362 pd fx1;
#N canvas 12 50 1268 750 fx2 0;
#X obj 140 14 inlet~;
#X obj 260 443 outlet~;
#X obj 365 278 vline~;
#X obj 365 305 osc~;
#X obj 265 360 *~;
#X obj 260 409 *~ 1;
#X obj 327 34 fiddle~;
#X obj 361 68 unpack f f;
#X floatatom 365 135 5 0 0 0 - - -;
#X obj 489 3 inlet;
#X obj 365 163 max;
#X obj 419 169 f;
#X floatatom 365 192 5 0 0 0 - - -;
#X obj 365 223 * 16;
#X msg 365 249 \$1 25;
#X msg 484 62 1;
#X msg 527 62 0;
#X connect 0 0 4 0;
#X connect 0 0 6 0;
#X connect 2 0 3 0;
#X connect 3 0 4 1;
#X connect 4 0 5 0;
#X connect 5 0 1 0;
#X connect 6 2 7 0;
#X connect 7 0 8 0;
#X connect 8 0 10 0;
#X connect 9 0 15 0;
#X connect 9 0 16 0;
#X connect 10 0 11 0;
#X connect 10 0 12 0;
#X connect 11 0 10 1;
#X connect 12 0 13 0;
#X connect 13 0 14 0;
#X connect 14 0 2 0;
#X connect 15 0 11 0;
#X connect 15 0 10 1;
#X connect 15 0 10 0;
#X connect 16 0 3 1;
#X restore 392 363 pd fx2;
#N canvas 0 0 1268 750 fx3 0;
#X obj 140 14 inlet~;
#X obj 179 499 outlet~;
#X obj 399 247 delwrite~ bagou 125;
#X obj 261 312 vd~ bagou;
#X obj 484 120 r~ feedback;
#X obj 260 348 s~ feedback;
#X obj 63 23 inlet;
#X obj 260 277 vline~;
#X obj 49 50 t b b;
#X obj 314 15 inlet;
#X obj 316 119 timer;
#X obj 314 58 tgl 15 0 empty empty empty 0 -6 0 8 -262144 -1 -1 1 1
;
#X obj 315 85 sel 0 1;
#X obj 86 80 f;
#X obj 101 356;
#X obj 40 104 pack f f;
#X msg 40 79 1;
#X obj 484 151 *~ 0.8;
#X connect 0 0 2 0;
#X connect 3 0 5 0;
#X connect 3 0 1 0;
#X connect 4 0 17 0;
#X connect 6 0 8 0;
#X connect 7 0 3 0;
#X connect 8 0 16 0;
#X connect 8 1 13 0;
#X connect 9 0 11 0;
#X connect 10 0 13 1;
#X connect 10 0 15 1;
#X connect 11 0 12 0;
#X connect 12 0 10 0;
#X connect 12 1 10 1;
#X connect 13 0 7 0;
#X connect 15 0 7 0;
#X connect 16 0 15 0;
#X connect 17 0 2 0;
#X restore 490 363 pd fx3;
#X obj 490 259 sel 3;
#X obj 340 62 *~ 0.5;
#X msg 89 153 \$1 5;
#X msg 149 153 \$1 5;
#X msg 209 153 \$1 5;
#X msg 269 153 \$1 5;
#X obj 27 107 sel 0;
#X obj 27 179 f;
#X obj 58 181 + 1;
#X obj 27 242 sel 0;
#X obj 27 208 % 8;
#X connect 0 0 20 0;
#X connect 1 0 2 0;
#X connect 2 0 4 0;
#X connect 2 0 5 0;
#X connect 2 0 6 0;
#X connect 2 0 7 0;
#X connect 2 0 19 0;
#X connect 2 0 25 0;
#X connect 4 0 21 0;
#X connect 5 0 22 0;
#X connect 6 0 23 0;
#X connect 7 0 24 0;
#X connect 8 0 16 0;
#X connect 9 0 17 0;
#X connect 10 0 3 0;
#X connect 11 0 18 1;
#X connect 12 0 8 1;
#X connect 13 0 9 1;
#X connect 14 0 10 1;
#X connect 15 0 11 1;
#X connect 16 0 3 0;
#X connect 16 0 18 1;
#X connect 17 0 3 0;
#X connect 18 0 3 0;
#X connect 19 0 18 0;
#X connect 20 0 8 0;
#X connect 20 0 9 0;
#X connect 20 0 10 0;
#X connect 20 0 11 0;
#X connect 21 0 12 0;
#X connect 22 0 13 0;
#X connect 23 0 14 0;
#X connect 24 0 15 0;
#X connect 25 0 26 0;
#X connect 25 0 18 2;
#X connect 26 0 27 0;
#X connect 26 0 29 0;
#X connect 27 0 26 1;
#X connect 28 0 17 1;
#X connect 29 0 28 0;
#X restore 682 667 pd rfx;
#X obj 682 644 metro;
#X obj 671 161 bng 15 250 50 0 empty empty empty 0 -6 0 8 -262144 -1
-1;
#X msg 472 57 0;
#X obj 717 617 / 4;
#X obj 630 358 sel 1 0;
#X obj 591 713 writesf~;
#X msg 271 572 start;
#X msg 222 573 stop;
#X obj 274 451 t b b b;
#X obj 187 578 bng 15 500 50 0 empty empty empty 0 -6 0 8 -262144 -1
-1;
#X obj 154 16 bng 15 250 50 0 empty empty stop_!!! 0 -6 0 8 -262144
-1 -1;
#X msg 186 55 0;
#X symbolatom 135 674 10 0 0 0 - - -;
#X obj 135 648 symbol;
#X obj 223 540 delay 300000;
#X obj 631 220 random 4;
#X msg 628 279 1;
#X obj 631 247 sel 0 2;
#X msg 673 279 0;
#X msg 335 572 open yak.wav;
#X obj 815 215 / 16;
#X connect 0 0 24 1;
#X connect 2 0 4 0;
#X connect 3 0 6 0;
#X connect 4 0 3 0;
#X connect 5 0 2 0;
#X connect 5 0 27 0;
#X connect 6 0 7 0;
#X connect 6 0 14 0;
#X connect 7 0 45 0;
#X connect 8 0 10 0;
#X connect 8 0 26 0;
#X connect 8 0 40 0;
#X connect 9 0 18 0;
#X connect 9 0 25 0;
#X connect 9 0 33 0;
#X connect 11 0 12 0;
#X connect 12 0 0 0;
#X connect 14 0 12 1;
#X connect 15 0 16 0;
#X connect 15 0 17 0;
#X connect 16 0 15 1;
#X connect 17 0 12 0;
#X connect 18 0 8 0;
#X connect 19 0 20 0;
#X connect 20 0 29 0;
#X connect 21 0 11 0;
#X connect 22 0 15 0;
#X connect 23 0 20 0;
#X connect 24 0 13 0;
#X connect 24 0 13 1;
#X connect 24 0 30 0;
#X connect 25 0 24 0;
#X connect 27 0 25 0;
#X connect 27 0 8 0;
#X connect 27 0 15 1;
#X connect 28 0 25 1;
#X connect 29 0 21 0;
#X connect 29 1 22 0;
#X connect 31 0 30 0;
#X connect 31 0 38 0;
#X connect 32 0 30 0;
#X connect 32 0 38 0;
#X connect 33 0 39 0;
#X connect 33 1 31 0;
#X connect 33 2 44 0;
#X connect 35 0 36 0;
#X connect 35 0 32 0;
#X connect 36 0 8 1;
#X connect 36 0 19 0;
#X connect 36 0 25 1;
#X connect 38 0 37 0;
#X connect 39 0 32 0;
#X connect 39 0 34 0;
#X connect 40 0 42 0;
#X connect 41 0 19 0;
#X connect 42 0 41 0;
#X connect 42 2 43 0;
#X connect 43 0 19 0;
#X connect 44 0 30 0;
#X connect 45 0 8 1;
#X connect 45 0 28 0;
