#N canvas 8 3 1264 746 10;
#X obj 974 67 openpanel;
#X obj 974 126 soundfiler;
#X obj 541 293 s bgmetro;
#X obj 151 670 dac~;
#X obj 896 436 s timing;
#X obj 1104 29 table thetabl;
#X obj 1104 55 table thetabr;
#X msg 974 95 read -resize \$1 thetabl thetabr;
#X obj 663 318 tabplay~ thetabl;
#X obj 779 319 tabplay~ thetabr;
#X msg 766 105 0;
#X obj 896 321 tgl 15 0 empty empty empty 0 -6 0 8 -262144 -1 -1 0
1;
#X obj 896 343 sel 1 0;
#X obj 895 377 timer;
#X msg 756 234 0;
#X obj 962 164 f;
#X msg 639 -5 go;
#X obj 895 411 * 0.125;
#X msg 975 -2 loadwavfile;
#X msg 975 42 bang;
#X obj 302 258 sel 1 0;
#X obj 301 196 f;
#X obj 338 197 + 1;
#X obj 301 229 % 4;
#X obj 585 609 bufferoverride;
#X obj 127 430 phasor~;
#X obj 146 372 r smparrayphz;
#X obj 127 398 *~ 1;
#X obj 127 344 vline~;
#X msg 19 229 1;
#X obj 125 459 *~;
#X obj 180 431 r smparraysize;
#X obj 124 484 +~ 1;
#X obj 61 201 sel 0 1 2 3 4;
#X obj 61 177 random 5;
#X msg 55 229 0.75;
#X msg 138 231 -1;
#X msg 170 230 1.25;
#X obj 132 593 tabread4~ thetabl;
#X obj 249 591 tabread4~ thetabr;
#X obj 1096 282 / 44.1;
#N canvas 0 0 474 324 smp2phz 0;
#X obj 62 -2 inlet;
#X obj 71 212 outlet;
#X obj 83 56 t b f;
#X obj 81 129 /;
#X msg 41 97 44100;
#X connect 0 0 2 0;
#X connect 2 0 4 0;
#X connect 2 1 3 1;
#X connect 3 0 1 0;
#X connect 4 0 3 0;
#X restore 1011 240 pd smp2phz;
#X obj 1011 282 s smparrayphz;
#X obj 1079 240 s smparraysize;
#X obj 1096 308 s smparraytime;
#X obj 615 687 dac~;
#X obj 236 372 random 16;
#X obj 236 398 / 16;
#X obj 740 59 t b b;
#X obj 582 190 t b b;
#X msg 189 399 0;
#X obj 127 316 pack 1 5;
#X obj 45 139 t b b b;
#X obj 732 396 s~ analysis;
#X obj 89 623 multifxx;
#X obj 731 367 /~ 1;
#X msg 934 127 bang;
#X obj 207 621 multifxx;
#X obj 592 575 multifxx;
#X obj 676 576 multifxx;
#X msg 95 230 0.25;
#X obj 945 652 soundrec;
#X obj 1046 567 bng 15 250 50 0 empty empty empty 0 -6 0 8 -258699
-1 -1;
#X msg 1081 563 fxwave;
#X msg 301 117 bang;
#X obj 301 145 metro 125;
#X obj 1078 458 f;
#X obj 1115 459 + 1;
#X obj 1079 520 sel 3;
#X obj 1078 491 % 4;
#X obj 683 609 bufferoverride;
#X connect 0 0 7 0;
#X connect 1 0 15 1;
#X connect 7 0 1 0;
#X connect 8 0 55 0;
#X connect 8 0 58 2;
#X connect 8 1 14 0;
#X connect 8 1 50 0;
#X connect 9 0 55 0;
#X connect 9 0 59 2;
#X connect 9 1 66 0;
#X connect 10 0 11 0;
#X connect 10 0 66 1;
#X connect 10 0 21 1;
#X connect 11 0 12 0;
#X connect 12 0 13 0;
#X connect 12 1 13 1;
#X connect 13 0 17 0;
#X connect 14 0 9 0;
#X connect 14 0 8 0;
#X connect 15 0 41 0;
#X connect 15 0 43 0;
#X connect 15 0 40 0;
#X connect 16 0 48 0;
#X connect 16 0 24 2;
#X connect 16 0 54 1;
#X connect 16 0 57 1;
#X connect 16 0 58 1;
#X connect 16 0 59 1;
#X connect 16 0 64 0;
#X connect 16 0 70 2;
#X connect 17 0 4 0;
#X connect 18 0 19 0;
#X connect 19 0 0 0;
#X connect 20 1 2 0;
#X connect 20 1 11 0;
#X connect 20 1 46 0;
#X connect 20 1 58 0;
#X connect 20 1 59 0;
#X connect 21 0 22 0;
#X connect 21 0 23 0;
#X connect 22 0 21 1;
#X connect 23 0 20 0;
#X connect 24 0 61 0;
#X connect 24 0 45 0;
#X connect 25 0 30 0;
#X connect 26 0 27 1;
#X connect 27 0 25 0;
#X connect 28 0 27 0;
#X connect 29 0 51 0;
#X connect 30 0 32 0;
#X connect 31 0 30 1;
#X connect 32 0 38 0;
#X connect 32 0 39 0;
#X connect 33 0 29 0;
#X connect 33 1 35 0;
#X connect 33 2 60 0;
#X connect 33 3 36 0;
#X connect 33 4 37 0;
#X connect 34 0 33 0;
#X connect 35 0 51 0;
#X connect 36 0 51 0;
#X connect 37 0 51 0;
#X connect 38 0 54 2;
#X connect 39 0 57 2;
#X connect 40 0 44 0;
#X connect 41 0 42 0;
#X connect 46 0 47 0;
#X connect 47 0 25 1;
#X connect 48 0 49 0;
#X connect 48 1 10 0;
#X connect 48 1 56 0;
#X connect 48 1 61 2;
#X connect 49 0 2 0;
#X connect 49 1 14 0;
#X connect 50 0 25 1;
#X connect 51 0 28 0;
#X connect 52 1 34 0;
#X connect 52 2 54 0;
#X connect 52 2 57 0;
#X connect 54 0 61 0;
#X connect 55 0 53 0;
#X connect 56 0 15 0;
#X connect 57 0 61 1;
#X connect 58 0 24 0;
#X connect 59 0 70 0;
#X connect 60 0 51 0;
#X connect 62 0 61 3;
#X connect 63 0 61 4;
#X connect 64 0 65 0;
#X connect 65 0 21 0;
#X connect 65 0 24 1;
#X connect 65 0 52 0;
#X connect 65 0 70 1;
#X connect 66 0 67 0;
#X connect 66 0 69 0;
#X connect 67 0 66 1;
#X connect 68 0 62 0;
#X connect 69 0 68 0;
#X connect 70 0 61 1;
#X connect 70 0 45 1;
