#N canvas 15 7 1268 750 12;
#X obj 735 668 tabplay~ thetab;
#X obj 1104 29 table thetab;
#X obj 974 67 openpanel;
#X obj 974 125 soundfiler;
#X msg 974 95 read -resize \$1 thetab;
#X msg 973 0 bang;
#X obj 974 156 f;
#X obj 974 187 / 44.1;
#X obj 375 328 metro;
#X msg 375 260 bang;
#X obj 375 357 s bgmetro;
#X obj 731 564 *;
#X obj 692 747 dac~;
#X obj 725 468 f;
#X obj 766 468 + 1;
#X obj 633 249 r bgmetro;
#N canvas 0 0 1268 750 rfx 0;
#X obj 339 14 inlet~ audioin;
#X obj 100 14 inlet bang;
#X obj 348 672 outlet~;
#X obj 89 109 == 0;
#X obj 133 109 == 1;
#X obj 177 109 == 2;
#X obj 221 109 == 3;
#X obj 330 310 *~;
#X obj 397 310 *~;
#X obj 461 310 *~;
#X obj 503 309 *~;
#X obj 89 183 vline~;
#X obj 149 183 vline~;
#X obj 209 183 vline~;
#X obj 269 183 vline~;
#N canvas 0 0 1268 750 fx1 0;
#X obj 140 14 inlet~;
#X obj 161 311 outlet~;
#X obj 267 60 env~ 4096;
#X obj 266 146 vline~;
#X obj 162 235 vcf~ 4000 66;
#X obj 366 132 loadbang;
#X obj 161 277 *~ 8;
#X obj 327 89 r timing;
#X obj 268 118 pack f f;
#X obj 267 89 * 8;
#X msg 367 162 127;
#X connect 0 0 2 0;
#X connect 0 0 4 0;
#X connect 2 0 9 0;
#X connect 3 0 4 1;
#X connect 4 0 6 0;
#X connect 5 0 10 0;
#X connect 6 0 1 0;
#X connect 7 0 8 1;
#X connect 8 0 3 0;
#X connect 9 0 8 0;
#X connect 10 0 4 2;
#X restore 190 392 pd fx1;
#N canvas 12 50 1268 750 fx2 0;
#X obj 140 14 inlet~;
#X obj 260 443 outlet~;
#X obj 265 360 *~;
#X obj 260 409 *~ 1;
#X obj 327 34 fiddle~;
#X obj 361 68 unpack f f;
#X floatatom 365 135 5 0 0 0 - - -;
#X obj 505 272 vline~;
#X obj 505 299 osc~;
#X obj 565 198 r timing;
#X obj 505 246 pack f f;
#X obj 504 329 /~ 1;
#X obj 505 219 * 16;
#X obj 429 179 max;
#X obj 467 179 f;
#X obj 481 11 inlet;
#X msg 486 66 0;
#X floatatom 396 258 5 0 0 0 - - -;
#X obj 564 223 * 2;
#X connect 0 0 2 0;
#X connect 0 0 4 0;
#X connect 2 0 3 0;
#X connect 3 0 1 0;
#X connect 4 2 5 0;
#X connect 5 0 6 0;
#X connect 6 0 13 0;
#X connect 7 0 8 0;
#X connect 8 0 11 0;
#X connect 9 0 18 0;
#X connect 10 0 7 0;
#X connect 11 0 2 1;
#X connect 12 0 10 0;
#X connect 13 0 14 0;
#X connect 13 0 12 0;
#X connect 13 0 17 0;
#X connect 14 0 13 1;
#X connect 15 0 16 0;
#X connect 16 0 13 1;
#X connect 18 0 10 1;
#X restore 338 498 pd fx2;
#N canvas 0 0 1268 750 fx3 0;
#X obj 140 14 inlet~;
#X obj 179 499 outlet~;
#X obj 261 312 vd~ bagou;
#X obj 484 120 r~ feedback;
#X obj 260 348 s~ feedback;
#X obj 63 23 inlet;
#X obj 188 246 vline~;
#X obj 63 51 t b b;
#X obj 77 192 pack f f;
#X obj 136 161 r timing;
#X obj 407 281 delwrite~ bagou 250;
#X obj 479 204 hip~ 1000;
#X obj 478 233 lop~ 6000;
#X obj 484 151 *~ 0.8;
#X obj 395 28 inlet;
#X obj 137 133 f;
#X obj 73 130 f;
#X floatatom 368 134 5 0 0 0 - - -;
#X floatatom 424 139 5 0 0 0 - - -;
#X obj 395 65 / 32;
#X obj 435 64 / 8;
#X connect 0 0 10 0;
#X connect 2 0 4 0;
#X connect 2 0 1 0;
#X connect 3 0 13 0;
#X connect 5 0 7 0;
#X connect 6 0 2 0;
#X connect 7 0 16 0;
#X connect 7 1 15 0;
#X connect 8 0 6 0;
#X connect 9 0 8 1;
#X connect 11 0 12 0;
#X connect 12 0 10 0;
#X connect 13 0 11 0;
#X connect 14 0 19 0;
#X connect 14 0 20 0;
#X connect 15 0 6 0;
#X connect 16 0 8 0;
#X connect 19 0 16 1;
#X connect 19 0 17 0;
#X connect 20 0 15 1;
#X connect 20 0 18 0;
#X restore 490 363 pd fx3;
#X obj 490 259 sel 3;
#X obj 340 62 *~ 0.5;
#X msg 89 153 \$1 5;
#X msg 149 153 \$1 5;
#X msg 209 153 \$1 5;
#X msg 269 153 \$1 5;
#N canvas 276 79 478 472 compteur 0;
#X obj 66 30 inlet clock;
#X obj 196 31 inlet init;
#X msg 191 143 0;
#X obj 171 170 f;
#X obj 216 170 + 1;
#X obj 171 209 % 4;
#X obj 66 258 outlet;
#X obj 67 66 random 100;
#X obj 141 143 bang;
#X obj 61 197 f;
#X obj 66 157 bang;
#X obj 70 116 moses 13;
#X connect 0 0 7 0;
#X connect 1 0 2 0;
#X connect 2 0 3 1;
#X connect 3 0 4 0;
#X connect 3 0 5 0;
#X connect 4 0 3 1;
#X connect 5 0 6 0;
#X connect 5 0 9 1;
#X connect 7 0 11 0;
#X connect 8 0 3 0;
#X connect 9 0 6 0;
#X connect 10 0 9 0;
#X connect 11 0 10 0;
#X connect 11 1 8 0;
#X restore 146 52 pd compteur;
#X obj 229 13 inlet init;
#X obj 561 301 f;
#X obj 596 302 + 1;
#X msg 580 275 0;
#X obj 561 362 sel 0;
#X obj 562 327 % 4;
#X obj 482 13 inlet time;
#X connect 0 0 19 0;
#X connect 1 0 24 0;
#X connect 3 0 20 0;
#X connect 4 0 21 0;
#X connect 4 0 26 0;
#X connect 5 0 22 0;
#X connect 6 0 23 0;
#X connect 6 0 26 0;
#X connect 7 0 15 0;
#X connect 8 0 16 0;
#X connect 9 0 2 0;
#X connect 10 0 17 1;
#X connect 11 0 7 1;
#X connect 12 0 8 1;
#X connect 13 0 9 1;
#X connect 14 0 10 1;
#X connect 15 0 2 0;
#X connect 16 0 2 0;
#X connect 17 0 2 0;
#X connect 18 0 17 0;
#X connect 19 0 7 0;
#X connect 19 0 8 0;
#X connect 19 0 9 0;
#X connect 19 0 10 0;
#X connect 20 0 11 0;
#X connect 21 0 12 0;
#X connect 22 0 13 0;
#X connect 23 0 14 0;
#X connect 24 0 3 0;
#X connect 24 0 4 0;
#X connect 24 0 5 0;
#X connect 24 0 6 0;
#X connect 24 0 18 0;
#X connect 25 0 24 1;
#X connect 25 0 28 0;
#X connect 26 0 27 0;
#X connect 26 0 30 0;
#X connect 27 0 26 1;
#X connect 28 0 26 1;
#X connect 29 0 16 1;
#X connect 30 0 29 0;
#X connect 31 0 17 2;
#X restore 693 706 pd rfx;
#X msg 939 34 0;
#X obj 725 403 t b b;
#X obj 685 669 metro;
#X obj 375 302 t b b b;
#X obj 633 284 random 100;
#X obj 692 339 bang;
#X obj 633 338 bang;
#X obj 687 594 f;
#X obj 595 523 spigot;
#X obj 638 500 tgl 15 0 empty empty empty 0 -6 0 8 -262144 -1 -1 0
1;
#X msg 643 469 1;
#X msg 675 469 0;
#X obj 989 293 s timing;
#X obj 595 468 metro;
#X floatatom 971 372 5 0 0 0 - - -;
#X obj 929 214 / 16;
#X obj 974 213 / 16;
#X obj 731 523 % 16;
#X obj 631 427 / 8;
#X obj 974 251 / 2;
#X obj 633 310 moses 25;
#X msg 1079 178 \; thetab normalize;
#X connect 0 0 16 2;
#X connect 2 0 4 0;
#X connect 3 0 6 0;
#X connect 3 0 38 0;
#X connect 4 0 3 0;
#X connect 5 0 2 0;
#X connect 5 0 17 0;
#X connect 6 0 7 0;
#X connect 6 0 32 0;
#X connect 7 0 33 0;
#X connect 8 0 10 0;
#X connect 9 0 20 0;
#X connect 11 0 24 1;
#X connect 11 0 0 0;
#X connect 13 0 14 0;
#X connect 13 0 34 0;
#X connect 14 0 13 1;
#X connect 15 0 21 0;
#X connect 16 0 12 0;
#X connect 16 0 12 1;
#X connect 17 0 8 0;
#X connect 17 0 13 1;
#X connect 18 0 13 0;
#X connect 19 0 16 0;
#X connect 20 0 8 0;
#X connect 20 1 19 0;
#X connect 20 1 30 0;
#X connect 20 2 16 1;
#X connect 21 0 37 0;
#X connect 22 0 18 0;
#X connect 22 0 28 0;
#X connect 23 0 27 0;
#X connect 24 0 0 0;
#X connect 25 0 24 0;
#X connect 26 0 25 1;
#X connect 27 0 26 0;
#X connect 28 0 26 0;
#X connect 30 0 25 0;
#X connect 32 0 11 1;
#X connect 33 0 8 1;
#X connect 33 0 35 0;
#X connect 33 0 36 0;
#X connect 33 0 16 3;
#X connect 34 0 11 0;
#X connect 35 0 30 1;
#X connect 36 0 19 1;
#X connect 36 0 29 0;
#X connect 36 0 31 0;
#X connect 37 0 23 0;
#X connect 37 1 22 0;
