#N canvas 12 50 1268 750 10;
#X obj 313 19 inlet record;
#X obj 426 20 inlet stop;
#X obj 521 19 inlet name;
#X obj 129 20 inlet~ l;
#X obj 209 20 inlet~ r;
#X obj 505 332 writesf~ 2;
#X msg 313 87 start;
#X msg 426 92 stop;
#X msg 521 92 open \$1;
#X obj 237 272 metro 1000;
#X obj 280 313 + 1;
#X msg 298 233 0;
#X msg 237 237 1;
#X obj 237 312 f 0;
#X floatatom 102 126 5 0 0 1 seconds - -;
#X symbolatom 102 155 20 0 0 1 file - -;
#X obj 521 58 symbol;
#X obj 328 49 t b b b;
#X connect 0 0 12 0;
#X connect 0 0 17 0;
#X connect 1 0 7 0;
#X connect 1 0 11 0;
#X connect 2 0 16 0;
#X connect 3 0 5 0;
#X connect 4 0 5 1;
#X connect 6 0 5 0;
#X connect 7 0 5 0;
#X connect 8 0 5 0;
#X connect 9 0 13 0;
#X connect 10 0 13 1;
#X connect 11 0 9 0;
#X connect 11 0 13 1;
#X connect 12 0 9 0;
#X connect 13 0 10 0;
#X connect 13 0 14 0;
#X connect 16 0 8 0;
#X connect 16 0 15 0;
#X connect 17 0 6 0;
#X connect 17 2 16 0;
#X coords 0 -1 1 1 150 75 1 100 100;
