#N canvas 0 9 1268 750 10;
#X obj 308 606 dac~;
#X obj 207 360 mtof;
#X obj 323 219 tgl 15 0 empty empty empty 0 -6 0 8 -262144 -1 -1 1
1;
#N canvas 0 22 456 460 fmosc1 0;
#X obj 204 162 * 1;
#X obj 204 139 t b f;
#X obj 188 233 +~;
#X obj 204 202 *~;
#X obj 288 184 vline~;
#X msg 288 158 \$1 250;
#X obj 188 256 osc~ 440;
#X obj 204 184 osc~ 0.5;
#X obj 120 183 vline~;
#X msg 120 160 \$1 125;
#X obj 120 124 f;
#X obj 120 78 inlet freq;
#X obj 204 78 inlet partials;
#X obj 312 79 inlet mod_amount;
#X obj 188 290 outlet~;
#X connect 0 0 7 0;
#X connect 1 0 0 0;
#X connect 1 1 0 1;
#X connect 2 0 6 0;
#X connect 3 0 2 1;
#X connect 4 0 3 1;
#X connect 5 0 4 0;
#X connect 6 0 14 0;
#X connect 7 0 3 0;
#X connect 8 0 2 0;
#X connect 9 0 8 0;
#X connect 10 0 9 0;
#X connect 10 0 0 0;
#X connect 11 0 10 0;
#X connect 12 0 1 0;
#X connect 13 0 5 0;
#X restore 239 470 pd fmosc1;
#N canvas 0 22 452 456 fmosc1 0;
#X obj 204 162 * 1;
#X obj 204 139 t b f;
#X obj 188 233 +~;
#X obj 204 202 *~;
#X obj 288 184 vline~;
#X msg 288 158 \$1 250;
#X obj 188 256 osc~ 440;
#X obj 204 184 osc~ 0.5;
#X obj 120 183 vline~;
#X msg 120 160 \$1 125;
#X obj 120 124 f;
#X obj 120 78 inlet freq;
#X obj 204 78 inlet partials;
#X obj 312 79 inlet mod_amount;
#X obj 188 290 outlet~;
#X connect 0 0 7 0;
#X connect 1 0 0 0;
#X connect 1 1 0 1;
#X connect 2 0 6 0;
#X connect 3 0 2 1;
#X connect 4 0 3 1;
#X connect 5 0 4 0;
#X connect 6 0 14 0;
#X connect 7 0 3 0;
#X connect 8 0 2 0;
#X connect 9 0 8 0;
#X connect 10 0 9 0;
#X connect 10 0 0 0;
#X connect 11 0 10 0;
#X connect 12 0 1 0;
#X connect 13 0 5 0;
#X restore 334 469 pd fmosc1;
#N canvas 0 22 458 308 pan 0;
#X obj 153 45 inlet~;
#X obj 157 129 *~ 0.25;
#X obj 219 129 *~ 0.75;
#X obj 350 129 *~ 0.25;
#X obj 287 128 *~ 0.75;
#X obj 315 44 inlet~;
#X obj 192 252 outlet~;
#X obj 257 252 outlet~;
#X connect 0 0 1 0;
#X connect 0 0 2 0;
#X connect 1 0 6 0;
#X connect 2 0 7 0;
#X connect 3 0 7 0;
#X connect 4 0 6 0;
#X connect 5 0 4 0;
#X connect 5 0 3 0;
#X restore 304 552 pd pan;
#X obj 239 438 + 5;
#X obj 334 435 - 5;
#N canvas 0 22 458 308 compt 0;
#X obj 102 22 inlet;
#X obj 204 24 inlet;
#X msg 204 54 0;
#X obj 148 144 f;
#X obj 179 144 + 1;
#X obj 148 176 outlet;
#X connect 0 0 3 0;
#X connect 1 0 2 0;
#X connect 2 0 3 1;
#X connect 3 0 4 0;
#X connect 3 0 5 0;
#X connect 4 0 3 1;
#X restore 207 308 pd compt;
#N canvas 0 22 466 316 note 0;
#X obj 257 6 inlet;
#X obj 189 77 % 8;
#X obj 189 103 select 0 1 2 3 4 5 6 7;
#X msg 156 135 0;
#X msg 194 136 3;
#X msg 234 135 2;
#X msg 306 137 7;
#X msg 346 137 3;
#X msg 382 136 5;
#X obj 225 186 f;
#X obj 224 221 + 63;
#X obj 224 250 outlet;
#X msg 269 135 -2;
#X obj 422 72 random 3;
#X obj 422 103 select 0 1 2;
#X msg 418 136 63;
#X msg 458 136 51;
#X msg 494 136 39;
#X msg 420 44 bang;
#X obj 257 31 t f b;
#X connect 0 0 19 0;
#X connect 1 0 2 0;
#X connect 2 0 3 0;
#X connect 2 1 4 0;
#X connect 2 2 5 0;
#X connect 2 3 12 0;
#X connect 2 4 6 0;
#X connect 2 5 7 0;
#X connect 2 6 8 0;
#X connect 2 7 8 0;
#X connect 3 0 9 0;
#X connect 4 0 9 0;
#X connect 5 0 9 0;
#X connect 6 0 9 0;
#X connect 7 0 9 0;
#X connect 8 0 9 0;
#X connect 9 0 10 0;
#X connect 10 0 11 0;
#X connect 12 0 9 0;
#X connect 13 0 14 0;
#X connect 14 0 15 0;
#X connect 14 1 16 0;
#X connect 14 2 17 0;
#X connect 15 0 10 1;
#X connect 16 0 10 1;
#X connect 17 0 10 1;
#X connect 18 0 13 0;
#X connect 19 0 1 0;
#X connect 19 1 18 0;
#X restore 207 335 pd note;
#X obj 293 362 / 4;
#N canvas 0 22 458 308 compt 0;
#X obj 102 22 inlet;
#X obj 204 24 inlet;
#X msg 204 54 0;
#X obj 148 144 f;
#X obj 179 144 + 1;
#X obj 148 176 outlet;
#X connect 0 0 3 0;
#X connect 1 0 2 0;
#X connect 2 0 3 1;
#X connect 3 0 4 0;
#X connect 3 0 5 0;
#X connect 4 0 3 1;
#X restore 295 309 pd compt;
#X obj 323 238 t f b;
#X floatatom 416 261 5 0 14 2 detune - -;
#X obj 323 260 metro 250;
#X obj 144 83 tgl 15 0 empty empty empty 0 -6 0 8 -262144 -1 -1 1 1
;
#X obj 293 334 % 16;
#X obj 74 145 metro 500;
#X obj 366 308 random 16;
#X obj 366 330 * 256;
#X obj 144 104 t f b b;
#X obj 67 493 vline~;
#X msg 66 454 1 5;
#X obj 100 431 del 5;
#X msg 100 457 0.125 250;
#X msg 66 393 bang;
#X obj 240 503 *~;
#X obj 335 502 *~;
#X obj 61 294 delay 125;
#X obj 65 254 t b b;
#X obj 94 345 spigot;
#X obj 125 295 metro 125;
#N canvas 0 22 462 312 compt 0;
#X obj 102 22 inlet;
#X obj 204 24 inlet;
#X msg 204 54 0;
#X obj 148 144 f;
#X obj 179 144 + 1;
#X obj 148 180 % 6;
#X obj 147 207 == 0;
#X obj 155 246 outlet;
#X connect 0 0 3 0;
#X connect 1 0 2 0;
#X connect 2 0 3 1;
#X connect 3 0 4 0;
#X connect 3 0 5 0;
#X connect 4 0 3 1;
#X connect 5 0 6 0;
#X connect 6 0 7 0;
#X restore 125 318 pd compt;
#X connect 1 0 6 0;
#X connect 1 0 7 0;
#X connect 2 0 12 0;
#X connect 3 0 26 0;
#X connect 4 0 27 0;
#X connect 5 0 0 0;
#X connect 5 1 0 1;
#X connect 6 0 3 0;
#X connect 7 0 4 0;
#X connect 8 0 9 0;
#X connect 9 0 1 0;
#X connect 10 0 3 1;
#X connect 10 0 4 1;
#X connect 11 0 16 0;
#X connect 12 0 14 0;
#X connect 12 1 8 1;
#X connect 13 0 7 1;
#X connect 13 0 6 1;
#X connect 14 0 8 0;
#X connect 14 0 18 0;
#X connect 15 0 20 0;
#X connect 16 0 10 0;
#X connect 17 0 2 0;
#X connect 17 0 11 0;
#X connect 17 0 29 0;
#X connect 18 0 19 0;
#X connect 19 0 3 2;
#X connect 19 0 4 2;
#X connect 20 0 17 0;
#X connect 20 1 11 1;
#X connect 20 1 32 1;
#X connect 21 0 26 1;
#X connect 21 0 27 1;
#X connect 22 0 21 0;
#X connect 23 0 24 0;
#X connect 24 0 21 0;
#X connect 25 0 23 0;
#X connect 25 0 22 0;
#X connect 26 0 5 0;
#X connect 27 0 5 1;
#X connect 28 0 30 0;
#X connect 29 0 28 1;
#X connect 29 1 25 0;
#X connect 29 1 31 0;
#X connect 30 0 25 0;
#X connect 31 0 32 0;
#X connect 32 0 30 1;
