#N canvas 38 24 1440 670 10;
#X obj 317 381 tabplay~ \$0-drumsound;
#X obj -130 133 table \$0-drumsound;
#X obj 838 561 soundfiler;
#X obj 805 382 openpanel;
#X msg 842 281 bang;
#X obj 875 431 f \$0;
#X obj 821 459 pack s f;
#X msg 869 492 read -resize \$1 \$2-drumsound;
#X msg 196 145 bang;
#X obj 247 115 f;
#X obj 245 143 / 2;
#X obj 203 180 f;
#X msg 11 133 bang;
#X obj 589 176 / 16;
#X obj 492 204 random 16;
#X obj 572 205 f;
#X obj 521 231 *;
#X obj 507 157 t b b;
#X obj 514 121 metro;
#X obj 417 49 tgl 15 0 empty empty empty 17 7 0 10 -262144 -1 -1 0
1;
#X floatatom 530 278 20 0 0 0 - - -;
#X obj 579 51 / 44100;
#X obj 574 95 / 16;
#X obj 578 74 * 1000;
#X obj 320 511 outlet~ audioout;
#X text -142 24 sequenceur de sample aleatoire & player de sample;
#X obj 840 312 t b b;
#X text 840 258 chargement du sample;
#X text 839 584 recuperation de la taille du sample en sample;
#X text 643 51 calcul de la taille d'1/16 de sample en ms;
#X text 631 174 calcul de la taille d'1/16 de sample en sample;
#X text 415 31 start sequence;
#X text 4 113 play sample;
#X text 184 80 play sample from 1/2;
#X connect 0 0 24 0;
#X connect 2 0 9 0;
#X connect 2 0 13 0;
#X connect 2 0 21 0;
#X connect 3 0 6 0;
#X connect 4 0 26 0;
#X connect 5 0 6 1;
#X connect 6 0 7 0;
#X connect 7 0 2 0;
#X connect 8 0 11 0;
#X connect 9 0 10 0;
#X connect 10 0 11 1;
#X connect 11 0 0 0;
#X connect 12 0 0 0;
#X connect 13 0 15 1;
#X connect 13 0 18 1;
#X connect 14 0 16 0;
#X connect 15 0 16 1;
#X connect 16 0 0 0;
#X connect 16 0 20 0;
#X connect 17 0 14 0;
#X connect 17 1 15 0;
#X connect 18 0 17 0;
#X connect 19 0 18 0;
#X connect 21 0 23 0;
#X connect 22 0 18 1;
#X connect 23 0 22 0;
#X connect 26 0 3 0;
#X connect 26 1 5 0;
