#N canvas 862 289 450 300 10;
#X obj 42 -17 inlet~;
#X obj 39 242 outlet~;
#X obj 267 49 delwrite~ \$0-deltab 30000;
#X obj 130 45 vd~ \$0-deltab;
#X obj 28 192 *~;
#X obj 106 138 vsl 15 32 0 1 0 0 empty empty empty 0 -9 0 10 -262144
-1 -1 2700 1;
#X msg 56 169 \$1 50;
#X obj 57 193 vline~;
#X obj 154 134 vsl 15 32 0 500 0 0 empty empty empty 0 -9 0 10 -262144
-1 -1 775 1;
#X msg 140 -22 \$1 50;
#X obj 131 13 vline~;
#X obj 154 109 nbx 5 14 -1e+37 1e+37 0 0 empty empty empty 0 -8 0 10
-262144 -1 -1 125 256;
#X msg 284 182 \$1 50;
#X obj 285 206 vline~;
#X obj 330 134 vsl 15 32 0.25 1 0 0 empty empty empty 0 -9 0 10 -262144
-1 -1 300 1;
#X obj 130 70 *~;
#X obj 282 17 loadbang;
#X msg 297 76 0.25;
#X obj 212 93 lop~ 2000;
#X obj 373 134 vsl 15 32 5000 200 0 0 empty empty empty 0 -9 0 10 -262144
-1 -1 3100 1;
#X connect 0 0 2 0;
#X connect 0 0 1 0;
#X connect 3 0 4 0;
#X connect 3 0 15 0;
#X connect 4 0 1 0;
#X connect 5 0 6 0;
#X connect 6 0 7 0;
#X connect 7 0 4 1;
#X connect 8 0 9 0;
#X connect 9 0 10 0;
#X connect 10 0 3 0;
#X connect 11 0 8 0;
#X connect 12 0 13 0;
#X connect 13 0 15 1;
#X connect 14 0 12 0;
#X connect 15 0 18 0;
#X connect 16 0 17 0;
#X connect 17 0 14 0;
#X connect 18 0 2 0;
#X connect 19 0 18 1;
#X coords 0 -1 1 1 300 80 1 100 100;
