#N canvas 192 159 829 456 10;
#X obj 161 285 osc~;
#X obj 436 210 noise~;
#X obj 163 129 vline~;
#X obj 161 318 *~;
#X obj 166 158 *~;
#X obj 447 263 *~;
#X msg 294 34 bang;
#X obj 294 64 t b b;
#X msg 352 129 0.25;
#X obj 235 130 vline~;
#X obj 484 210 vline~;
#X obj 509 245 *~;
#X msg 489 177 0.125 \, 0 25;
#X obj 295 6 inlet bang;
#X obj 163 371 *~ 1;
#X obj 159 406 outlet~;
#X obj 167 192 +~ 0.195;
#X obj 159 249 *~ 150;
#X msg 240 96 1 \, 0 350;
#X msg 168 95 1 \, 0 150;
#X connect 0 0 3 0;
#X connect 1 0 5 0;
#X connect 2 0 4 0;
#X connect 2 0 4 1;
#X connect 3 0 14 0;
#X connect 4 0 16 0;
#X connect 5 0 14 0;
#X connect 6 0 7 0;
#X connect 7 0 19 0;
#X connect 7 0 18 0;
#X connect 7 0 12 0;
#X connect 7 1 8 0;
#X connect 8 0 0 1;
#X connect 9 0 3 1;
#X connect 10 0 11 0;
#X connect 10 0 11 1;
#X connect 11 0 5 1;
#X connect 12 0 10 0;
#X connect 13 0 6 0;
#X connect 14 0 15 0;
#X connect 16 0 17 0;
#X connect 17 0 0 0;
#X connect 18 0 9 0;
#X connect 19 0 2 0;
