#N canvas 472 304 678 392 10;
#X obj 23 78 clip~ -0.25 0.25;
#X obj 34 52 -~ 0.5;
#X obj 137 84 clip~ -0.25 0.25;
#X obj 148 58 -~ 0.5;
#X obj 254 83 clip~ -0.25 0.25;
#X obj 265 57 -~ 0.5;
#X obj 47 152 *~;
#X obj 125 128 *~;
#X obj 178 131 *~;
#X obj 268 29 phasor~ 2001;
#X obj 34 23 phasor~ 402;
#X obj 283 178 vline~;
#X obj 108 219 *~;
#X msg 305 135 1 \, 0 50;
#X obj 97 188 bp~ 7000 10;
#X obj 406 29 inlet short;
#X obj 486 25 inlet long;
#X obj 88 254 *~ 1;
#X obj 78 312 outlet~;
#X msg 359 132 1 \, 0 250;
#X obj 156 25 phasor~ 3502;
#X connect 0 0 6 0;
#X connect 0 0 8 0;
#X connect 1 0 0 0;
#X connect 2 0 6 1;
#X connect 2 0 7 0;
#X connect 3 0 2 0;
#X connect 4 0 7 1;
#X connect 4 0 8 1;
#X connect 5 0 4 0;
#X connect 6 0 14 0;
#X connect 7 0 14 0;
#X connect 8 0 14 0;
#X connect 9 0 5 0;
#X connect 10 0 1 0;
#X connect 11 0 12 1;
#X connect 12 0 17 0;
#X connect 13 0 11 0;
#X connect 14 0 12 0;
#X connect 15 0 13 0;
#X connect 16 0 19 0;
#X connect 17 0 18 0;
#X connect 19 0 11 0;
#X connect 20 0 3 0;
