#N canvas 229 56 793 726 10;
#X obj 542 261 soundfiler;
#X obj 468 82 openpanel;
#X obj 501 142 f \$0;
#X msg 479 220 read -resize \$1 \$2-mySmp;
#X obj 469 113 t s b;
#X obj 491 263 print;
#X msg 464 48 bang;
#X obj 456 169 pack s f;
#X obj 224 303 tabplay~ \$0-mySmp;
#X obj 474 301 table \$0-mySmp;
#X obj 224 25 inlet playSmp;
#X obj 464 21 inlet loadSmp;
#X obj 222 439 outlet~;
#X obj 322 439 outlet endLoop;
#X obj 564 21 inlet nameSmp;
#X obj 640 109 symbol;
#X obj 434 442 outlet smpSize;
#X connect 0 0 16 0;
#X connect 1 0 4 0;
#X connect 2 0 7 1;
#X connect 3 0 5 0;
#X connect 3 0 0 0;
#X connect 4 0 7 0;
#X connect 4 1 2 0;
#X connect 6 0 1 0;
#X connect 7 0 3 0;
#X connect 8 0 12 0;
#X connect 8 1 13 0;
#X connect 10 0 8 0;
#X connect 11 0 6 0;
#X connect 14 0 15 0;
#X connect 15 0 4 0;
