#N canvas 244 189 638 483 10;
#X obj 105 242 osc~;
#X obj 284 176 noise~;
#X msg 121 82 220 \, 110 100;
#X obj 127 121 vline~;
#X obj 293 138 vline~;
#X obj 105 274 *~;
#X msg 289 60 bang;
#X obj 495 190 vline~;
#X obj 371 304 *~;
#X obj 42 118 vline~;
#X obj 50 155 osc~;
#X msg 36 79 330 \, 110 50;
#X obj 202 401 *~ 1;
#X obj 203 426 outlet~;
#X obj 290 22 inlet bang;
#X obj 475 247 *~;
#X obj 163 189 *~;
#X msg 293 109 0.5 \, 0 250;
#X obj 211 221 bp~ 3200 2;
#X obj 373 219 hip~ 8000;
#X obj 294 221 bp~ 6200 5;
#X obj 277 263 *~ 0.05;
#X msg 565 145 1 \, 0 250;
#X connect 0 0 5 0;
#X connect 1 0 18 0;
#X connect 1 0 19 0;
#X connect 1 0 20 0;
#X connect 2 0 3 0;
#X connect 3 0 0 0;
#X connect 4 0 16 0;
#X connect 4 0 16 1;
#X connect 5 0 12 0;
#X connect 6 0 17 0;
#X connect 6 0 2 0;
#X connect 6 0 22 0;
#X connect 6 0 11 0;
#X connect 7 0 15 0;
#X connect 7 0 15 1;
#X connect 8 0 12 0;
#X connect 9 0 10 0;
#X connect 10 0 5 0;
#X connect 11 0 9 0;
#X connect 12 0 13 0;
#X connect 14 0 6 0;
#X connect 15 0 8 1;
#X connect 16 0 5 1;
#X connect 17 0 4 0;
#X connect 18 0 21 0;
#X connect 19 0 21 0;
#X connect 20 0 21 0;
#X connect 21 0 8 0;
#X connect 22 0 7 0;
