#N canvas 0 0 1268 750 12;
#X obj 34 36 inlet~;
#X obj 206 683 outlet~;
#X obj 206 651 *~;
#X msg 131 222 0;
#X obj 93 34 inlet;
#X msg 227 253 1 \$1;
#X obj 220 35 inlet;
#X obj 294 256 delay;
#X obj 310 33 inlet;
#X msg 399 335 0 \$1;
#X obj 421 35 inlet;
#X obj 268 515 vline~;
#X obj 86 65 t b b b;
#X obj 227 226 f 0;
#X obj 319 230 + 0;
#X obj 399 302 f 0;
#X obj 268 564 *~;
#X obj 303 182 t b f;
#X obj 287 685 outlet~;
#X connect 0 0 2 0;
#X connect 2 0 1 0;
#X connect 3 0 11 0;
#X connect 4 0 12 0;
#X connect 5 0 11 0;
#X connect 6 0 13 1;
#X connect 6 0 17 0;
#X connect 7 0 15 0;
#X connect 8 0 14 0;
#X connect 9 0 11 0;
#X connect 10 0 15 1;
#X connect 11 0 16 0;
#X connect 11 0 16 1;
#X connect 12 0 7 0;
#X connect 12 1 13 0;
#X connect 12 2 3 0;
#X connect 13 0 5 0;
#X connect 14 0 7 1;
#X connect 15 0 9 0;
#X connect 16 0 2 1;
#X connect 16 0 18 0;
#X connect 17 0 14 0;
#X connect 17 1 14 1;
