#N canvas 174 51 1035 726 12;
#X obj 262 503 simpleFM~;
#X obj 242 529 *~;
#X obj 235 17 inlet;
#X obj 205 44 t b b f;
#X obj 257 470 sig~;
#X obj 294 466 expr~ $v1*.025;
#X obj 294 432 sig~;
#X obj 295 406 mtof;
#X obj 295 249 sel 0 1 2 3;
#X msg 335 283 7;
#X msg 376 285 3;
#X msg 419 284 19;
#X msg 295 283 12;
#X obj 129 439 ad_env~ 0 800;
#X obj 346 385 ad_env~ 0 700;
#X obj 605 200 tgl 15 0 empty empty empty 17 7 0 10 -262144 -1 -1 1
1;
#X obj 599 259 timer;
#X obj 599 234 sel 0 1;
#X obj 354 13 inlet;
#X obj 375 161 spigot;
#X obj 382 66 t b b;
#X obj 418 105 random 100;
#X obj 418 134 > 90;
#X obj 346 430 *~ 1000;
#X obj 295 218 random 5;
#X obj 445 351 * 2;
#X obj 539 386 vd~ del;
#X obj 688 221 tgl 15 0 empty empty empty 17 7 0 10 -262144 -1 -1 0
1;
#X obj 688 195 cpt 32;
#X obj 629 297 pack f f;
#X obj 688 269 timer;
#X obj 688 244 sel 0 1;
#X obj 629 325 vline~;
#X obj 541 324 pack f f;
#X obj 541 355 vline~;
#X obj 610 354 sig~ 1;
#X obj 611 388 -~;
#X obj 540 447 *~;
#X obj 582 447 *~;
#X obj 293 558 delwrite~ del 4000;
#X obj 599 297 * 4;
#X obj 540 415 /~ 2;
#X msg 460 283 -12;
#X obj 129 477 /~ 4;
#X obj 217 411 * 2;
#X obj 296 342 + 68;
#X obj 311 669 outlet~;
#X obj 241 663 outlet~;
#X obj 129 512 *~ 1;
#X obj 292 529 *~ 0.75;
#X obj 233 560 *~ 0.5;
#X obj 295 369 + 48;
#X connect 0 0 1 1;
#X connect 1 0 39 0;
#X connect 1 0 50 0;
#X connect 2 0 3 0;
#X connect 3 0 13 0;
#X connect 3 1 14 0;
#X connect 3 1 15 0;
#X connect 3 1 24 0;
#X connect 3 1 28 0;
#X connect 3 2 4 0;
#X connect 4 0 0 0;
#X connect 5 0 0 1;
#X connect 6 0 5 0;
#X connect 7 0 6 0;
#X connect 8 0 12 0;
#X connect 8 1 9 0;
#X connect 8 2 10 0;
#X connect 8 3 11 0;
#X connect 8 4 42 0;
#X connect 9 0 45 0;
#X connect 10 0 45 0;
#X connect 11 0 45 0;
#X connect 12 0 45 0;
#X connect 13 0 43 0;
#X connect 14 0 23 0;
#X connect 15 0 17 0;
#X connect 16 0 25 0;
#X connect 16 0 33 0;
#X connect 16 0 40 0;
#X connect 16 0 44 0;
#X connect 17 0 16 0;
#X connect 17 1 16 1;
#X connect 18 0 20 0;
#X connect 19 0 15 0;
#X connect 19 0 14 0;
#X connect 20 0 19 0;
#X connect 20 1 21 0;
#X connect 21 0 22 0;
#X connect 22 0 19 1;
#X connect 23 0 0 2;
#X connect 24 0 8 0;
#X connect 25 0 14 2;
#X connect 26 0 41 0;
#X connect 26 0 49 0;
#X connect 27 0 31 0;
#X connect 27 0 29 0;
#X connect 28 0 27 0;
#X connect 29 0 32 0;
#X connect 30 0 29 1;
#X connect 31 0 30 0;
#X connect 31 1 30 1;
#X connect 32 0 36 1;
#X connect 32 0 38 1;
#X connect 33 0 34 0;
#X connect 34 0 26 0;
#X connect 35 0 36 0;
#X connect 36 0 37 1;
#X connect 37 0 47 0;
#X connect 38 0 46 0;
#X connect 40 0 33 1;
#X connect 41 0 37 0;
#X connect 41 0 38 0;
#X connect 42 0 45 0;
#X connect 43 0 48 0;
#X connect 44 0 13 2;
#X connect 45 0 51 0;
#X connect 48 0 1 0;
#X connect 49 0 39 0;
#X connect 50 0 47 0;
#X connect 50 0 46 0;
#X connect 51 0 7 0;
#X coords 0 0 1 1 85 60 0;
