#N canvas 0 14 1276 758 12;
#X obj 129 5 inlet~;
#X obj 124 430 outlet~;
#X obj 460 75 bng 15 250 50 0 empty empty empty 0 -6 0 8 -262144 -1
-1;
#X obj 363 160 vsl 15 128 0 127 0 0 empty empty empty 0 -8 0 8 -262144
-1 -1 3800 1;
#X obj 393 161 vsl 15 128 0 127 0 0 empty empty empty 0 -8 0 8 -262144
-1 -1 11200 1;
#X floatatom 337 331 5 0 0 0 - - -;
#X floatatom 439 328 5 0 0 0 - - -;
#X obj 123 398 *~ 60;
#X obj 126 91 bp~ 38 112;
#X connect 0 0 8 0;
#X connect 3 0 5 0;
#X connect 3 0 8 1;
#X connect 4 0 6 0;
#X connect 4 0 8 2;
#X connect 7 0 1 0;
#X connect 8 0 7 0;
