#N canvas 483 22 476 640 12;
#X obj 119 293 vd~ \$0-delay;
#X msg 17 225 \$1 \$2;
#X obj 8 186 pack f f;
#X obj 144 321 vline~;
#X obj 219 30 inlet;
#X obj 279 270 delay;
#X obj 107 152 t f f;
#X obj 219 66 t b b;
#X obj 15 27 inlet~;
#X obj 117 536 throw~ grainL;
#X obj 265 541 throw~ grainR;
#X obj 281 302 random 100;
#X obj 281 333 / 100;
#X msg 282 403 \$1 \$2;
#X obj 281 375 pack f f;
#X obj 282 438 vline~;
#X obj 118 497 *~;
#X obj 137 468 -~;
#X obj 137 434 sig~ 1;
#X obj 264 480 *~;
#X obj 120 260 / 1;
#X obj 315 239 / 1;
#X obj 297 150 r space;
#X obj 18 107 r freqmulti;
#X obj 8 148 / 2;
#X obj 315 209 / 48;
#X obj 107 177 / 48;
#X obj 79 123 random 96000;
#X obj 15 69 delwrite~ \$0-delay 96000;
#X obj 120 349 vcf~ 40;
#X obj 119 382 /~ 0.25;
#X connect 0 0 29 0;
#X connect 1 0 3 0;
#X connect 2 0 1 0;
#X connect 3 0 29 1;
#X connect 4 0 7 0;
#X connect 5 0 11 0;
#X connect 6 0 26 0;
#X connect 6 1 25 0;
#X connect 7 0 5 0;
#X connect 7 1 27 0;
#X connect 8 0 28 0;
#X connect 11 0 12 0;
#X connect 12 0 14 0;
#X connect 13 0 15 0;
#X connect 14 0 13 0;
#X connect 15 0 17 1;
#X connect 15 0 19 1;
#X connect 16 0 9 0;
#X connect 17 0 16 1;
#X connect 18 0 17 0;
#X connect 19 0 10 0;
#X connect 20 0 0 0;
#X connect 21 0 5 1;
#X connect 22 0 21 1;
#X connect 22 0 20 1;
#X connect 23 0 24 1;
#X connect 24 0 2 0;
#X connect 24 0 14 1;
#X connect 25 0 21 0;
#X connect 26 0 20 0;
#X connect 27 0 2 1;
#X connect 27 0 6 0;
#X connect 27 0 24 0;
#X connect 29 0 30 0;
#X connect 30 0 16 0;
#X connect 30 0 19 0;
