#N canvas 0 48 1440 852 24;
#X declare -lib cyclone;
#X text 35 -234 PD <-> Equivalence Synthese Analo;
#X obj 37 -70 *~;
#X obj 83 142 *~;
#X obj 57 57 osc~ 440;
#X obj 195 106 vline~;
#X msg 195 58 1 \, 0 250;
#X text 71 -18 a) VCA;
#X obj 436 166 *~;
#X obj 410 81 osc~ 440;
#X obj 549 80 osc~ 440;
#X obj 549 29 mtof;
#X obj 552 2 hsl 128 15 0 127 0 0 empty empty empty -2 -8 0 10 -262144
-1 -1 0 1;
#X text 432 -32 b) Ring Modulator/Balanced modulator;
#X text 47 219 2) Quantizer;
#X text 164 274 freq->note;
#X obj 172 384 ftom;
#X floatatom 171 473 8 0 0 0 - - -;
#X msg 159 333 440;
#X obj 171 428 i;
#X text 378 214 2) sample & Hold;
#X obj 488 355 samphold~;
#X obj 422 279 osc~ 0.005;
#X msg 611 276 1 \, 0 5;
#X obj 611 314 vline~;
#X obj 493 468 snapshot~;
#X floatatom 485 539 5 0 0 0 - - -;
#X msg 676 214 bang;
#X text 644 351 signaux;
#X text 645 460 controles;
#X text 806 210 3) slew;
#X obj 817 439 pack f f;
#X obj 820 505 vline~;
#X obj 830 261 metro 100;
#X obj 824 309 random 256;
#X obj 830 347 t f b;
#X obj 902 394 f;
#X obj 1032 -204 import cyclone;
#X obj 1113 353 Scope~ 130 130 256 3 128 0 256 0 0 0 0 102 255 51 135
135 135 0;
#X msg 1163 302 range 0 256;
#X obj 836 243 tgl 15 0 empty empty empty 17 7 0 10 -262144 -1 -1 0
1;
#X msg 1088 182 buffsize 1000;
#X obj 970 84 vsl 15 128 0 1000 0 0 empty empty time_slew 0 -9 0 10
-262144 -1 -1 0 1;
#X text 34 -129 1) VCA/Ring Modulator/Balanced Modulator/analog xor
;
#X connect 3 0 2 0;
#X connect 4 0 2 1;
#X connect 5 0 4 0;
#X connect 8 0 7 0;
#X connect 9 0 7 1;
#X connect 10 0 9 0;
#X connect 11 0 10 0;
#X connect 15 0 18 0;
#X connect 17 0 15 0;
#X connect 18 0 16 0;
#X connect 20 0 24 0;
#X connect 21 0 20 0;
#X connect 22 0 23 0;
#X connect 23 0 20 1;
#X connect 24 0 25 0;
#X connect 26 0 22 0;
#X connect 26 0 24 0;
#X connect 30 0 31 0;
#X connect 31 0 37 0;
#X connect 32 0 33 0;
#X connect 33 0 34 0;
#X connect 34 0 30 0;
#X connect 34 1 35 0;
#X connect 35 0 30 1;
#X connect 38 0 37 0;
#X connect 39 0 32 0;
#X connect 40 0 37 0;
#X connect 41 0 35 1;
