#N canvas 240 141 607 621 12;
#X obj 222 89 noise~;
#X obj 297 209 snapshot~;
#X obj 298 87 bang~;
#X obj 296 118 f;
#X obj 330 118 + 1;
#X obj 297 174 sel 0;
#X obj 297 239 sig~;
#X obj 314 23 inlet;
#X obj 297 352 outlet~;
#X obj 296 300 lop~ 22050;
#X obj 297 269 hip~ 5;
#X obj 296 145 % 1;
#X connect 0 0 1 0;
#X connect 1 0 6 0;
#X connect 2 0 3 0;
#X connect 3 0 4 0;
#X connect 3 0 11 0;
#X connect 4 0 3 1;
#X connect 5 0 1 0;
#X connect 6 0 10 0;
#X connect 7 0 11 1;
#X connect 9 0 8 0;
#X connect 10 0 9 0;
#X connect 11 0 5 0;
