#N canvas 0 22 612 605 10;
#X obj 39 11 vline~;
#X obj 65 -69 t b f b;
#X obj 65 -95 f;
#X obj 39 -16 pack f f;
#X obj 10 -124 inlet bang;
#X obj 39 -40 f 1;
#X obj 104 -17 f 0;
#X obj 80 -124 inlet time;
#X obj 39 36 outlet~ output~;
#X connect 0 0 8 0;
#X connect 1 0 5 0;
#X connect 1 1 3 1;
#X connect 1 2 6 0;
#X connect 2 0 1 0;
#X connect 3 0 0 0;
#X connect 4 0 2 0;
#X connect 5 0 3 0;
#X connect 6 0 0 0;
#X connect 7 0 2 1;
