#N canvas 504 308 450 300 10;
#X obj 30 34 reverb~;
#X obj 0 146 outlet~;
#X obj 0 8 inlet~;
#N canvas 239 81 450 300 drywet 0;
#X obj 46 36 inlet~ dry;
#X obj 142 35 inlet~ wet;
#X obj 235 35 inlet amount;
#X msg 273 80 1 \$1;
#X obj 273 110 -;
#X obj 46 182 *~;
#X msg 272 134 \$1 5;
#X obj 272 155 vline~;
#X msg 322 134 \$1 5;
#X obj 322 155 vline~;
#X obj 136 182 *~;
#X obj 46 226 +~;
#X obj 46 247 outlet~;
#X connect 0 0 5 0;
#X connect 1 0 10 0;
#X connect 2 0 3 0;
#X connect 2 0 8 0;
#X connect 3 0 4 0;
#X connect 4 0 6 0;
#X connect 5 0 11 0;
#X connect 6 0 7 0;
#X connect 7 0 5 1;
#X connect 8 0 9 0;
#X connect 9 0 10 1;
#X connect 10 0 11 1;
#X connect 11 0 12 0;
#X restore 0 120 pd drywet;
#X obj 107 34 reverb~;
#X obj 77 146 outlet~;
#X obj 77 8 inlet~;
#N canvas 239 81 450 300 drywet 0;
#X obj 46 36 inlet~ dry;
#X obj 142 35 inlet~ wet;
#X obj 235 35 inlet amount;
#X msg 273 80 1 \$1;
#X obj 273 110 -;
#X obj 46 182 *~;
#X msg 272 134 \$1 5;
#X obj 272 155 vline~;
#X msg 322 134 \$1 5;
#X obj 322 155 vline~;
#X obj 136 182 *~;
#X obj 46 226 +~;
#X obj 46 247 outlet~;
#X connect 0 0 5 0;
#X connect 1 0 10 0;
#X connect 2 0 3 0;
#X connect 2 0 8 0;
#X connect 3 0 4 0;
#X connect 4 0 6 0;
#X connect 5 0 11 0;
#X connect 6 0 7 0;
#X connect 7 0 5 1;
#X connect 8 0 9 0;
#X connect 9 0 10 1;
#X connect 10 0 11 1;
#X connect 11 0 12 0;
#X restore 77 120 pd drywet;
#X obj 138 8 inlet;
#X obj 107 84 /~ 2;
#X obj 30 84 /~ 2;
#X obj 77 84 /~ 2;
#X obj 0 84 /~ 2;
#X connect 0 0 10 0;
#X connect 2 0 0 0;
#X connect 2 0 12 0;
#X connect 3 0 1 0;
#X connect 4 0 9 0;
#X connect 6 0 4 0;
#X connect 6 0 11 0;
#X connect 7 0 5 0;
#X connect 8 0 3 2;
#X connect 8 0 7 2;
#X connect 9 0 7 1;
#X connect 10 0 3 1;
#X connect 11 0 7 0;
#X connect 12 0 3 0;
