#N canvas 319 70 1010 584 10;
#X obj 163 21 bng 15 250 50 0 empty empty empty 17 7 0 10 -262144 -1
-1;
#X obj 156 234 bang;
#X obj 156 270 bdrum;
#X obj 223 241 bang;
#X obj 223 266 snare;
#X obj 269 269 hihat;
#X obj 272 241 bang;
#X obj 324 244 bang;
#X obj 154 507 dac~;
#X obj 153 468 *~ 1;
#X obj 193 62 step_seq;
#X obj 193 112 step_seq;
#X obj 288 112 step_seq;
#X obj 383 112 step_seq;
#X obj 478 112 step_seq;
#X obj 668 112 step_seq;
#X obj 573 112 step_seq;
#X obj 763 112 step_seq;
#X obj 858 112 step_seq;
#X obj 288 62 step_seq;
#X connect 0 0 10 0;
#X connect 0 0 11 0;
#X connect 1 0 2 0;
#X connect 2 0 9 0;
#X connect 3 0 4 0;
#X connect 4 0 9 0;
#X connect 5 0 9 0;
#X connect 6 0 5 0;
#X connect 7 0 5 1;
#X connect 9 0 8 0;
#X connect 9 0 8 1;
#X connect 10 0 19 0;
#X connect 10 1 6 0;
#X connect 11 0 12 0;
#X connect 11 1 1 0;
#X connect 12 0 13 0;
#X connect 12 1 3 0;
#X connect 13 0 14 0;
#X connect 13 1 7 0;
#X connect 14 0 16 0;
#X connect 14 1 1 0;
#X connect 15 0 17 0;
#X connect 15 1 1 0;
#X connect 16 0 15 0;
#X connect 16 1 3 0;
#X connect 17 0 18 0;
#X connect 17 1 3 0;
#X connect 18 0 11 0;
#X connect 18 1 3 0;
#X connect 19 0 10 0;
#X connect 19 1 7 0;
