#N canvas 225 198 859 495 10;
#X obj 24 23 inlet prev_step;
#X obj 24 204 outlet 4_next_step;
#X obj 105 103 tgl 15 0 empty empty empty 17 7 0 10 -262144 -1 -1 1
1;
#X obj 124 104 nbx 5 14 0 1e+37 0 0 empty empty empty 0 -8 0 10 -262144
-1 -1 250 256;
#X obj 24 174 del;
#X obj 124 22 loadbang;
#X obj 105 123 bng 15 250 50 0 empty empty empty 17 7 0 10 -262144
-1 -1;
#X obj 154 203 outlet bang;
#X msg 124 79 250;
#X obj 155 167 spigot;
#X obj 188 22 inlet time;
#X connect 0 0 4 0;
#X connect 2 0 9 1;
#X connect 3 0 4 1;
#X connect 4 0 1 0;
#X connect 4 0 6 0;
#X connect 4 0 9 0;
#X connect 5 0 8 0;
#X connect 5 0 2 0;
#X connect 8 0 3 0;
#X connect 9 0 7 0;
#X connect 10 0 3 0;
#X coords 0 -1 1 1 85 40 2 100 100;
