#N canvas 0 22 1010 584 10;
#X obj 297 111 step_seq;
#X obj 178 38 bng 15 250 50 0 empty empty empty 17 7 0 10 -262144 -1
-1;
#X obj 152 326 vline~;
#X obj 88 303 osc~ 440;
#X msg 151 303 0.25 \, 0 125;
#X obj 124 375 *~;
#X obj 245 488 dac~;
#X obj 201 110 step_seq;
#X obj 397 110 step_seq;
#X obj 499 110 step_seq;
#X connect 0 0 8 0;
#X connect 0 1 4 0;
#X connect 1 0 7 0;
#X connect 2 0 5 1;
#X connect 3 0 5 0;
#X connect 4 0 2 0;
#X connect 5 0 6 0;
#X connect 5 0 6 1;
#X connect 7 0 0 0;
#X connect 7 1 4 0;
#X connect 8 0 9 0;
#X connect 8 1 4 0;
#X connect 9 0 7 0;
#X connect 9 1 4 0;
