#N canvas 71 60 965 572 24;
#X obj 281 129 delay;
#X obj 278 168 spigot;
#X obj 7 128 tgl 15 0 empty empty empty 17 7 0 10 -262144 -1 -1 0 1
;
#X msg 261 77 bang;
#X obj 7 110 nbx 5 14 -1e+37 1e+37 0 0 empty empty empty 0 -8 0 10
-262144 -1 -1 0 256;
#X msg 368 166 bang;
#X obj 360 15 inlet bang_in;
#X obj 221 268 outlet trig_out;
#X obj 423 262 outlet chain_out;
#X connect 0 0 1 0;
#X connect 0 0 5 0;
#X connect 1 0 7 0;
#X connect 2 0 1 1;
#X connect 3 0 0 0;
#X connect 4 0 0 1;
#X connect 5 0 8 0;
#X connect 6 0 3 0;
#X coords 0 -1 1 1 200 400 1 0 100;
