#N canvas 862 289 450 300 10;
#X obj 40 21 inlet~;
#X obj 39 242 outlet~;
#X obj 267 49 delwrite~ \$0-deltab 30000;
#X obj 130 45 vd~ \$0-deltab;
#X obj 130 70 *~ 0.25;
#X obj 210 116 tanh_overdrive~;
#X obj 312 117 specFilter~;
#X obj 54 215 *~;
#X obj 106 138 vsl 15 32 0 1 0 0 empty empty empty 0 -9 0 10 -262144
-1 -1 2900 1;
#X msg 87 153 \$1 50;
#X obj 88 177 vline~;
#X obj 150 137 vsl 15 32 0 500 0 0 empty empty empty 0 -9 0 10 -262144
-1 -1 2575 1;
#X msg 146 180 \$1 50;
#X obj 137 215 vline~;
#X obj 150 112 nbx 5 14 -1e+37 1e+37 0 0 empty empty empty 0 -8 0 10
-262144 -1 -1 500 256;
#X connect 0 0 2 0;
#X connect 0 0 1 0;
#X connect 3 0 4 0;
#X connect 3 0 7 0;
#X connect 4 0 5 0;
#X connect 5 0 6 0;
#X connect 6 0 2 0;
#X connect 7 0 1 0;
#X connect 8 0 9 0;
#X connect 9 0 10 0;
#X connect 10 0 7 1;
#X connect 11 0 12 0;
#X connect 12 0 13 0;
#X connect 13 0 3 0;
#X connect 14 0 11 0;
#X coords 0 -1 1 1 300 80 1 100 100;
