#N canvas 248 59 1010 584 10;
#X obj 288 112 step_seq;
#X obj 163 21 bng 15 250 50 0 empty empty empty 17 7 0 10 -262144 -1
-1;
#X obj 193 112 step_seq;
#X obj 383 112 step_seq;
#X obj 478 112 step_seq;
#X obj 668 112 step_seq;
#X obj 573 112 step_seq;
#X obj 763 112 step_seq;
#X obj 858 112 step_seq;
#X obj 156 234 bang;
#X obj 156 270 bdrum;
#X obj 223 241 bang;
#X obj 223 266 snare;
#X obj 269 269 hihat;
#X obj 272 241 bang;
#X obj 324 244 bang;
#X obj 288 62 step_seq;
#X obj 193 62 step_seq;
#X obj 139 503 dac~;
#X obj 153 345 tanh_overdrive~;
#X obj 155 419 specFilter~;
#X obj 153 318 *~ 1;
#X obj 825 47 spigot;
#X obj 858 26 tgl 15 0 empty empty empty 17 7 0 10 -262144 -1 -1 1
1;
#X obj 778 46 spigot;
#X obj 313 342 analo_del~;
#X connect 0 0 3 0;
#X connect 0 1 11 0;
#X connect 1 0 2 0;
#X connect 1 0 17 0;
#X connect 2 0 0 0;
#X connect 2 1 9 0;
#X connect 3 0 4 0;
#X connect 3 1 15 0;
#X connect 4 0 6 0;
#X connect 4 1 9 0;
#X connect 5 0 7 0;
#X connect 5 1 9 0;
#X connect 6 0 5 0;
#X connect 6 1 11 0;
#X connect 7 0 8 0;
#X connect 7 1 11 0;
#X connect 8 0 22 0;
#X connect 8 1 11 0;
#X connect 9 0 10 0;
#X connect 10 0 21 0;
#X connect 11 0 12 0;
#X connect 12 0 25 0;
#X connect 13 0 25 0;
#X connect 14 0 13 0;
#X connect 15 0 13 1;
#X connect 16 0 24 0;
#X connect 16 1 15 0;
#X connect 17 0 16 0;
#X connect 17 1 14 0;
#X connect 19 0 20 0;
#X connect 20 0 18 0;
#X connect 20 0 18 1;
#X connect 21 0 19 0;
#X connect 22 0 2 0;
#X connect 23 0 22 1;
#X connect 23 0 24 1;
#X connect 24 0 17 0;
#X connect 25 0 21 0;
