#N canvas 279 228 1010 584 10;
#X obj 508 111 bng 15 250 50 0 empty empty empty 17 7 0 10 -262144
-1 -1;
#X obj 111 232 outlet bang;
#X obj 409 110 step_seq;
#X obj 111 110 step_seq;
#X obj 207 111 step_seq;
#X obj 307 110 step_seq;
#X connect 0 0 3 0;
#X connect 2 0 3 0;
#X connect 2 1 1 0;
#X connect 3 0 4 0;
#X connect 3 1 1 0;
#X connect 4 0 5 0;
#X connect 4 1 1 0;
#X connect 5 0 2 0;
#X connect 5 1 1 0;
#X coords 0 -1 1 1 450 60 2 100 100;
