#N canvas 381 177 450 300 10;
#X obj -22 181 tanh~;
#X msg 106 163 \$1 25;
#X obj 106 188 vline~;
#X obj 106 121 vsl 15 32 0.5 4 0 0 empty empty empty 0 -9 0 10 -262144
-1 -1 1100 1;
#X obj -22 116 inlet~;
#X obj -22 211 outlet~;
#X obj -22 154 *~;
#X obj 105 34 loadbang;
#X msg 105 61 1;
#X connect 0 0 5 0;
#X connect 1 0 2 0;
#X connect 2 0 6 1;
#X connect 3 0 1 0;
#X connect 4 0 6 0;
#X connect 6 0 0 0;
#X connect 7 0 8 0;
#X connect 8 0 3 0;
#X coords 0 -1 1 1 85 60 1 100 100;
