#N canvas 0 1 1268 748 12;
#N canvas 0 0 454 304 vol 0;
#X obj 131 155 *~;
#X obj 131 199 outlet~;
#X obj 131 103 inlet~;
#X msg 199 63 \$1 50;
#X obj 199 103 vline~;
#X obj 206 24 inlet;
#X connect 0 0 1 0;
#X connect 2 0 0 0;
#X connect 3 0 4 0;
#X connect 4 0 0 1;
#X connect 5 0 3 0;
#X restore 349 753 pd vol;
#X obj 395 730 hsl 128 15 0 1 0 0 empty empty empty -2 -8 0 10 -262144
-1 -1 0 1;
#N canvas 0 0 490 340 envpitch 0;
#X obj 30 18 inlet;
#X obj 30 135 vline~;
#X obj 84 18 inlet pitch;
#X obj 29 167 *~;
#X obj 30 197 outlet~;
#X msg 31 90 1 \, 0 500;
#X connect 0 0 5 0;
#X connect 1 0 3 0;
#X connect 2 0 3 1;
#X connect 3 0 4 0;
#X connect 5 0 1 0;
#X restore 368 537 pd envpitch;
#N canvas 0 0 502 352 oscMod 0;
#X obj 85 29 inlet;
#X obj 149 29 inlet pitch;
#X obj 143 234 osc~;
#X obj 85 112 vline~;
#X obj 143 267 outlet~;
#X obj 144 197 +~ 1;
#X obj 185 120 vline~;
#X obj 86 159 *~;
#X msg 186 88 \$1 10;
#X msg 84 87 1 \, 0 2000;
#X connect 0 0 9 0;
#X connect 1 0 5 1;
#X connect 1 0 8 0;
#X connect 2 0 4 0;
#X connect 3 0 7 0;
#X connect 5 0 2 0;
#X connect 6 0 7 1;
#X connect 7 0 5 0;
#X connect 8 0 6 0;
#X connect 9 0 3 0;
#X restore 349 510 pd oscMod;
#X obj 454 488 hsl 128 15 0 127 0 0 empty empty empty -2 -8 0 10 -262144
-1 -1 0 1;
#X obj 451 512 mtof;
#X obj 422 440 hsl 128 15 0 127 0 0 empty empty empty -2 -8 0 10 -262144
-1 -1 0 1;
#X obj 416 464 mtof;
#X obj 349 439 t b b;
#X obj 348 569 *~;
#X obj 423 210 delay;
#X obj 458 179 * 1;
#X obj 445 252 delay;
#X obj 459 142 t f f f;
#X msg 351 129 bang;
#X obj 349 352 bang;
#X obj 351 -61 tgl 15 0 empty empty empty 17 7 0 10 -262144 -1 -1 0
1;
#X obj 351 3 t b b;
#X obj 468 42 random 3;
#X obj 468 72 sel 0 1 2;
#X obj 480 212 * 0.25;
#X obj 562 438 line;
#X obj 283 2 s bseq0;
#X obj 287 395 s bseq1;
#X obj 356 404 s bseq2;
#X obj 919 243 r bseq0;
#X obj 1062 245 r bseq2;
#X msg 919 287 bang;
#X obj 919 324 f;
#X obj 919 355 % 16;
#X obj 953 323 + 0.5;
#N canvas 358 230 486 570 snare 0;
#X obj 83 26 inlet;
#X obj 132 298 noise~;
#X obj 191 200 vline~;
#X obj 132 333 *~;
#X obj 179 402 outlet~;
#X obj 189 236 *~;
#X obj 268 273 osc~;
#X obj 269 210 vline~;
#X obj 250 300 *~;
#X msg 269 181 700 \, 400 20;
#X obj 249 335 *~;
#X obj 284 300 phasor~ 350;
#X msg 191 166 1 \, 0 200;
#X connect 0 0 9 0;
#X connect 0 0 12 0;
#X connect 1 0 3 0;
#X connect 2 0 5 1;
#X connect 2 0 5 0;
#X connect 3 0 4 0;
#X connect 5 0 3 1;
#X connect 5 0 8 0;
#X connect 6 0 8 1;
#X connect 7 0 6 0;
#X connect 8 0 10 0;
#X connect 9 0 7 0;
#X connect 10 0 4 0;
#X connect 11 0 10 1;
#X connect 12 0 2 0;
#X restore 749 642 pd snare;
#X obj 749 455 sel 0;
#N canvas 0 0 474 324 bdrum 0;
#X obj 140 67 inlet;
#X obj 140 211 osc~;
#X obj 140 150 vline~;
#X obj 145 282 outlet~;
#X obj 141 254 *~;
#X msg 140 125 220 \, 55 110;
#X obj 307 156 vline~;
#X obj 308 192 sqrt~;
#X msg 305 124 0.25 \, 0 220;
#X connect 0 0 5 0;
#X connect 0 0 8 0;
#X connect 1 0 4 0;
#X connect 2 0 1 0;
#X connect 4 0 3 0;
#X connect 5 0 2 0;
#X connect 6 0 7 0;
#X connect 7 0 4 1;
#X connect 8 0 6 0;
#X restore 831 666 pd bdrum;
#X obj 749 428 % 8;
#X obj 784 549 sel 0 1;
#X msg 784 583 0;
#X obj 822 584 f;
#X obj 749 614 delay;
#X obj 749 484 t b b;
#X obj 329 672 osc~;
#X obj 347 611 +~;
#X obj 49 269 random 5;
#X obj 49 301 sel 0 1 2 3 4;
#X obj 281 508 mtof;
#X msg 41 344 0;
#X msg 81 346 3;
#X msg 122 348 7;
#X msg 166 349 -2;
#X msg 281 540 \$1 125;
#X obj 281 569 vline~;
#X msg 203 349 5;
#X obj 80 382 + 48;
#N canvas 358 230 498 348 hh 0;
#X obj 83 26 inlet;
#X obj 115 153 noise~;
#X obj 196 159 vline~;
#X obj 114 183 *~;
#X obj 112 295 outlet~;
#X obj 194 195 *~;
#X obj 110 239 hip~ 8000;
#X obj 110 269 lop~ 9000;
#X msg 196 126 0.75 \, 0 250;
#X connect 0 0 8 0;
#X connect 1 0 3 0;
#X connect 2 0 5 1;
#X connect 2 0 5 0;
#X connect 3 0 6 0;
#X connect 5 0 3 1;
#X connect 6 0 7 0;
#X connect 7 0 4 0;
#X connect 8 0 2 0;
#X restore 919 643 pd hh;
#X obj 919 617 sel 0;
#N canvas 358 230 506 356 oh 0;
#X obj 83 26 inlet;
#X obj 115 153 noise~;
#X obj 196 159 vline~;
#X obj 114 183 *~;
#X obj 223 302 outlet~;
#X obj 194 195 *~;
#X msg 197 126 0.8 \, 0 500;
#X obj 224 270 lop~ 1000;
#X obj 223 240 hip~ 1000;
#X connect 0 0 6 0;
#X connect 1 0 3 0;
#X connect 2 0 5 1;
#X connect 2 0 5 0;
#X connect 3 0 8 0;
#X connect 5 0 3 1;
#X connect 6 0 2 0;
#X connect 7 0 4 0;
#X connect 8 0 7 0;
#X restore 986 643 pd oh;
#X obj 202 508 mtof;
#X obj 202 569 vline~;
#X obj 202 596 osc~;
#X obj 329 641 *~;
#X obj 202 482 - 24;
#N canvas 0 0 792 750 pad 0;
#X obj 296 77 + 3;
#X obj 343 78 + 7;
#X obj 251 74 + 0;
#X obj 306 24 inlet;
#X obj 251 108 mtof;
#X obj 294 107 mtof;
#X obj 344 107 mtof;
#X obj 251 142 phasor~;
#X obj 293 171 phasor~;
#X obj 368 174 phasor~;
#X obj 332 439 +~;
#X obj 333 504 /~ 3;
#N canvas 367 480 466 316 oline 0;
#X obj 102 35 inlet;
#X obj 102 77 pack f \$1;
#X obj 101 110 line;
#X obj 101 157 outlet;
#X connect 0 0 1 0;
#X connect 1 0 2 0;
#X connect 2 0 3 0;
#X restore 185 171 pd oline 1000;
#N canvas 367 480 462 312 oline 0;
#X obj 102 35 inlet;
#X obj 102 77 pack f \$1;
#X obj 101 110 line;
#X obj 101 157 outlet;
#X connect 0 0 1 0;
#X connect 1 0 2 0;
#X connect 2 0 3 0;
#X restore 333 270 pd oline 1000;
#N canvas 367 480 462 312 oline 0;
#X obj 102 35 inlet;
#X obj 102 77 pack f \$1;
#X obj 101 110 line;
#X obj 101 157 outlet;
#X connect 0 0 1 0;
#X connect 1 0 2 0;
#X connect 2 0 3 0;
#X restore 408 329 pd oline 1000;
#N canvas 367 480 474 324 oline~ 0;
#X obj 102 35 inlet;
#X obj 101 110 vline~;
#X obj 102 157 outlet~;
#X obj 102 77 pack f 500;
#X connect 0 0 3 0;
#X connect 1 0 2 0;
#X connect 3 0 1 0;
#X restore 524 392 pd oline~ 1000;
#X obj 467 534 vcf~ 24;
#X obj 524 478 *~ 0.333333;
#X obj 452 444 phasor~;
#X obj 451 413 /~ 4;
#X obj 292 304 bp~ 1000 10;
#X obj 251 227 bp~ 1000 10;
#X obj 366 360 bp~ 1000 10;
#X obj 91 320 vline~;
#X obj 103 219 delay 500;
#X obj 381 687 outlet~;
#X obj 380 654 *~;
#X obj 90 360 *~;
#X msg 76 153 0.5 \, 1 250;
#X msg 124 270 1 \, 0 2000;
#X connect 0 0 5 0;
#X connect 1 0 6 0;
#X connect 2 0 4 0;
#X connect 3 0 1 0;
#X connect 3 0 0 0;
#X connect 3 0 2 0;
#X connect 3 0 28 0;
#X connect 4 0 7 0;
#X connect 4 0 12 0;
#X connect 4 0 15 0;
#X connect 4 0 19 0;
#X connect 5 0 8 0;
#X connect 5 0 13 0;
#X connect 6 0 9 0;
#X connect 6 0 14 0;
#X connect 7 0 21 0;
#X connect 8 0 20 0;
#X connect 9 0 22 0;
#X connect 10 0 11 0;
#X connect 11 0 26 0;
#X connect 12 0 21 1;
#X connect 13 0 20 1;
#X connect 14 0 22 1;
#X connect 15 0 17 0;
#X connect 16 0 26 0;
#X connect 17 0 16 1;
#X connect 18 0 16 0;
#X connect 19 0 18 0;
#X connect 20 0 10 0;
#X connect 21 0 10 0;
#X connect 22 0 10 0;
#X connect 23 0 27 0;
#X connect 23 0 27 1;
#X connect 24 0 29 0;
#X connect 26 0 25 0;
#X connect 27 0 26 1;
#X connect 28 0 23 0;
#X connect 28 0 24 0;
#X connect 29 0 23 0;
#X restore 63 584 pd pad;
#X obj 831 705 +~;
#N canvas 0 0 454 304 vol 0;
#X obj 131 155 *~;
#X obj 131 199 outlet~;
#X obj 131 103 inlet~;
#X msg 199 63 \$1 50;
#X obj 199 103 vline~;
#X obj 206 24 inlet;
#X connect 0 0 1 0;
#X connect 2 0 0 0;
#X connect 3 0 4 0;
#X connect 4 0 0 1;
#X connect 5 0 3 0;
#X restore 829 748 pd vol;
#X obj 875 725 hsl 128 15 0 1 0 0 empty empty empty -2 -8 0 10 -262144
-1 -1 0 1;
#X obj 600 814 dac~;
#X msg 203 540 \$1 125;
#X obj 352 -28 metro 500;
#X obj 420 368 metro 125;
#X msg 561 400 96 \, 16 250;
#X msg 458 102 500;
#X msg 505 101 2000;
#X msg 550 102 250;
#X obj 831 611 % 8;
#X obj 831 640 sel 4;
#X obj 49 206 tgl 15 0 empty empty empty 17 7 0 10 -262144 -1 -1 0
1;
#X obj 49 235 sel 1;
#X obj 420 404 random 96;
#X obj 329 697 *~;
#N canvas 0 0 506 356 envAmp 0;
#X obj 30 18 inlet;
#X obj 30 135 vline~;
#X obj 30 197 outlet~;
#X msg 31 90 0.5 \, 0 750;
#X connect 0 0 3 0;
#X connect 1 0 2 0;
#X connect 3 0 1 0;
#X restore 388 614 pd envAmp;
#X obj 387 643 *~;
#X obj 919 593 % 4;
#X obj 1141 244 r bseq0;
#N canvas 339 130 462 472 ballroomclick 0;
#X obj 78 -4 inlet;
#X obj 177 162 vline~;
#X msg 77 24 1;
#X msg 135 53 0.5;
#X msg 186 90 0.25;
#X obj 68 238 osc~ 440;
#X obj 126 270 *~;
#X obj 123 345 outlet~;
#X obj 74 181 *~ 880;
#X obj 76 207 +~ 440;
#X msg 176 133 \$1 \, 0 15;
#X obj 135 20 delay 125;
#X obj 187 55 delay 250;
#X obj 286 87 delay 125;
#X msg 285 122 0.75;
#X connect 0 0 2 0;
#X connect 0 0 11 0;
#X connect 0 0 12 0;
#X connect 1 0 6 1;
#X connect 1 0 8 0;
#X connect 2 0 10 0;
#X connect 3 0 10 0;
#X connect 4 0 10 0;
#X connect 5 0 6 0;
#X connect 6 0 7 0;
#X connect 8 0 9 0;
#X connect 9 0 5 0;
#X connect 10 0 1 0;
#X connect 11 0 3 0;
#X connect 12 0 4 0;
#X connect 12 0 13 0;
#X connect 13 0 14 0;
#X connect 14 0 10 0;
#X restore 1066 373 pd ballroomclick;
#N canvas 358 230 502 352 hh 0;
#X obj 83 26 inlet;
#X obj 115 153 noise~;
#X obj 196 159 vline~;
#X obj 114 183 *~;
#X obj 112 295 outlet~;
#X obj 194 195 *~;
#X obj 110 239 hip~ 8000;
#X obj 110 269 lop~ 9000;
#X msg 196 126 1 \, 0 125;
#X connect 0 0 8 0;
#X connect 1 0 3 0;
#X connect 2 0 5 1;
#X connect 2 0 5 0;
#X connect 3 0 6 0;
#X connect 5 0 3 1;
#X connect 6 0 7 0;
#X connect 7 0 4 0;
#X connect 8 0 2 0;
#X restore 1204 373 pd hh;
#X obj 988 245 r bseq1;
#X obj 812 458 timer;
#X obj 812 433 t b b;
#X obj 786 512 random 3;
#X obj 811 482 * 1.33333;
#X obj 63 546 + 12;
#X msg 964 284 0;
#X obj 985 593 % 16;
#X obj 988 618 sel 8;
#X obj 343 807 writesf~;
#X obj 164 719 t b b;
#X msg 213 753 open beat.wav;
#X msg 161 750 start;
#X msg 164 686 bang;
#X connect 0 0 65 0;
#X connect 0 0 65 1;
#X connect 0 0 94 0;
#X connect 1 0 0 1;
#X connect 2 0 9 1;
#X connect 3 0 9 0;
#X connect 4 0 5 0;
#X connect 5 0 2 1;
#X connect 6 0 7 0;
#X connect 7 0 3 1;
#X connect 8 0 3 0;
#X connect 8 1 2 0;
#X connect 9 0 41 0;
#X connect 10 0 12 0;
#X connect 10 0 15 0;
#X connect 11 0 10 1;
#X connect 12 0 15 0;
#X connect 12 0 75 0;
#X connect 13 0 11 0;
#X connect 13 1 20 0;
#X connect 14 0 10 0;
#X connect 14 0 15 0;
#X connect 15 0 8 0;
#X connect 15 0 23 0;
#X connect 15 0 79 0;
#X connect 16 0 67 0;
#X connect 16 0 68 0;
#X connect 16 0 91 0;
#X connect 16 0 98 0;
#X connect 17 0 14 0;
#X connect 17 1 18 0;
#X connect 18 0 19 0;
#X connect 19 0 70 0;
#X connect 19 1 71 0;
#X connect 19 2 72 0;
#X connect 20 0 12 1;
#X connect 21 0 4 0;
#X connect 25 0 27 0;
#X connect 26 0 27 0;
#X connect 27 0 28 0;
#X connect 27 0 87 0;
#X connect 28 0 29 0;
#X connect 28 0 30 0;
#X connect 29 0 34 0;
#X connect 29 0 73 0;
#X connect 29 0 81 0;
#X connect 29 0 92 0;
#X connect 30 0 28 1;
#X connect 31 0 62 0;
#X connect 32 0 39 0;
#X connect 33 0 62 0;
#X connect 34 0 32 0;
#X connect 35 0 36 0;
#X connect 35 1 37 0;
#X connect 36 0 38 1;
#X connect 37 0 38 1;
#X connect 38 0 31 0;
#X connect 39 0 38 0;
#X connect 39 1 88 0;
#X connect 40 0 78 0;
#X connect 41 0 59 1;
#X connect 42 0 43 0;
#X connect 43 0 45 0;
#X connect 43 1 46 0;
#X connect 43 2 47 0;
#X connect 43 3 48 0;
#X connect 43 4 51 0;
#X connect 44 0 49 0;
#X connect 45 0 52 0;
#X connect 46 0 52 0;
#X connect 47 0 52 0;
#X connect 48 0 52 0;
#X connect 49 0 50 0;
#X connect 50 0 41 1;
#X connect 51 0 52 0;
#X connect 52 0 44 0;
#X connect 52 0 60 0;
#X connect 52 0 90 0;
#X connect 53 0 62 0;
#X connect 54 0 53 0;
#X connect 55 0 62 0;
#X connect 56 0 66 0;
#X connect 57 0 58 0;
#X connect 58 0 59 0;
#X connect 59 0 40 0;
#X connect 60 0 56 0;
#X connect 61 0 0 0;
#X connect 62 0 63 0;
#X connect 63 0 65 1;
#X connect 63 0 65 0;
#X connect 63 0 94 0;
#X connect 64 0 63 1;
#X connect 66 0 57 0;
#X connect 67 0 17 0;
#X connect 67 0 69 0;
#X connect 67 0 22 0;
#X connect 68 0 24 0;
#X connect 68 0 77 0;
#X connect 69 0 21 0;
#X connect 70 0 13 0;
#X connect 71 0 13 0;
#X connect 72 0 13 0;
#X connect 73 0 74 0;
#X connect 74 0 33 0;
#X connect 75 0 76 0;
#X connect 76 0 42 0;
#X connect 77 0 6 0;
#X connect 78 0 0 0;
#X connect 79 0 80 0;
#X connect 79 0 80 1;
#X connect 80 0 78 1;
#X connect 81 0 54 0;
#X connect 82 0 83 0;
#X connect 82 0 84 0;
#X connect 83 0 62 0;
#X connect 84 0 62 0;
#X connect 85 0 27 0;
#X connect 86 0 89 0;
#X connect 87 0 86 0;
#X connect 87 1 86 1;
#X connect 88 0 35 0;
#X connect 89 0 37 1;
#X connect 90 0 61 0;
#X connect 91 0 28 1;
#X connect 92 0 93 0;
#X connect 93 0 55 0;
#X connect 93 0 69 0;
#X connect 95 0 97 0;
#X connect 95 1 96 0;
#X connect 96 0 94 0;
#X connect 97 0 94 0;
#X connect 98 0 95 0;
