#N canvas 296 111 1222 747 10;
#X obj 200 701 adac~;
#X obj 367 697 mix~;
#N canvas 591 145 503 673 ambiance 0;
#X obj 58 561 outlet~;
#X obj 183 580 outlet~;
#X obj 23 37 noise~;
#X obj 65 161 osc~;
#X obj 44 114 *~;
#X obj 112 158 vsl 15 128 0 1000 0 0 empty empty noise 0 -9 0 10 -191407
-1 -1 5000 1;
#X obj 66 139 +~;
#X obj 97 78 mtof 63;
#X obj 147 159 vsl 15 128 0 1 0 0 empty empty stereo 0 -9 0 10 -86277
-1 -1 8500 1;
#X obj 187 438 +~ 1;
#X obj 184 498 *~;
#X obj 127 28 inlet;
#X obj 187 466 *~ 5;
#X obj 187 416 osc~ 0.5;
#X obj 262 202 ad_env~;
#X obj 58 184 *~;
#X obj 237 111 t b b b;
#X msg 269 165 5;
#X obj 22 77 bp~ 2000 15;
#X obj 183 541 vd~ \$0_ambi_d;
#X obj 77 337 delwrite~ \$0_ambi_d 882;
#X obj 56 211 /~ 16;
#X msg 309 172 2000;
#X connect 2 0 18 0;
#X connect 3 0 15 0;
#X connect 4 0 6 0;
#X connect 5 0 4 1;
#X connect 6 0 3 0;
#X connect 7 0 6 1;
#X connect 7 0 18 1;
#X connect 8 0 10 1;
#X connect 9 0 12 0;
#X connect 10 0 19 0;
#X connect 11 0 7 0;
#X connect 11 0 16 0;
#X connect 12 0 10 0;
#X connect 13 0 9 0;
#X connect 14 0 15 1;
#X connect 15 0 21 0;
#X connect 16 0 14 0;
#X connect 16 1 17 0;
#X connect 16 2 22 0;
#X connect 17 0 14 1;
#X connect 18 0 4 0;
#X connect 19 0 1 0;
#X connect 21 0 0 0;
#X connect 21 0 20 0;
#X connect 22 0 14 2;
#X coords 0 -1 1 1 85 200 1 100 100;
#X restore 54 156 pd ambiance;
#N canvas 624 169 450 300 clock_seq 0;
#X obj 35 237 outlet;
#X obj 184 194 cpt 8;
#X obj 171 239 outlet;
#X obj 185 122 send clock;
#X obj 152 37 inlet;
#X obj 103 73 metro 250;
#X obj 209 42 inlet;
#X obj 247 242 outlet;
#X msg 259 165 bang;
#X connect 1 0 2 0;
#X connect 4 0 5 0;
#X connect 5 0 0 0;
#X connect 5 0 1 0;
#X connect 5 0 3 0;
#X connect 6 0 5 1;
#X connect 6 0 8 0;
#X connect 8 0 7 0;
#X restore 142 30 pd clock_seq;
#N canvas 474 117 755 363 seq1 0;
#X obj 29 263 outlet;
#X obj 24 67 inlet;
#X obj 27 95 cpt 12;
#X obj 108 127 bng 15 250 50 0 empty empty seq_1 0 -7 0 10 -262144
-1 -1;
#X obj 148 127 bng 15 250 50 0 empty empty seq_2 0 -7 0 10 -262144
-1 -1;
#X obj 264 73 table petiteSeq1;
#X msg 272 142 \; petiteSeq1 0 0 3 5 7 12 3 5 3 -5 0;
#X obj 25 171 tabread petiteSeq1;
#X msg 264 99 \; petiteSeq1 0 0 7 9 12 8 5 5 3 2 0;
#X obj 22 202 + 68;
#X obj 25 232 +;
#X obj 149 171 inlet;
#X connect 1 0 2 0;
#X connect 2 1 7 0;
#X connect 3 0 8 0;
#X connect 4 0 6 0;
#X connect 7 0 9 0;
#X connect 9 0 10 0;
#X connect 10 0 0 0;
#X connect 11 0 10 1;
#X coords 0 -1 1 1 85 60 1 100 100;
#X restore 54 84 pd seq1;
#N canvas 591 145 503 673 ambiance 0;
#X obj 58 561 outlet~;
#X obj 183 580 outlet~;
#X obj 23 37 noise~;
#X obj 44 114 *~;
#X obj 112 158 vsl 15 128 0 1000 0 0 empty empty noise 0 -9 0 10 -191407
-1 -1 0 1;
#X obj 66 139 +~;
#X obj 97 78 mtof 63;
#X obj 147 159 vsl 15 128 0 1 0 0 empty empty stereo 0 -9 0 10 -86277
-1 -1 0 1;
#X obj 187 438 +~ 1;
#X obj 184 498 *~;
#X obj 127 28 inlet;
#X obj 187 466 *~ 5;
#X obj 187 416 osc~ 0.5;
#X obj 262 202 ad_env~;
#X obj 58 184 *~;
#X obj 237 111 t b b b;
#X obj 22 77 bp~ 2000 15;
#X obj 103 54 - 36;
#X obj 56 211 /~ 16;
#X obj 78 336 delwrite~ \$0_ambi1_d 882;
#X obj 183 541 vd~ \$0_ambi1_d;
#X obj 65 161 osc~;
#X obj 275 23 osc~ 0.5;
#X obj 272 66 *~ 0.125;
#X msg 269 165 0;
#X msg 309 173 800;
#X obj 198 25 inlet;
#X obj -29 186 phasor~;
#X obj 186 62 mtof 63;
#X obj 26 171 line;
#X obj -32 158 vline~;
#X obj -35 240 /~ 4;
#X obj -36 214 bp~ 5 1;
#X msg 21 148 \$1 50;
#X connect 2 0 16 0;
#X connect 3 0 5 0;
#X connect 4 0 3 1;
#X connect 5 0 21 0;
#X connect 6 0 5 1;
#X connect 6 0 16 1;
#X connect 7 0 9 1;
#X connect 8 0 11 0;
#X connect 9 0 20 0;
#X connect 10 0 15 0;
#X connect 10 0 17 0;
#X connect 11 0 9 0;
#X connect 12 0 8 0;
#X connect 13 0 14 1;
#X connect 14 0 18 0;
#X connect 15 0 13 0;
#X connect 15 1 24 0;
#X connect 15 2 25 0;
#X connect 16 0 3 0;
#X connect 17 0 6 0;
#X connect 18 0 0 0;
#X connect 18 0 19 0;
#X connect 20 0 1 0;
#X connect 21 0 14 0;
#X connect 22 0 23 0;
#X connect 23 0 5 0;
#X connect 24 0 13 1;
#X connect 25 0 13 2;
#X connect 26 0 28 0;
#X connect 27 0 32 0;
#X connect 28 0 33 0;
#X connect 29 0 32 1;
#X connect 30 0 27 0;
#X connect 31 0 0 0;
#X connect 32 0 31 0;
#X connect 33 0 29 0;
#X connect 33 0 30 0;
#X coords 0 -1 1 1 85 200 1 100 100;
#X restore 196 159 pd ambiance;
#N canvas 474 117 450 300 seq1 0;
#X obj 25 119 f;
#X obj 66 119 + 1;
#X obj 25 147 % 8;
#X obj 264 73 table petiteSeq;
#X msg 264 98 \; petiteSeq 0 0 3 7 5 7 9 5 3 2 0;
#X obj 25 171 tabread petiteSeq;
#X obj 29 263 outlet;
#X obj 24 67 inlet;
#X obj 108 127 bng 15 250 50 0 empty empty seq_1 0 -7 0 10 -262144
-1 -1;
#X obj 148 127 bng 15 250 50 0 empty empty seq_2 0 -7 0 10 -262144
-1 -1;
#X obj 27 95 cpt 24;
#X msg 269 141 \; petiteSeq 0 0 3 5 -12 12 3 5 3 -5 0;
#X obj 25 229 +;
#X obj 111 61 inlet;
#X obj 25 200 + 68;
#X connect 0 0 1 0;
#X connect 0 0 2 0;
#X connect 1 0 0 1;
#X connect 2 0 5 0;
#X connect 5 0 14 0;
#X connect 7 0 10 0;
#X connect 8 0 4 0;
#X connect 9 0 11 0;
#X connect 10 0 0 0;
#X connect 12 0 6 0;
#X connect 13 0 12 1;
#X connect 14 0 12 0;
#X coords 0 -1 1 1 85 60 1 100 100;
#X restore 174 84 pd seq1;
#N canvas 478 31 962 795 beat 0;
#X obj 484 291 bng 15 250 50 0 empty empty recalcule_la_microsequence
0 -6 0 8 -262144 -1 -1;
#X obj 287 274 f;
#X obj 326 275 + 1;
#X obj 133 279 f;
#X obj 170 278 + 1;
#X obj 133 342 tabread seq;
#X msg 237 242 0;
#N canvas 357 81 478 328 tick 0;
#X obj 40 58 inlet;
#X obj 63 175 vline~;
#X obj 29 215 *~;
#X obj -9 147 osc~ 55;
#X obj 116 292 outlet~;
#X obj 29 249 *~ 0.7;
#X msg 25 89 0;
#X obj -8 117 *~ 1600;
#X msg 63 145 0.25 \, 0 25;
#X connect 0 0 8 0;
#X connect 0 0 6 0;
#X connect 1 0 2 1;
#X connect 1 0 7 0;
#X connect 2 0 5 0;
#X connect 3 0 2 0;
#X connect 5 0 4 0;
#X connect 6 0 3 1;
#X connect 7 0 3 0;
#X connect 8 0 1 0;
#X restore 138 441 pd tick;
#N canvas 0 22 510 360 tick 0;
#X obj 40 58 inlet;
#X obj 63 175 vline~;
#X obj 29 215 *~;
#X obj 172 59 inlet;
#X obj 29 249 *~ 1;
#X obj 245 93 noise~;
#X obj 202 137 bp~ 1000 15;
#X obj 38 194 *~;
#X obj -5 329 outlet~;
#X obj -9 147 osc~ 220;
#X obj 336 96 noise~;
#X obj 293 140 bp~ 4000 15;
#X obj 10 118 phasor~ 440;
#X msg 64 143 0.5 \, 0 125;
#X connect 0 0 13 0;
#X connect 1 0 7 0;
#X connect 1 0 7 1;
#X connect 2 0 4 0;
#X connect 3 0 4 1;
#X connect 4 0 8 0;
#X connect 5 0 6 0;
#X connect 6 0 2 0;
#X connect 7 0 2 1;
#X connect 9 0 2 0;
#X connect 10 0 11 0;
#X connect 11 0 2 0;
#X connect 12 0 2 0;
#X connect 13 0 1 0;
#X restore 349 435 pd tick;
#X obj 448 10 loadbang;
#X msg 549 68 \; pd dsp 1 \;;
#X obj 448 42 t b b b b b;
#X obj 188 309 sel 0;
#X obj 30 23 table seq 16;
#X obj 133 311 % 16;
#X obj 286 306 % 32;
#X obj 281 340 microbeat seq 16;
#X obj 134 371 sel 0;
#X obj 126 418 bng 15 250 50 0 empty empty empty 0 -6 0 8 -262144 -1
-1;
#X msg 510 109 \; seq 0 1 0.5 0 0 1 0 0 0 1 0 0.25 0 1;
#X obj 95 74 r clock;
#X obj 313 543 outlet~;
#X obj 95 103 cpt 2;
#X obj 418 536 outlet;
#X obj 270 490 atan~;
#X obj 266 406 bng 15 250 50 0 empty empty empty 17 7 0 10 -262144
-1 -1;
#X connect 0 0 16 1;
#X connect 1 0 2 0;
#X connect 1 0 15 0;
#X connect 2 0 1 1;
#X connect 3 0 4 0;
#X connect 3 0 14 0;
#X connect 4 0 3 1;
#X connect 5 0 17 0;
#X connect 6 0 3 1;
#X connect 6 0 1 1;
#X connect 7 0 24 0;
#X connect 8 0 24 0;
#X connect 9 0 11 0;
#X connect 11 3 19 0;
#X connect 11 4 10 0;
#X connect 12 0 0 0;
#X connect 14 0 5 0;
#X connect 14 0 12 0;
#X connect 15 0 16 0;
#X connect 16 0 8 0;
#X connect 16 0 23 0;
#X connect 16 0 25 0;
#X connect 16 1 8 1;
#X connect 17 1 18 0;
#X connect 18 0 7 0;
#X connect 20 0 1 0;
#X connect 20 0 22 0;
#X connect 22 0 3 0;
#X connect 24 0 21 0;
#X restore 362 37 pd beat;
#X obj 446 292 bufferoverride;
#X obj 464 412 lowfxi;
#X obj 498 319 s next_quant;
#X obj 409 473 *~ 0.5;
#X obj 496 389 line 125;
#X obj 288 435 8bit;
#X obj 316 238 FM_BD;
#X obj 756 417 fm_synthAU;
#X obj 770 387 cpt 6;
#X obj 461 331 random 12;
#X obj 478 59 hsl 128 15 0 24 0 0 empty empty LOFI_1 -2 -8 0 10 -257985
-1 -1 4400 1;
#N canvas 469 186 450 300 HFader 0;
#X obj 10 9 inlet~;
#X obj 64 10 inlet~;
#X obj 0 260 outlet~;
#X obj 54 261 outlet~;
#X obj 32 105 hsl 128 15 0 1 0 0 empty empty MIX -2 -8 0 10 -4034 -1
-1 9200 1;
#X obj 150 78 vline~;
#X msg 161 39 \$1 5;
#X obj 158 114 *~;
#X obj 23 170 *~;
#X obj 67 172 *~;
#X connect 0 0 8 0;
#X connect 1 0 9 0;
#X connect 4 0 6 0;
#X connect 5 0 7 0;
#X connect 5 0 7 1;
#X connect 6 0 5 0;
#X connect 7 0 8 1;
#X connect 7 0 9 1;
#X connect 8 0 2 0;
#X connect 9 0 3 0;
#X coords 0 -1 1 1 150 25 1 25 100;
#X restore 466 439 pd HFader;
#X obj 722 130 bng 15 250 50 0 empty empty empty 17 7 0 10 -262144
-1 -1;
#X obj 713 566 HFader;
#X obj 145 5 tgl 15 0 empty empty empty 17 7 0 10 -262144 -1 -1 1 1
;
#X obj 312 411 hsl 64 15 1 128 0 0 empty empty LOFI_2 -2 -8 0 10 -257985
-1 -1 1600 1;
#X obj 738 602 delaySimple;
#N canvas 469 186 450 300 HFader 0;
#X obj 10 9 inlet~;
#X obj 64 10 inlet~;
#X obj 0 260 outlet~;
#X obj 54 261 outlet~;
#X obj 32 105 hsl 128 15 0 1 0 0 empty empty MIX -2 -8 0 10 -4034 -1
-1 3900 1;
#X obj 199 67 vline~;
#X msg 161 39 \$1 5;
#X obj 208 112 *~;
#X obj 23 170 *~;
#X obj 67 172 *~;
#X connect 0 0 8 0;
#X connect 1 0 9 0;
#X connect 4 0 6 0;
#X connect 5 0 7 0;
#X connect 5 0 7 1;
#X connect 6 0 5 0;
#X connect 7 0 8 1;
#X connect 7 0 9 1;
#X connect 8 0 2 0;
#X connect 9 0 3 0;
#X coords 0 -1 1 1 150 25 1 25 100;
#X restore 344 137 pd HFader;
#X obj 432 108 cpt 6;
#X obj 676 448 HFader;
#X obj 309 357 HFader;
#X obj 316 200 cpt 4;
#X obj 365 434 8bit;
#X obj 389 410 hsl 64 15 1 128 0 0 empty empty LOFI_2 -2 -8 0 10 -257985
-1 -1 1600 1;
#X obj 528 360 hsl 64 15 1 128 0 0 empty empty LOFI_Master -2 -8 0
10 -257985 -1 -1 1600 1;
#X msg 235 8 250;
#X msg 273 8 500;
#X msg 313 10 1000;
#X obj 615 257 bufferoverride;
#X obj 726 333 *~;
#X obj 659 291 HFader;
#X obj 127 396 delaySimple;
#X obj 21 408 delaySimple;
#X obj 716 257 osc~ 10000;
#X msg 493 -7 3;
#X msg 535 -6 2;
#X msg 444 -8 -2;
#X msg 572 -8 5;
#X obj 485 22 f;
#X msg 408 -7 0;
#X msg 194 5 125;
#X obj 996 516 bang_granulaire;
#X obj 996 549 HFader;
#X obj 955 293 hsl 128 15 0 127 0 0 empty empty empty -2 -8 0 4 -262144
-1 -1 6600 1;
#X obj 844 307 bng 15 250 50 0 empty empty empty 17 7 0 10 -262144
-1 -1;
#X obj 850 247 cpt 4;
#X obj 1018 456 * 0.5;
#X msg 839 43 For Information & Help : human.koala@gmail.com;
#X msg 839 67 This patch is under GPL LICENCE;
#X msg 838 90 You are free to use it \, distribute it \, modify it
\, break it;
#X msg 838 5 Song For Sin \, Fm \, Lofi & Grain 4 La Chambre à Air
http://lc2a.eu/;
#X obj 838 117 cnv 20 20 20 empty empty empty 20 12 0 14 -42246 -66577
0;
#X obj 838 137 cnv 20 20 20 empty empty empty 20 12 0 14 -128992 -66577
0;
#X obj 838 157 cnv 20 20 20 empty empty empty 20 12 0 14 -128992 -66577
0;
#X obj 859 137 cnv 20 20 20 empty empty empty 20 12 0 14 -128992 -66577
0;
#X obj 880 117 cnv 20 20 20 empty empty empty 20 12 0 14 -128992 -66577
0;
#X obj 880 137 cnv 20 20 20 empty empty empty 20 12 0 14 -128992 -66577
0;
#X obj 880 157 cnv 20 20 20 empty empty empty 20 12 0 14 -128992 -66577
0;
#X obj 928 117 cnv 20 20 20 empty empty empty 20 12 0 14 -42246 -66577
0;
#X obj 928 137 cnv 20 20 20 empty empty empty 20 12 0 14 -128992 -66577
0;
#X obj 928 157 cnv 20 20 20 empty empty empty 20 12 0 14 -128992 -66577
0;
#X obj 949 137 cnv 20 20 20 empty empty empty 20 12 0 14 -128992 -66577
0;
#X obj 969 117 cnv 20 20 20 empty empty empty 20 12 0 14 -128992 -66577
0;
#X obj 969 157 cnv 20 20 20 empty empty empty 20 12 0 14 -128992 -66577
0;
#X text 837 178 human.koala@gmail.com;
#X connect 2 0 9 0;
#X connect 2 0 40 0;
#X connect 2 0 49 0;
#X connect 2 1 40 1;
#X connect 3 0 4 0;
#X connect 3 0 16 0;
#X connect 3 0 17 0;
#X connect 3 0 6 0;
#X connect 3 0 29 0;
#X connect 3 0 8 1;
#X connect 3 0 39 2;
#X connect 3 1 36 1;
#X connect 3 2 20 0;
#X connect 4 0 2 0;
#X connect 4 0 5 1;
#X connect 5 0 39 0;
#X connect 5 0 49 0;
#X connect 5 1 8 0;
#X connect 5 1 39 1;
#X connect 6 0 5 0;
#X connect 7 0 25 0;
#X connect 7 0 36 0;
#X connect 7 0 25 1;
#X connect 7 1 15 0;
#X connect 7 1 26 0;
#X connect 7 1 40 2;
#X connect 8 0 9 0;
#X connect 8 1 10 0;
#X connect 9 0 19 0;
#X connect 11 0 0 0;
#X connect 11 0 0 1;
#X connect 12 0 9 1;
#X connect 13 0 0 0;
#X connect 14 0 28 0;
#X connect 15 0 21 0;
#X connect 15 0 27 0;
#X connect 15 0 49 0;
#X connect 15 1 21 1;
#X connect 15 1 27 1;
#X connect 15 2 54 0;
#X connect 16 0 15 0;
#X connect 17 0 12 0;
#X connect 18 0 17 1;
#X connect 19 0 11 0;
#X connect 20 0 8 2;
#X connect 20 0 16 1;
#X connect 20 0 26 1;
#X connect 20 0 29 1;
#X connect 20 0 36 2;
#X connect 20 0 47 0;
#X connect 20 0 53 1;
#X connect 21 0 24 0;
#X connect 21 1 24 1;
#X connect 22 0 3 0;
#X connect 22 0 20 0;
#X connect 23 0 13 1;
#X connect 24 0 8 0;
#X connect 24 1 0 0;
#X connect 24 1 0 1;
#X connect 25 0 0 0;
#X connect 25 0 13 0;
#X connect 25 1 0 1;
#X connect 25 1 8 0;
#X connect 26 0 4 0;
#X connect 27 0 0 1;
#X connect 27 1 0 0;
#X connect 28 0 13 0;
#X connect 28 0 30 0;
#X connect 29 0 14 0;
#X connect 29 0 53 0;
#X connect 30 0 0 1;
#X connect 31 0 30 1;
#X connect 32 0 31 0;
#X connect 32 0 23 0;
#X connect 33 0 3 1;
#X connect 34 0 3 1;
#X connect 35 0 3 1;
#X connect 36 0 38 0;
#X connect 37 0 13 0;
#X connect 37 0 24 1;
#X connect 37 0 24 0;
#X connect 38 0 37 0;
#X connect 38 1 37 1;
#X connect 39 0 0 0;
#X connect 39 0 13 0;
#X connect 39 1 0 1;
#X connect 40 0 0 0;
#X connect 40 1 0 1;
#X connect 41 0 38 1;
#X connect 42 0 46 0;
#X connect 43 0 46 0;
#X connect 44 0 46 0;
#X connect 45 0 46 0;
#X connect 46 0 4 1;
#X connect 46 0 6 1;
#X connect 46 0 15 1;
#X connect 47 0 46 0;
#X connect 48 0 3 1;
#X connect 49 0 50 0;
#X connect 49 1 50 1;
#X connect 50 0 0 0;
#X connect 50 1 0 1;
#X connect 51 0 49 2;
#X connect 53 0 52 0;
#X connect 53 0 49 1;
#X connect 54 0 49 3;
