#N canvas 328 51 725 590 10;
#X obj 541 282 f;
#X obj 578 282 + 1;
#X msg 614 249 0;
#X obj 541 252 until;
#X obj 538 214 t b b;
#X obj 541 314 t f f;
#X obj 34 294 +~ 1;
#X obj 34 322 /~ 2;
#X obj 34 350 *~ 128;
#X obj 616 215 sel 127;
#X obj 34 252 inlet~;
#X obj 34 431 outlet~;
#X obj 524 391 i;
#X obj 524 440 / 128;
#X obj 525 126 bng 15 250 50 0 empty empty empty 0 -6 0 8 -262144 -1
-1;
#X obj 467 46 loadbang;
#X obj 489 450 - 0.5;
#X obj 489 477 * 2;
#X obj 105 254 inlet;
#X obj 104 291 t b f f;
#X obj 524 366 / \$1;
#X obj 524 414 * \$1;
#X obj 223 436 table \$0-lesignal 128;
#X obj 470 503 tabwrite \$0-lesignal;
#X obj 34 374 tabread4~ \$0-lesignal;
#X connect 0 0 1 0;
#X connect 0 0 5 0;
#X connect 0 0 9 0;
#X connect 1 0 0 1;
#X connect 2 0 0 1;
#X connect 3 0 0 0;
#X connect 4 0 3 0;
#X connect 4 1 2 0;
#X connect 5 0 20 0;
#X connect 5 1 23 1;
#X connect 6 0 7 0;
#X connect 7 0 8 0;
#X connect 8 0 24 0;
#X connect 9 0 3 1;
#X connect 10 0 6 0;
#X connect 12 0 21 0;
#X connect 13 0 16 0;
#X connect 14 0 4 0;
#X connect 15 0 14 0;
#X connect 16 0 17 0;
#X connect 17 0 23 0;
#X connect 18 0 19 0;
#X connect 19 0 4 0;
#X connect 19 1 21 1;
#X connect 19 2 20 1;
#X connect 20 0 12 0;
#X connect 21 0 13 0;
#X connect 24 0 11 0;
