#N canvas 472 46 793 662 24;
#X msg 363 56 bang;
#X msg 464 148 1 \, 0 125;
#X obj 465 189 vline~;
#X obj 466 229 *~;
#X obj 374 292 *~;
#X obj 361 406 dac~;
#X obj 517 472 delwrite~ \$0-echo 441000;
#X obj 214 294 vd~ \$0-echo;
#X msg 194 168 1000;
#X obj 190 216 sig~;
#X msg 251 171 250;
#X obj 30 256 vline~;
#X msg 41 185 \$1 50;
#X obj 58 62 random 10;
#X obj 57 102 / 10;
#X msg 72 11 bang;
#X obj 466 58 metro 500;
#X obj 511 8 tgl 15 0 empty empty empty 17 7 0 10 -262144 -1 -1 1 1
;
#X obj 58 140 * 20000;
#X obj 117 178 print;
#X obj 229 -8 vsl 15 128 0 2000 0 0 empty empty empty 0 -9 0 10 -262144
-1 -1 4400 1;
#X obj 568 428 moog~;
#X obj 568 372 sig~ 2;
#X obj 327 144 phasor~ 50;
#X obj 310 340 /~ 1.1;
#X obj 537 341 sig~ 4000;
#X connect 0 0 1 0;
#X connect 1 0 2 0;
#X connect 2 0 3 0;
#X connect 2 0 3 1;
#X connect 3 0 4 1;
#X connect 4 0 5 0;
#X connect 4 0 5 1;
#X connect 4 0 6 0;
#X connect 7 0 24 0;
#X connect 8 0 9 0;
#X connect 10 0 9 0;
#X connect 11 0 7 0;
#X connect 12 0 11 0;
#X connect 13 0 14 0;
#X connect 14 0 18 0;
#X connect 15 0 13 0;
#X connect 16 0 1 0;
#X connect 17 0 16 0;
#X connect 18 0 12 0;
#X connect 18 0 19 0;
#X connect 20 0 12 0;
#X connect 21 0 6 0;
#X connect 22 0 21 2;
#X connect 23 0 4 0;
#X connect 24 0 5 0;
#X connect 24 0 5 1;
#X connect 24 0 21 0;
#X connect 25 0 21 1;
