#N canvas 418 22 1094 575 10;
#X obj -8 72 hip~;
#X obj -8 106 lop~;
#X obj -8 43 hip~;
#X obj -8 132 lop~;
#X obj 108 115 hsl 64 15 1 22000 1 0 empty empty empty -2 -8 0 10 -262144
-1 -1 0 1;
#X obj 108 140 hsl 64 15 22000 1 1 0 empty empty empty -2 -8 0 10 -262144
-1 -1 0 1;
#X obj -8 15 inlet~;
#X obj -8 159 outlet~;
#X obj 296 17 loadbang;
#X msg 296 42 1;
#X msg 333 43 22000;
#X obj 432 129 phasor~ 55;
#X obj 432 164 /~ 2;
#X obj 432 211 lop~;
#X msg 609 19 22000;
#X msg 546 17 3000;
#X msg 468 18 1000;
#X obj 518 459 dac~;
#X obj 426 244 lop~;
#X obj 414 275 lop~;
#X obj 406 308 lop~;
#X msg 663 18 90;
#X obj 570 199 phasor~ 55;
#X obj 61 511 dac~;
#X obj 296 226 hip~;
#X obj 304 248 hip~;
#X obj 292 279 hip~;
#X obj 284 312 hip~;
#X obj 570 234 /~ 8;
#X obj 372 61 vsl 15 128 0 8000 0 0 empty empty empty 0 -9 0 10 -262144
-1 -1 10700 1;
#X obj 541 349 bp~ 4000 10;
#X obj 632 350 bp~ 4000 10;
#X obj 721 349 bp~ 4000 10;
#X obj 655 284 * 1.2;
#X obj 739 222 line;
#X msg 714 157 \$1 250;
#X obj 724 126 mtof;
#X obj 723 12 random 64;
#X obj 718 50 + 32;
#X obj 725 -19 metro 500;
#X obj 734 -44 tgl 15 0 empty empty empty 17 7 0 10 -262144 -1 -1 0
1;
#X obj 715 284 * 1.75;
#X obj 760 284 * 2.8;
#X obj 67 420 moog~;
#X obj 111 261 random 64;
#X obj 114 284 + 32;
#X obj 111 306 mtof;
#X msg 104 333 \$1 500;
#X obj 103 362 vline~;
#X msg 121 216 bang;
#X obj 149 389 sig~ 4;
#X obj 294 150 phasor~ 55;
#X obj 294 185 /~ 8;
#X obj 368 466 print;
#X msg 361 425 \$1 \$2-toto \$3;
#X obj 359 397 pack f f f;
#X floatatom 458 323 5 0 0 0 - - -;
#X floatatom 365 320 5 0 0 0 - - -;
#X floatatom 320 319 5 0 0 0 - - -;
#X obj 447 368 t b f;
#X obj 398 362 t b f;
#X obj -243 95 scope~ 130 130 256 3 128 -1 1 0 0 0 0 102 255 51 135
135 135 0;
#X obj -75 259 phasor~ 20;
#X obj -31 455 scope~ 130 130 256 3 128 -1 1 0 0 0 0 102 255 51 135
135 135 0;
#X obj -18 294 -~ 0.5;
#X obj 12 324 *~ 2;
#X obj -144 346 scope~ 130 130 256 3 128 -1 1 0 0 0 0 102 255 51 135
135 135 0;
#N canvas 261 109 450 300 souspatch 1;
#X obj 168 148 moog~;
#X obj 67 27 inlet~ audio;
#X obj 169 27 inlet~ freq;
#X obj 260 26 inlet~ reso;
#X obj 183 237 outlet~;
#X connect 0 0 4 0;
#X connect 1 0 0 0;
#X connect 2 0 0 1;
#X connect 3 0 0 2;
#X restore -172 47 pd souspatch;
#X msg 166 331 0;
#X msg 207 334 1;
#X msg 237 336 4;
#X connect 0 0 1 0;
#X connect 1 0 3 0;
#X connect 2 0 0 0;
#X connect 3 0 7 0;
#X connect 4 0 2 1;
#X connect 4 0 0 1;
#X connect 5 0 1 1;
#X connect 5 0 3 1;
#X connect 6 0 2 0;
#X connect 8 0 9 0;
#X connect 8 0 10 0;
#X connect 9 0 4 0;
#X connect 10 0 5 0;
#X connect 11 0 12 0;
#X connect 12 0 13 0;
#X connect 13 0 18 0;
#X connect 14 0 13 1;
#X connect 15 0 13 1;
#X connect 16 0 13 1;
#X connect 18 0 19 0;
#X connect 19 0 20 0;
#X connect 21 0 13 1;
#X connect 21 0 18 1;
#X connect 21 0 19 1;
#X connect 21 0 20 1;
#X connect 22 0 28 0;
#X connect 24 0 25 0;
#X connect 25 0 26 0;
#X connect 26 0 27 0;
#X connect 28 0 30 0;
#X connect 28 0 31 0;
#X connect 28 0 32 0;
#X connect 29 0 24 1;
#X connect 29 0 25 1;
#X connect 29 0 26 1;
#X connect 29 0 27 1;
#X connect 33 0 30 1;
#X connect 34 0 33 0;
#X connect 34 0 41 0;
#X connect 34 0 42 0;
#X connect 35 0 34 0;
#X connect 36 0 35 0;
#X connect 37 0 38 0;
#X connect 38 0 36 0;
#X connect 39 0 37 0;
#X connect 40 0 39 0;
#X connect 41 0 31 1;
#X connect 42 0 32 1;
#X connect 43 0 63 0;
#X connect 44 0 45 0;
#X connect 45 0 46 0;
#X connect 46 0 47 0;
#X connect 47 0 48 0;
#X connect 48 0 43 1;
#X connect 49 0 44 0;
#X connect 50 0 43 2;
#X connect 51 0 52 0;
#X connect 52 0 24 0;
#X connect 54 0 53 0;
#X connect 55 0 54 0;
#X connect 56 0 59 0;
#X connect 57 0 60 0;
#X connect 58 0 55 0;
#X connect 59 0 55 0;
#X connect 59 1 55 2;
#X connect 60 0 55 0;
#X connect 60 1 55 1;
#X connect 62 0 43 0;
#X connect 62 0 64 0;
#X connect 62 0 61 0;
#X connect 64 0 65 0;
#X connect 65 0 66 0;
#X connect 68 0 50 0;
#X connect 69 0 50 0;
#X connect 70 0 50 0;
#X coords 0 -1 1 1 85 60 1 100 100;
