#N canvas -84 44 1264 746 12;
#X obj 735 668 tabplay~ thetab;
#X obj 1106 77 table thetab;
#X obj 1025 77 openpanel;
#X obj 1025 135 soundfiler;
#X msg 1025 105 read -resize \$1 thetab;
#X msg 1024 10 bang;
#X obj 1025 166 f;
#X obj 1025 197 / 44.1;
#X obj 343 136 metro;
#X msg 343 68 bang;
#X obj 343 165 s bgmetro;
#X obj 737 592 *;
#X obj 692 747 dac~;
#X obj 810 479 f;
#X obj 851 479 + 1;
#X obj 662 107 r bgmetro;
#X msg 568 44 0;
#X obj 662 142 random 100;
#X obj 780 231 bang;
#X obj 662 203 bang;
#X obj 435 614 f;
#X obj 1024 289 s timing;
#X obj 975 198 / 16;
#X obj 737 559 % 16;
#X obj 1025 261 / 4;
#X obj 641 478 random 16;
#X obj 721 225 bang;
#X obj 434 523 spigot;
#X obj 477 500 tgl 15 0 empty empty empty 0 -6 0 8 -262144 -1 -1 1
1;
#X msg 482 469 1;
#X msg 514 469 0;
#X obj 434 468 metro;
#X obj 810 512 spigot;
#X msg 858 450 0;
#X msg 892 450 1;
#X msg 665 448 0;
#X msg 699 448 1;
#X obj 642 507 spigot;
#X obj 470 427 / 4;
#X obj 343 110 t b b;
#X obj 663 170 moses 25;
#X obj 721 195 moses 100;
#X obj 1025 223 / 32;
#X connect 0 0 12 1;
#X connect 0 0 12 0;
#X connect 2 0 4 0;
#X connect 3 0 6 0;
#X connect 4 0 3 0;
#X connect 5 0 2 0;
#X connect 5 0 16 0;
#X connect 6 0 7 0;
#X connect 6 0 22 0;
#X connect 7 0 42 0;
#X connect 8 0 10 0;
#X connect 9 0 39 0;
#X connect 11 0 20 1;
#X connect 11 0 0 0;
#X connect 13 0 14 0;
#X connect 13 0 32 0;
#X connect 14 0 13 1;
#X connect 15 0 17 0;
#X connect 16 0 8 0;
#X connect 16 0 13 1;
#X connect 16 0 31 0;
#X connect 17 0 40 0;
#X connect 18 0 30 0;
#X connect 18 0 34 0;
#X connect 18 0 35 0;
#X connect 18 0 13 0;
#X connect 19 0 29 0;
#X connect 19 0 35 0;
#X connect 20 0 0 0;
#X connect 22 0 11 1;
#X connect 23 0 11 0;
#X connect 24 0 21 0;
#X connect 25 0 37 0;
#X connect 26 0 25 0;
#X connect 26 0 33 0;
#X connect 26 0 36 0;
#X connect 26 0 30 0;
#X connect 27 0 20 0;
#X connect 28 0 27 1;
#X connect 29 0 28 0;
#X connect 30 0 28 0;
#X connect 31 0 27 0;
#X connect 32 0 23 0;
#X connect 33 0 32 1;
#X connect 34 0 32 1;
#X connect 35 0 37 1;
#X connect 36 0 37 1;
#X connect 37 0 23 0;
#X connect 38 0 31 1;
#X connect 39 0 8 0;
#X connect 39 1 31 0;
#X connect 40 0 19 0;
#X connect 40 1 41 0;
#X connect 41 0 26 0;
#X connect 41 1 18 0;
#X connect 42 0 8 1;
#X connect 42 0 24 0;
#X connect 42 0 38 0;
