#N canvas 5 0 1012 718 10;
#X obj 78 -61 bng 15 250 50 0 loadfile loadfile LoadFile 0 -6 0 8 -241291
-1 -1;
#X obj 145 -61 bng 15 250 50 0 reinit reinit reinit 0 -6 0 8 -241291
-1 -1;
#X obj 78 -24 tgl 15 0 goseq goseq Randomize 0 -6 0 16 -241291 -1 -1
1 1;
#N canvas 0 0 610 460 sequenceur 0;
#X obj 187 -16 / 16;
#X obj 162 10 metro;
#X obj 256 140 + 1;
#X msg 221 105 bang;
#X obj 187 -38 r smparraytime;
#X obj 140 -38 r goseq;
#X obj 162 57 moses 85;
#X obj 217 8 r rndproba;
#X obj 162 32 random 100;
#X obj 221 142 f 0;
#X obj 221 176 % 16;
#X obj 219 210 / 16;
#X obj 217 243 s stpseq;
#X obj 151 141 random 16;
#X msg 151 109 bang;
#X floatatom 133 216 5 0 0 0 - - -;
#X connect 0 0 1 1;
#X connect 1 0 8 0;
#X connect 2 0 9 1;
#X connect 3 0 9 0;
#X connect 4 0 0 0;
#X connect 5 0 1 0;
#X connect 6 0 14 0;
#X connect 6 1 3 0;
#X connect 7 0 6 1;
#X connect 8 0 6 0;
#X connect 9 0 2 0;
#X connect 9 0 10 0;
#X connect 10 0 11 0;
#X connect 10 0 15 0;
#X connect 11 0 12 0;
#X connect 13 0 11 0;
#X connect 14 0 13 0;
#X restore 477 -58 pd sequenceur;
#X obj 207 -60 nbx 5 14 -4 4 0 0 speedphz speedphz Speed 0 -6 0 10
-241291 -1 -1 1 256;
#N canvas 0 0 635 619 playsmp 0;
#X obj 33 78 phasor~ 1;
#X obj 32 207 tabread4~ smp;
#X obj 45 100 r smparraysize;
#X obj 32 123 *~;
#X obj 63 33 r smparrayphz;
#X obj 33 54 *;
#X obj 33 14 r speedphz;
#X obj 82 54 r stpseq;
#X obj 33 252 *~;
#X msg 197 228 1;
#X msg 244 229 0;
#X obj 247 204 delay;
#X obj 263 55 r smparraytime;
#X obj 263 154 /;
#X obj 297 83 r speedphz;
#X msg 180 175 bang;
#X obj 200 306 line~;
#X obj 297 109 abs;
#X obj 299 170 / 8;
#X obj 296 133 * 2;
#X msg 181 80 bang;
#X obj 33 279 hip~ 5;
#X obj 208 260 pack 20 5;
#X obj 300 194 - 5;
#X obj 32 321 outlet~;
#X connect 0 0 3 0;
#X connect 1 0 8 0;
#X connect 2 0 3 1;
#X connect 3 0 1 0;
#X connect 4 0 5 1;
#X connect 5 0 0 0;
#X connect 6 0 5 0;
#X connect 7 0 0 1;
#X connect 7 0 15 0;
#X connect 8 0 21 0;
#X connect 9 0 22 0;
#X connect 10 0 22 0;
#X connect 11 0 10 0;
#X connect 12 0 13 0;
#X connect 13 0 18 0;
#X connect 14 0 17 0;
#X connect 15 0 11 0;
#X connect 15 0 9 0;
#X connect 16 0 8 1;
#X connect 17 0 19 0;
#X connect 18 0 23 0;
#X connect 19 0 13 1;
#X connect 19 0 20 0;
#X connect 20 0 13 0;
#X connect 21 0 24 0;
#X connect 22 0 16 0;
#X connect 23 0 11 1;
#X restore 14 104 pd playsmp;
#N canvas 0 0 271 223 loadSmp 0;
#X obj 19 -5 openpanel;
#X obj 19 46 soundfiler;
#X obj 115 73 table smp;
#X msg 19 21 read -resize \$1 smp;
#N canvas 0 0 466 316 sendsmpinfo 0;
#X obj 155 85 f;
#X obj 271 124 / 44.1;
#X obj 155 156 s smparraysize;
#X obj 271 152 s smparraytime;
#X obj 59 155 s smparrayphz;
#X obj 58 126 size2phaz;
#X obj 155 13 inlet;
#X obj 235 12 inlet;
#X msg 233 37 bang;
#X connect 0 0 2 0;
#X connect 0 0 5 0;
#X connect 0 0 1 0;
#X connect 1 0 3 0;
#X connect 5 0 4 0;
#X connect 6 0 0 0;
#X connect 7 0 8 0;
#X connect 8 0 0 0;
#X restore 19 73 pd sendsmpinfo;
#X obj 98 48 r reinit;
#X obj 19 -31 r loadfile;
#X msg 99 113 \; speedphz 1 \; goseq 1 \; rndproba 0 \;;
#X connect 0 0 3 0;
#X connect 1 0 4 0;
#X connect 3 0 1 0;
#X connect 5 0 4 1;
#X connect 5 0 7 0;
#X connect 6 0 0 0;
#X connect 6 0 7 0;
#X restore 573 -57 pd loadSmp;
#X obj 405 -55 loadbang;
#X obj 212 -20 nbx 3 14 0 100 0 0 rndproba rndproba RandProba 0 -8
0 16 -241291 -1 -1 0 256;
#X msg 405 -28 \; speedphz 1 \; rndproba 0 \; reinit bang \;;
#N canvas 0 0 474 324 fxseq 0;
#X obj 187 -16 / 16;
#X obj 162 10 metro;
#X obj 197 41 + 1;
#X obj 187 -38 r smparraytime;
#X obj 140 -38 r goseq;
#X obj 162 43 f 0;
#X obj 162 77 % 16;
#X obj 162 117 outlet;
#X connect 0 0 1 1;
#X connect 1 0 5 0;
#X connect 2 0 5 1;
#X connect 3 0 0 0;
#X connect 4 0 1 0;
#X connect 5 0 2 0;
#X connect 5 0 6 0;
#X connect 6 0 7 0;
#X restore 646 -3 pd fxseq;
#N canvas 0 0 466 316 crssfd 0;
#X obj 61 26 inlet~;
#X obj 116 26 inlet~;
#X obj 170 28 inlet;
#X obj 65 79 *~;
#X obj 170 57 expr 1-$f1;
#X obj 100 79 *~;
#X obj 82 133 +~;
#X obj 83 165 outlet~;
#X connect 0 0 3 0;
#X connect 1 0 5 0;
#X connect 2 0 3 1;
#X connect 2 0 4 0;
#X connect 3 0 6 0;
#X connect 4 0 5 1;
#X connect 5 0 6 1;
#X connect 6 0 7 0;
#X restore 646 -26 pd crssfd;
#N canvas 0 0 462 312 fxverb 0;
#X obj 76 25 inlet~;
#X obj 77 158 outlet~;
#X obj 77 79 multiverb~ 1;
#X msg 133 45 1;
#X msg 162 44 0;
#X obj 134 6 loadbang;
#X msg 90 47 0.05;
#X connect 0 0 2 0;
#X connect 2 0 1 0;
#X connect 3 0 2 4;
#X connect 4 0 2 5;
#X connect 5 0 6 0;
#X connect 5 0 3 0;
#X connect 5 0 4 0;
#X connect 6 0 2 1;
#X restore 648 -55 pd fxverb;
#X obj 15 226 dac~;
#X obj 15 141 /~ 2;
#X obj 35 141 /~ 2;
#X obj 113 39 vsl 15 128 -4 4 0 0 empty empty speed 0 -8 0 8 -262144
-1 -1 0 1;
#X obj 113 181 pack 1 250;
#X obj 113 231 s speedphz;
#X obj 113 206 line;
#X connect 5 0 14 0;
#X connect 5 0 15 0;
#X connect 7 0 9 0;
#X connect 14 0 13 0;
#X connect 15 0 13 1;
#X connect 16 0 17 0;
#X connect 17 0 19 0;
#X connect 19 0 18 0;
