#N canvas 121 34 1012 718 10;
#X obj 78 -61 bng 15 250 50 0 loadfile loadfile LoadFile 0 -6 0 8 -241291
-1 -1;
#X obj 145 -61 bng 15 250 50 0 reinit reinit reinit 0 -6 0 8 -241291
-1 -1;
#X obj 78 -24 tgl 15 0 goseq goseq Randomize 0 -6 0 16 -241291 -1 -1
1 1;
#N canvas 0 0 606 456 sequenceur 0;
#X obj 187 -16 / 16;
#X obj 162 10 metro;
#X obj 256 140 + 1;
#X msg 221 105 bang;
#X obj 187 -38 r smparraytime;
#X obj 140 -38 r goseq;
#X obj 162 57 moses 85;
#X obj 217 8 r rndproba;
#X obj 162 32 random 100;
#X obj 221 142 f 0;
#X obj 221 176 % 16;
#X obj 219 210 / 16;
#X obj 217 243 s stpseq;
#X obj 151 141 random 16;
#X msg 151 109 bang;
#X floatatom 133 216 5 0 0 0 - - -;
#X connect 0 0 1 1;
#X connect 1 0 8 0;
#X connect 2 0 9 1;
#X connect 3 0 9 0;
#X connect 4 0 0 0;
#X connect 5 0 1 0;
#X connect 6 0 14 0;
#X connect 6 1 3 0;
#X connect 7 0 6 1;
#X connect 8 0 6 0;
#X connect 9 0 2 0;
#X connect 9 0 10 0;
#X connect 10 0 11 0;
#X connect 10 0 15 0;
#X connect 11 0 12 0;
#X connect 13 0 11 0;
#X connect 14 0 13 0;
#X restore 477 -58 pd sequenceur;
#X obj 207 -60 nbx 5 14 -4 4 0 0 speedphz speedphz Speed 0 -6 0 10
-241291 -1 -1 1.03937 256;
#N canvas 0 0 631 615 playsmp 0;
#X obj 33 78 phasor~ 1;
#X obj 32 207 tabread4~ smp;
#X obj 45 100 r smparraysize;
#X obj 32 123 *~;
#X obj 63 33 r smparrayphz;
#X obj 33 54 *;
#X obj 33 14 r speedphz;
#X obj 82 54 r stpseq;
#X obj 33 252 *~;
#X msg 197 228 1;
#X msg 244 229 0;
#X obj 247 204 delay;
#X obj 263 55 r smparraytime;
#X obj 263 154 /;
#X obj 297 83 r speedphz;
#X msg 180 175 bang;
#X obj 200 306 line~;
#X obj 297 109 abs;
#X obj 299 170 / 8;
#X obj 296 133 * 2;
#X msg 181 80 bang;
#X obj 33 279 hip~ 5;
#X obj 208 260 pack 20 5;
#X obj 300 194 - 5;
#X obj 32 321 outlet~;
#X connect 0 0 3 0;
#X connect 1 0 8 0;
#X connect 2 0 3 1;
#X connect 3 0 1 0;
#X connect 4 0 5 1;
#X connect 5 0 0 0;
#X connect 6 0 5 0;
#X connect 7 0 0 1;
#X connect 7 0 15 0;
#X connect 8 0 21 0;
#X connect 9 0 22 0;
#X connect 10 0 22 0;
#X connect 11 0 10 0;
#X connect 12 0 13 0;
#X connect 13 0 18 0;
#X connect 14 0 17 0;
#X connect 15 0 11 0;
#X connect 15 0 9 0;
#X connect 16 0 8 1;
#X connect 17 0 19 0;
#X connect 18 0 23 0;
#X connect 19 0 13 1;
#X connect 19 0 20 0;
#X connect 20 0 13 0;
#X connect 21 0 24 0;
#X connect 22 0 16 0;
#X connect 23 0 11 1;
#X restore 20 37 pd playsmp;
#N canvas 0 0 267 219 loadSmp 0;
#X obj 19 -5 openpanel;
#X obj 19 46 soundfiler;
#X obj 115 73 table smp;
#X msg 19 21 read -resize \$1 smp;
#N canvas 0 0 466 316 sendsmpinfo 0;
#X obj 155 85 f;
#X obj 271 124 / 44.1;
#X obj 155 156 s smparraysize;
#X obj 271 152 s smparraytime;
#X obj 59 155 s smparrayphz;
#X obj 58 126 size2phaz;
#X obj 155 13 inlet;
#X obj 235 12 inlet;
#X msg 233 37 bang;
#X connect 0 0 2 0;
#X connect 0 0 5 0;
#X connect 0 0 1 0;
#X connect 1 0 3 0;
#X connect 5 0 4 0;
#X connect 6 0 0 0;
#X connect 7 0 8 0;
#X connect 8 0 0 0;
#X restore 19 73 pd sendsmpinfo;
#X obj 98 48 r reinit;
#X obj 19 -31 r loadfile;
#X msg 99 113 \; speedphz 1 \; goseq 1 \; rndproba 0 \;;
#X connect 0 0 3 0;
#X connect 1 0 4 0;
#X connect 3 0 1 0;
#X connect 5 0 4 1;
#X connect 5 0 7 0;
#X connect 6 0 0 0;
#X connect 6 0 7 0;
#X restore 573 -57 pd loadSmp;
#X obj 919 -68 loadbang;
#X obj 212 -20 nbx 3 14 0 100 0 0 rndproba rndproba RandProba 0 -8
0 16 -241291 -1 -1 0 256;
#X msg 905 -40 \; speedphz 1 \; rndproba 0 \; reinit bang \;;
#N canvas 0 0 462 312 fxseq 0;
#X obj 187 -16 / 16;
#X obj 162 10 metro;
#X obj 197 41 + 1;
#X obj 187 -38 r smparraytime;
#X obj 140 -38 r goseq;
#X obj 162 43 f 0;
#X obj 162 77 % 16;
#X obj 162 117 outlet;
#X connect 0 0 1 1;
#X connect 1 0 5 0;
#X connect 2 0 5 1;
#X connect 3 0 0 0;
#X connect 4 0 1 0;
#X connect 5 0 2 0;
#X connect 5 0 6 0;
#X connect 6 0 7 0;
#X restore 217 29 pd fxseq;
#N canvas 0 0 466 316 crssfd 0;
#X obj 61 26 inlet~;
#X obj 116 26 inlet~;
#X obj 65 79 *~;
#X obj 100 79 *~;
#X obj 82 133 +~;
#X obj 83 165 outlet~;
#X obj 170 28 inlet~;
#X obj 170 57 expr~ 1-$v1;
#X connect 0 0 2 0;
#X connect 1 0 3 0;
#X connect 2 0 4 0;
#X connect 3 0 4 1;
#X connect 4 0 5 0;
#X connect 6 0 2 1;
#X connect 6 0 7 0;
#X connect 7 0 3 1;
#X restore 221 344 pd crssfd;
#N canvas 0 0 462 312 fxverb 0;
#X obj 76 25 inlet~;
#X obj 77 158 outlet~;
#X obj 77 79 multiverb~ 1;
#X obj 134 6 loadbang;
#X msg 90 47 0.025;
#X msg 133 45 0.75;
#X msg 162 44 0.25;
#X connect 0 0 2 0;
#X connect 2 0 1 0;
#X connect 3 0 4 0;
#X connect 3 0 5 0;
#X connect 3 0 6 0;
#X connect 4 0 2 1;
#X connect 5 0 2 4;
#X connect 6 0 2 5;
#X restore 245 312 pd fxverb;
#X obj 217 52 % 2;
#X obj 217 79 clip 0 1;
#N canvas 0 0 498 348 filt 0;
#X obj 157 103 inlet~;
#X obj 208 66 inlet;
#X obj 158 192 outlet~;
#X obj 221 122 osc~;
#X obj 148 152 *~;
#X obj 223 91 * 4410;
#X connect 0 0 4 0;
#X connect 1 0 5 0;
#X connect 3 0 4 1;
#X connect 4 0 2 0;
#X connect 5 0 3 0;
#X restore 83 302 pd filt;
#N canvas 0 0 458 308 delaysteeo 0;
#X obj 136 46 inlet~;
#X obj 228 44 inlet;
#X obj 228 70 sig~;
#X obj 226 106 vd~ \$0-d;
#X obj 305 44 inlet;
#X obj 305 70 sig~;
#X obj 303 106 vd~ \$0-d;
#X obj 225 145 outlet~;
#X obj 302 144 outlet~;
#X obj 136 84 delwrite~ \$0-d 1000;
#X connect 0 0 9 0;
#X connect 1 0 2 0;
#X connect 2 0 3 0;
#X connect 3 0 7 0;
#X connect 4 0 5 0;
#X connect 5 0 6 0;
#X connect 6 0 8 0;
#X restore 59 339 pd delaysteeo;
#N canvas 0 0 458 308 mix5050 0;
#X obj 61 32 inlet~;
#X obj 113 32 inlet~;
#X obj 73 101 +~;
#X obj 70 128 outlet~;
#X obj 60 64 /~ 4;
#X obj 112 67 /~ 4;
#X connect 0 0 4 0;
#X connect 1 0 5 0;
#X connect 2 0 3 0;
#X connect 4 0 2 0;
#X connect 5 0 2 1;
#X restore 759 399 pd mix5050;
#N canvas 0 0 458 308 crssfd 0;
#X obj 61 26 inlet~;
#X obj 116 26 inlet~;
#X obj 170 28 inlet;
#X obj 65 79 *~;
#X obj 170 57 expr 1-$f1;
#X obj 100 79 *~;
#X obj 82 133 +~;
#X obj 83 165 outlet~;
#X connect 0 0 3 0;
#X connect 1 0 5 0;
#X connect 2 0 3 1;
#X connect 2 0 4 0;
#X connect 3 0 6 0;
#X connect 4 0 5 1;
#X connect 5 0 6 1;
#X connect 6 0 7 0;
#X restore 751 490 pd crssfd;
#N canvas 0 0 458 308 fxverb 0;
#X obj 76 25 inlet~;
#X obj 77 158 outlet~;
#X obj 77 79 multiverb~ 1;
#X msg 133 45 1;
#X msg 162 44 0;
#X obj 134 6 loadbang;
#X msg 90 47 0.05;
#X connect 0 0 2 0;
#X connect 2 0 1 0;
#X connect 3 0 2 4;
#X connect 4 0 2 5;
#X connect 5 0 6 0;
#X connect 5 0 3 0;
#X connect 5 0 4 0;
#X connect 6 0 2 1;
#X restore 753 461 pd fxverb;
#N canvas 0 0 462 312 fxseq 0;
#X obj 187 -16 / 16;
#X obj 162 10 metro;
#X obj 197 41 + 1;
#X obj 187 -38 r smparraytime;
#X obj 140 -38 r goseq;
#X obj 162 43 f 0;
#X obj 162 77 % 16;
#X obj 162 117 outlet;
#X connect 0 0 1 1;
#X connect 1 0 5 0;
#X connect 2 0 5 1;
#X connect 3 0 0 0;
#X connect 4 0 1 0;
#X connect 5 0 2 0;
#X connect 5 0 6 0;
#X connect 6 0 7 0;
#X restore 464 -7 pd fxseq;
#X obj 217 127 line~;
#X obj 272 22 r smparraytime;
#X obj 217 102 pack 1 250;
#X obj 144 133 line;
#X obj 126 57 unpack f f;
#X obj 131 104 pack f f;
#X obj 272 59 / 16;
#X obj 178 607 dac~;
#X obj 464 19 / 32;
#X obj 15 226 dac~;
#N canvas 0 0 458 308 mix5050 0;
#X obj 61 32 inlet~;
#X obj 113 32 inlet~;
#X obj 73 101 +~;
#X obj 70 128 outlet~;
#X obj 60 64 /~ 4;
#X obj 112 67 /~ 4;
#X connect 0 0 4 0;
#X connect 1 0 5 0;
#X connect 2 0 3 0;
#X connect 4 0 2 0;
#X connect 5 0 2 1;
#X restore 76 377 pd mix5050;
#X obj 464 53 *;
#N canvas 0 0 502 352 filt 0;
#X obj 157 103 inlet~;
#X obj 208 66 inlet;
#X obj 158 192 outlet~;
#X obj 221 122 osc~;
#X obj 148 152 *~;
#X obj 223 91 * 441;
#X connect 0 0 4 0;
#X connect 1 0 5 0;
#X connect 3 0 4 1;
#X connect 4 0 2 0;
#X connect 5 0 3 0;
#X restore 103 407 pd filt;
#X obj 192 707 dac~;
#X obj 164 643 /~ 4;
#X obj 207 646 /~ 4;
#X obj 150 543 /~ 8;
#X obj 199 546 /~ 8;
#X obj 10 136 /~ 2;
#X obj 48 136 /~ 2;
#X obj 573 198 vsl 15 128 -4 4 0 0 empty empty speed 0 -8 0 8 -262144
-1 -1 8000 1;
#X obj 576 387 pack 1 250;
#X obj 570 455 s speedphz;
#X obj 576 412 line;
#X connect 5 0 12 0;
#X connect 5 0 15 0;
#X connect 5 0 39 0;
#X connect 5 0 40 0;
#X connect 7 0 9 0;
#X connect 10 0 13 0;
#X connect 11 0 37 0;
#X connect 11 0 38 0;
#X connect 12 0 11 1;
#X connect 13 0 14 0;
#X connect 14 0 23 0;
#X connect 14 0 25 0;
#X connect 15 0 16 0;
#X connect 16 0 31 0;
#X connect 16 0 35 0;
#X connect 16 1 31 1;
#X connect 16 1 36 0;
#X connect 20 0 29 0;
#X connect 21 0 11 2;
#X connect 22 0 27 0;
#X connect 22 0 32 1;
#X connect 23 0 21 0;
#X connect 24 0 15 1;
#X connect 24 0 33 1;
#X connect 25 1 26 1;
#X connect 26 0 24 0;
#X connect 27 0 23 1;
#X connect 27 0 16 1;
#X connect 29 0 26 0;
#X connect 29 0 32 0;
#X connect 31 0 33 0;
#X connect 32 0 16 2;
#X connect 33 0 11 0;
#X connect 35 0 34 0;
#X connect 36 0 34 1;
#X connect 37 0 28 0;
#X connect 38 0 28 1;
#X connect 39 0 30 0;
#X connect 40 0 30 1;
#X connect 41 0 42 0;
#X connect 42 0 44 0;
#X connect 44 0 43 0;
