#N canvas 0 22 1010 584 10;
#X obj 297 111 step_seq;
#X obj 178 38 bng 15 250 50 0 empty empty empty 17 7 0 10 -262144 -1
-1;
#X obj 434 329 vline~;
#X obj 370 306 osc~ 440;
#X msg 433 306 0.25 \, 0 125;
#X obj 406 378 *~;
#X obj 527 491 dac~;
#X obj 575 173 nbx 5 14 -1e+37 1e+37 0 0 empty empty empty 0 -8 0 10
-262144 -1 -1 184 256;
#X obj 201 110 step_seq;
#X obj 397 110 step_seq;
#X obj 499 110 step_seq;
#X msg 415 268 0.25;
#X obj 569 230 vline~;
#X msg 568 207 \$1 125;
#X connect 0 0 9 0;
#X connect 0 1 4 0;
#X connect 0 2 7 0;
#X connect 1 0 8 0;
#X connect 2 0 5 1;
#X connect 3 0 5 0;
#X connect 4 0 2 0;
#X connect 4 0 11 0;
#X connect 5 0 6 0;
#X connect 5 0 6 1;
#X connect 7 0 13 0;
#X connect 8 0 0 0;
#X connect 8 1 4 0;
#X connect 8 2 7 0;
#X connect 9 0 10 0;
#X connect 9 1 4 0;
#X connect 9 2 7 0;
#X connect 10 0 8 0;
#X connect 10 1 4 0;
#X connect 10 2 7 0;
#X connect 11 0 3 1;
#X connect 12 0 3 0;
#X connect 13 0 12 0;
