#N canvas 194 161 859 495 10;
#X obj 24 23 inlet prev_step;
#X obj 24 414 outlet 4_next_step;
#X obj 105 103 tgl 15 0 empty empty empty 17 7 0 10 -258113 -1 -1 0
1;
#X obj 123 104 nbx 5 14 0 1e+37 0 0 empty empty empty 0 -8 0 10 -258113
-1 -1 643 256;
#X obj 24 224 del;
#X obj 124 22 loadbang;
#X obj 105 123 bng 15 250 50 0 empty empty empty 17 7 0 10 -258113
-1 -1;
#X obj 154 413 outlet bang;
#X msg 124 79 250;
#X obj 155 387 spigot;
#X obj 123 124 nbx 5 14 -1e+37 1e+37 0 0 empty empty empty 0 -8 0 10
-4034 -1 -1 86 256;
#X msg 155 80 0;
#X obj 255 379 bang;
#X obj 247 415 outlet value;
#X obj 24 249 t b b b;
#X connect 0 0 4 0;
#X connect 2 0 9 1;
#X connect 3 0 4 1;
#X connect 4 0 6 0;
#X connect 4 0 14 0;
#X connect 5 0 8 0;
#X connect 5 0 11 0;
#X connect 5 0 2 0;
#X connect 8 0 3 0;
#X connect 9 0 7 0;
#X connect 10 0 13 0;
#X connect 11 0 10 0;
#X connect 12 0 10 0;
#X connect 14 0 1 0;
#X connect 14 1 9 0;
#X connect 14 2 12 0;
#X coords 0 -1 1 1 85 40 2 100 100;
