#N canvas 242 63 903 575 16;
#X obj 28 282 osc~;
#X obj 303 207 noise~;
#X obj 30 126 vline~;
#X obj 28 315 *~;
#X obj 33 155 *~;
#X obj 314 260 *~;
#X obj 9 359 dac~;
#X msg 289 24 bang;
#X obj 161 61 t b b;
#X msg 219 126 0.25;
#X obj 102 127 vline~;
#X obj 351 207 vline~;
#X obj 376 242 *~;
#X msg 35 92 1 \, 0 100;
#X msg 356 174 0.125 \, 0 25;
#X msg 107 93 1 \, 0 250;
#X obj 39 189 +~ 0.145;
#X obj 26 246 *~ 250;
#X obj 425 380 osc~;
#X obj 424 325 vline~;
#X obj 568 319 vline~;
#X obj 427 442 *~;
#X msg 562 167 bang;
#X obj 415 504 dac~;
#X msg 597 250 1 \, 0 500;
#X msg 453 256 100 \, 50 300;
#X msg 490 348 0;
#X obj 741 239 noise~;
#X obj 783 309 vline~;
#X obj 742 356 *~;
#X msg 814 240 1 \, 0 55;
#X obj 683 449 *~;
#X connect 0 0 3 0;
#X connect 1 0 5 0;
#X connect 2 0 4 0;
#X connect 2 0 4 1;
#X connect 3 0 6 0;
#X connect 3 0 6 1;
#X connect 4 0 16 0;
#X connect 5 0 6 0;
#X connect 5 0 6 1;
#X connect 7 0 8 0;
#X connect 8 0 13 0;
#X connect 8 0 15 0;
#X connect 8 0 14 0;
#X connect 8 1 9 0;
#X connect 9 0 0 1;
#X connect 10 0 3 1;
#X connect 11 0 12 0;
#X connect 11 0 12 1;
#X connect 12 0 5 1;
#X connect 13 0 2 0;
#X connect 14 0 11 0;
#X connect 15 0 10 0;
#X connect 16 0 17 0;
#X connect 17 0 0 0;
#X connect 18 0 21 0;
#X connect 19 0 18 0;
#X connect 20 0 21 1;
#X connect 21 0 23 0;
#X connect 21 0 23 1;
#X connect 22 0 24 0;
#X connect 22 0 25 0;
#X connect 22 0 26 0;
#X connect 22 0 30 0;
#X connect 24 0 20 0;
#X connect 25 0 19 0;
#X connect 26 0 18 1;
#X connect 27 0 29 0;
#X connect 28 0 29 1;
#X connect 29 0 31 0;
#X connect 29 0 31 1;
#X connect 30 0 28 0;
#X connect 31 0 23 0;
#X connect 31 0 23 1;
