#N canvas 192 159 829 456 10;
#X obj 161 285 osc~;
#X obj 436 210 noise~;
#X obj 163 129 vline~;
#X obj 161 318 *~;
#X obj 166 158 *~;
#X obj 447 263 *~;
#X obj 142 362 dac~;
#X msg 198 48 bang;
#X obj 294 64 t b b;
#X msg 352 129 0.25;
#X obj 235 130 vline~;
#X obj 484 210 vline~;
#X obj 509 245 *~;
#X msg 168 95 1 \, 0 100;
#X msg 489 177 0.125 \, 0 25;
#X msg 240 96 1 \, 0 250;
#X obj 172 192 +~ 0.145;
#X obj 159 249 *~ 250;
#X connect 0 0 3 0;
#X connect 1 0 5 0;
#X connect 2 0 4 0;
#X connect 2 0 4 1;
#X connect 3 0 6 0;
#X connect 3 0 6 1;
#X connect 4 0 16 0;
#X connect 5 0 6 0;
#X connect 5 0 6 1;
#X connect 7 0 8 0;
#X connect 8 0 13 0;
#X connect 8 0 15 0;
#X connect 8 0 14 0;
#X connect 8 1 9 0;
#X connect 9 0 0 1;
#X connect 10 0 3 1;
#X connect 11 0 12 0;
#X connect 11 0 12 1;
#X connect 12 0 5 1;
#X connect 13 0 2 0;
#X connect 14 0 11 0;
#X connect 15 0 10 0;
#X connect 16 0 17 0;
#X connect 17 0 0 0;
