#N canvas 328 51 709 574 10;
#X obj 34 374 tabread4~ lesignal;
#X obj 541 282 f;
#X obj 578 282 + 1;
#X msg 614 249 0;
#X obj 541 252 until;
#X obj 538 214 t b b;
#X obj 470 503 tabwrite lesignal;
#X obj 541 314 t f f;
#X obj 34 294 +~ 1;
#X obj 34 322 /~ 2;
#X obj 34 252 inlet~;
#X obj 34 431 outlet~;
#X obj 524 391 i;
#X obj 467 46 loadbang;
#X obj 489 450 - 0.5;
#X obj 489 477 * 2;
#X obj 524 366 / 2;
#X obj 524 414 * 2;
#X obj 105 254 inlet;
#X obj 104 291 t b f f;
#X obj 223 436 table lesignal 4096;
#X obj 524 440 / 4096;
#X obj 616 215 sel 4095;
#X obj 34 350 *~ 4096;
#X connect 0 0 11 0;
#X connect 1 0 2 0;
#X connect 1 0 7 0;
#X connect 1 0 22 0;
#X connect 2 0 1 1;
#X connect 3 0 1 1;
#X connect 4 0 1 0;
#X connect 5 0 4 0;
#X connect 5 1 3 0;
#X connect 7 0 16 0;
#X connect 7 1 6 1;
#X connect 8 0 9 0;
#X connect 9 0 23 0;
#X connect 10 0 8 0;
#X connect 12 0 17 0;
#X connect 13 0 5 0;
#X connect 14 0 15 0;
#X connect 15 0 6 0;
#X connect 16 0 12 0;
#X connect 17 0 21 0;
#X connect 18 0 19 0;
#X connect 19 0 5 0;
#X connect 19 1 17 1;
#X connect 19 2 16 1;
#X connect 21 0 14 0;
#X connect 22 0 4 1;
#X connect 23 0 0 0;
