#N canvas 213 117 454 300 12;
#X obj 60 34 inlet;
#X obj 133 39 inlet;
#X obj 203 40 inlet;
#X obj 78 128 f;
#X obj 126 130 + 1;
#X obj 78 191 outlet;
#X msg 97 98 0;
#X obj 78 160 % \$1;
#X connect 0 0 3 0;
#X connect 1 0 7 1;
#X connect 2 0 6 0;
#X connect 3 0 4 0;
#X connect 3 0 7 0;
#X connect 4 0 3 1;
#X connect 6 0 3 1;
#X connect 6 0 4 0;
#X connect 7 0 5 0;
