#N canvas 459 219 713 404 12;
#X obj 321 273 simpleFM~;
#X obj 301 299 *~;
#X obj 257 10 inlet;
#X obj 254 111 t b b f;
#X obj 279 162 sig~;
#X obj 388 232 *~ 880;
#X msg 246 72 440;
#X obj 36 34 tgl 15 0 empty empty empty 17 7 0 10 -262144 -1 -1 1 1
;
#X obj 442 145 pow;
#X msg 444 116 2 \$1;
#X obj 441 174 * 88;
#X obj 444 50 f;
#X obj 486 51 + 1;
#X obj 146 221 /~ 16;
#X obj 444 86 % 12;
#X obj 301 348 adac~;
#X obj 202 268 *~ 0;
#X obj 444 22 cpt 8;
#X obj 455 233 / 180224;
#X msg 455 265 1 \$1;
#X obj 455 293 /;
#X obj 455 350 * 1000;
#X obj 455 322 / 512;
#X obj 322 206 sig~ 55;
#X obj 148 164 ad_env~ 0 250;
#X obj 390 203 ad_env~ 25 125;
#X connect 0 0 1 1;
#X connect 1 0 15 0;
#X connect 1 0 15 1;
#X connect 2 0 6 0;
#X connect 2 0 17 0;
#X connect 2 0 25 0;
#X connect 3 0 24 0;
#X connect 3 2 4 0;
#X connect 4 0 0 0;
#X connect 5 0 0 2;
#X connect 6 0 3 0;
#X connect 7 0 16 1;
#X connect 8 0 10 0;
#X connect 9 0 8 0;
#X connect 10 0 5 1;
#X connect 10 0 18 0;
#X connect 11 0 12 0;
#X connect 11 0 14 0;
#X connect 12 0 11 1;
#X connect 13 0 16 0;
#X connect 14 0 9 0;
#X connect 16 0 1 0;
#X connect 17 0 11 0;
#X connect 18 0 19 0;
#X connect 19 0 20 0;
#X connect 20 0 22 0;
#X connect 22 0 21 0;
#X connect 23 0 0 1;
#X connect 24 0 13 0;
#X connect 25 0 5 0;
#X coords 0 -1 1 1 85 60 1 0 0;
