#N canvas 0 37 1268 750 10;
#X obj 468 23 table test;
#X obj 387 24 openpanel;
#X msg 387 50 read -resize \$1 test;
#X obj 387 82 soundfiler;
#X obj 387 -3 bng 15 250 50 0 empty empty empty 0 -6 0 8 -262144 -1
-1;
#X obj 282 183 f;
#X obj 247 209 *;
#X obj 262 50 bng 15 250 50 0 empty empty empty 0 -6 0 8 -262144 -1
-1;
#X obj 247 115 t b b;
#X obj 247 245 s index;
#X obj 337 227 random;
#X obj 337 252 s deltaindex;
#X obj 87 239 s freq;
#X obj 150 242 s deltafreq;
#X obj 261 -7 tgl 15 0 empty empty empty 0 -6 0 8 -262144 -1 -1 1 1
;
#X obj 505 396 catch~ sumleft;
#X obj 628 396 catch~ sumright;
#X obj 560 456 dac~;
#X obj 247 143 random 4;
#X obj 87 178 random 4;
#X obj 535 577 writesf~ 2;
#X msg 558 320 open record.wav;
#X msg 505 320 start;
#X obj 505 284 t b b;
#X obj 505 257 bng 15 250 50 0 empty empty empty 0 -6 0 8 -262144 -1
-1;
#X msg 750 437 stop;
#X obj 87 206 + 2;
#X obj 150 213 random 4;
#X obj 505 233 sel 1;
#X msg 790 437 0;
#X floatatom 142 51 5 0 0 0 - - -;
#X obj 261 23 metro 2000;
#X obj 501 131 / 44.1;
#X msg 122 10 16;
#X msg 158 10 8;
#X msg 383 220 \; test normalize;
#X obj 338 198 t b b f;
#X obj 590 21 osct~ test;
#X obj 764 336 sel 1;
#X msg 188 10 4;
#X obj 600 31 osct~ test;
#X obj 610 41 osct~ test;
#X obj 620 51 osct~ test;
#X obj 764 374 delay 300000;
#X obj 781 522 bng 50 250 50 0 empty empty empty 0 -6 0 8 -262144 -1
-1;
#X obj 387 109 / 8;
#X obj 501 164 / 8;
#X connect 1 0 2 0;
#X connect 2 0 3 0;
#X connect 3 0 32 0;
#X connect 3 0 45 0;
#X connect 4 0 1 0;
#X connect 5 0 6 1;
#X connect 6 0 9 0;
#X connect 7 0 8 0;
#X connect 7 0 10 0;
#X connect 7 0 19 0;
#X connect 7 0 27 0;
#X connect 8 0 18 0;
#X connect 8 1 5 0;
#X connect 10 0 11 0;
#X connect 14 0 28 0;
#X connect 14 0 31 0;
#X connect 14 0 38 0;
#X connect 15 0 17 0;
#X connect 15 0 20 0;
#X connect 16 0 17 1;
#X connect 16 0 20 1;
#X connect 18 0 6 0;
#X connect 19 0 26 0;
#X connect 21 0 20 0;
#X connect 22 0 20 0;
#X connect 23 0 22 0;
#X connect 23 1 21 0;
#X connect 24 0 23 0;
#X connect 25 0 20 0;
#X connect 25 0 44 0;
#X connect 26 0 12 0;
#X connect 27 0 13 0;
#X connect 28 0 24 0;
#X connect 29 0 14 0;
#X connect 30 0 27 1;
#X connect 30 0 18 1;
#X connect 30 0 19 1;
#X connect 30 0 45 1;
#X connect 31 0 7 0;
#X connect 32 0 46 0;
#X connect 33 0 30 0;
#X connect 34 0 30 0;
#X connect 36 0 10 0;
#X connect 36 1 35 0;
#X connect 36 2 10 1;
#X connect 38 0 43 0;
#X connect 39 0 30 0;
#X connect 43 0 25 0;
#X connect 43 0 29 0;
#X connect 45 0 5 1;
#X connect 45 0 36 0;
#X connect 46 0 31 1;
