#N canvas 21 31 1168 750 12;
#X obj 652 167 until;
#X obj 652 194 f;
#X obj 684 195 + 1;
#X msg 705 167 0;
#X obj 652 135 t b b;
#X obj 926 244 until;
#X obj 926 272 f;
#X obj 958 273 + 1;
#X obj 974 180 t b b;
#X obj 974 213 f;
#X obj 1018 213 f;
#X obj 1018 243 +;
#X obj 974 243 -;
#X obj 926 146 t b b;
#X obj 943 298 + 1;
#X text 716 80 de 0 a n-1;
#X obj 671 257 t f f;
#X obj 663 318 spigot;
#X obj 666 416 >;
#X obj 666 469 route 0 1;
#X obj 666 444 pack f f;
#X obj 699 496 bang;
#X obj 699 538 t b b b;
#X obj 755 562 f;
#X obj 724 562 f;
#X obj 724 590 * 2;
#X obj 664 346 t f b f f;
#X obj 685 386 random 6;
#X obj 755 615 s \$0-delta;
#X obj 700 663 s \$0-bang;
#X obj 724 638 s \$0-pos;
#X obj 926 120 r \$0-bang;
#X obj 993 141 r \$0-pos;
#X obj 1037 185 r \$0-delta;
#X obj 945 352 sel;
#X obj 975 493 -;
#X obj 975 521 t f f;
#X obj 975 550 *;
#X msg 975 580 1 \$1;
#X obj 975 605 /;
#X obj 975 631 / 2;
#X obj 975 460 t f f;
#X obj 975 659 tabwrite \$0-seq32;
#X obj 745 167 f \$0;
#X msg 745 191 \; \$1-seq32 const 0;
#X msg 618 57 bang;
#X obj 975 433 spigot;
#X obj 1018 410 random 2;
#X obj 964 382 t f b;
#X obj 472 12 inlet recalculate;
#X obj 245 704 outlet bangseq;
#X obj 376 706 outlet veloseq;
#X obj 332 12 inlet posres2;
#X obj 706 289 tabread \$1;
#X text 11 149 argument abstraction \$1 tabseq \; \$2 tabsize \;;
#X obj 30 354 f \$2;
#X obj 192 223 loadbang;
#X obj 653 229 sel \$2;
#X obj 158 359 f \$0;
#X symbolatom 149 434 10 0 0 0 - - -;
#X obj 158 401 makefilename %d-seq32;
#X msg 16 498 add \$1;
#X obj 30 379 * 2;
#X obj 275 223 table \$0-seq32;
#X msg 180 560 \; 1002-seq32 resize 0 \;;
#X msg 278 501 addsemi;
#X obj 121 277 t b b b b b;
#X msg 94 497 add2 resize;
#X msg 360 501 set;
#X msg 202 500 add2 \$1;
#X obj 332 56 tabread \$0-seq32;
#X obj 331 641 sel 0;
#X obj 340 675 t b f;
#X obj 903 13 inlet arraysize;
#X obj 721 15 inlet arrayname;
#X msg 721 258 set \$1;
#X obj 926 321 sel;
#X obj 95 242 t b b;
#X connect 0 0 1 0;
#X connect 1 0 2 0;
#X connect 1 0 57 0;
#X connect 2 0 1 1;
#X connect 3 0 1 1;
#X connect 4 0 0 0;
#X connect 4 1 3 0;
#X connect 4 1 43 0;
#X connect 5 0 6 0;
#X connect 6 0 7 0;
#X connect 6 0 76 0;
#X connect 7 0 6 1;
#X connect 8 0 9 0;
#X connect 8 1 10 0;
#X connect 9 0 11 0;
#X connect 9 0 12 0;
#X connect 10 0 11 1;
#X connect 10 0 12 1;
#X connect 11 0 14 0;
#X connect 12 0 6 1;
#X connect 13 0 5 0;
#X connect 13 1 8 0;
#X connect 14 0 76 1;
#X connect 16 0 17 0;
#X connect 16 1 53 0;
#X connect 17 0 26 0;
#X connect 18 0 20 0;
#X connect 19 1 21 0;
#X connect 20 0 19 0;
#X connect 21 0 22 0;
#X connect 22 0 29 0;
#X connect 22 1 24 0;
#X connect 22 2 23 0;
#X connect 23 0 28 0;
#X connect 24 0 25 0;
#X connect 25 0 30 0;
#X connect 26 0 18 0;
#X connect 26 1 27 0;
#X connect 26 2 20 1;
#X connect 26 3 24 1;
#X connect 27 0 18 1;
#X connect 27 0 23 1;
#X connect 31 0 13 0;
#X connect 32 0 9 1;
#X connect 32 0 34 1;
#X connect 32 0 35 1;
#X connect 33 0 10 1;
#X connect 34 1 48 0;
#X connect 35 0 36 0;
#X connect 36 0 37 0;
#X connect 36 1 37 1;
#X connect 37 0 38 0;
#X connect 38 0 39 0;
#X connect 39 0 40 0;
#X connect 40 0 42 0;
#X connect 41 0 35 0;
#X connect 41 1 42 1;
#X connect 43 0 44 0;
#X connect 45 0 4 0;
#X connect 46 0 41 0;
#X connect 47 0 46 1;
#X connect 48 0 46 0;
#X connect 48 1 47 0;
#X connect 49 0 45 0;
#X connect 52 0 70 0;
#X connect 53 0 17 1;
#X connect 55 0 62 0;
#X connect 56 0 77 0;
#X connect 57 0 0 1;
#X connect 57 1 16 0;
#X connect 58 0 60 0;
#X connect 59 0 69 0;
#X connect 60 0 59 0;
#X connect 61 0 64 0;
#X connect 62 0 61 0;
#X connect 65 0 64 0;
#X connect 66 0 55 0;
#X connect 66 1 67 0;
#X connect 66 2 58 0;
#X connect 66 3 65 0;
#X connect 66 4 68 0;
#X connect 67 0 64 0;
#X connect 68 0 64 0;
#X connect 69 0 64 0;
#X connect 70 0 71 0;
#X connect 71 1 72 0;
#X connect 72 0 50 0;
#X connect 72 1 51 0;
#X connect 73 0 55 1;
#X connect 73 0 57 1;
#X connect 74 0 75 0;
#X connect 75 0 53 0;
#X connect 76 0 5 1;
#X connect 76 1 34 0;
#X connect 77 0 64 0;
#X connect 77 1 66 0;
