#N canvas 12 50 1268 750 12;
#X floatatom 511 435 5 0 0 2 veloc_bang_out - -;
#X obj 414 434 bng 15 250 50 0 empty empty seq_bang_out 0 -6 0 8 -262144
-1 -1;
#X obj 474 281 bng 15 250 50 0 empty empty recalcule_la_microsequence
0 -6 0 8 -262144 -1 -1;
#X obj 277 264 f;
#X obj 316 265 + 1;
#X obj 224 150 tgl 15 0 empty empty empty 0 -6 0 8 -262144 -1 -1 1
1;
#X obj 123 269 f;
#X obj 160 268 + 1;
#X obj 123 332 tabread seq;
#X obj 195 435 bng 15 250 50 0 empty empty normals_seq_out 0 -6 0 8
-262144 -1 -1;
#X msg 227 232 0;
#N canvas 0 22 478 328 tick 0;
#X obj 40 58 inlet;
#X obj 63 175 vline~;
#X obj 29 215 *~;
#X obj 172 59 inlet;
#X obj 29 249 *~ 1;
#X obj 29 277 dac~;
#X obj -9 147 osc~ 440;
#X msg 63 145 0.5 \, 0 25;
#X connect 0 0 7 0;
#X connect 1 0 2 1;
#X connect 2 0 4 0;
#X connect 3 0 4 1;
#X connect 4 0 5 0;
#X connect 4 0 5 1;
#X connect 6 0 2 0;
#X connect 7 0 1 0;
#X restore 128 431 pd tick;
#N canvas 0 22 510 360 tick 1;
#X obj 40 58 inlet;
#X obj 63 175 vline~;
#X obj 29 215 *~;
#X obj 172 59 inlet;
#X obj 29 249 *~ 1;
#X obj 29 277 dac~;
#X obj -9 147 osc~ 880;
#X obj 111 55 inlet;
#X msg 64 143 1 \, 0 25;
#X connect 0 0 8 0;
#X connect 1 0 2 1;
#X connect 2 0 4 0;
#X connect 3 0 4 1;
#X connect 4 0 5 0;
#X connect 4 0 5 1;
#X connect 6 0 2 0;
#X connect 7 0 6 0;
#X connect 8 0 1 0;
#X restore 348 432 pd tick;
#X obj 438 0 loadbang;
#X msg 539 58 \; pd dsp 1 \;;
#X obj 438 32 t b b b b b;
#X obj 178 299 sel 0;
#X obj 20 13 table seq 16;
#X obj 123 301 % 16;
#X obj 276 296 % 32;
#X obj 271 330 microbeat seq 16;
#X obj 124 361 sel 0;
#X obj 116 408 bng 15 250 50 0 empty empty empty 0 -6 0 8 -262144 -1
-1;
#X msg 500 99 \; seq 0 1 0.5 0 0 1 0 0 0 1 0 0.25 0 1;
#X obj 431 366 * 4400;
#X obj 124 215 metro 400;
#X obj 265 214 metro 200;
#X connect 2 0 20 1;
#X connect 3 0 4 0;
#X connect 3 0 19 0;
#X connect 4 0 3 1;
#X connect 5 0 10 0;
#X connect 5 0 25 0;
#X connect 5 0 26 0;
#X connect 6 0 7 0;
#X connect 6 0 18 0;
#X connect 7 0 6 1;
#X connect 8 0 11 1;
#X connect 8 0 21 0;
#X connect 10 0 6 1;
#X connect 10 0 3 1;
#X connect 13 0 15 0;
#X connect 15 2 5 0;
#X connect 15 3 23 0;
#X connect 15 4 14 0;
#X connect 16 0 2 0;
#X connect 18 0 8 0;
#X connect 18 0 16 0;
#X connect 19 0 20 0;
#X connect 20 0 1 0;
#X connect 20 0 12 0;
#X connect 20 1 0 0;
#X connect 20 1 12 2;
#X connect 20 1 24 0;
#X connect 21 0 9 0;
#X connect 21 1 22 0;
#X connect 22 0 11 0;
#X connect 24 0 12 1;
#X connect 25 0 6 0;
#X connect 26 0 3 0;
