#N canvas 244 189 638 483 10;
#X obj 105 242 osc~;
#X obj 280 186 noise~;
#X obj 280 220 bp~ 5;
#X msg 121 82 220 \, 110 100;
#X obj 127 121 vline~;
#X obj 212 183 vline~;
#X obj 105 274 *~;
#X obj 98 361 dac~;
#X msg 289 60 bang;
#X obj 276 291 *~ 0.25;
#X obj 482 219 vline~;
#X obj 375 310 *~;
#X msg 295 110 1 \, 0 100;
#X obj 42 118 vline~;
#X obj 50 155 osc~;
#X msg 36 79 330 \, 110 50;
#X msg 565 146 1 \, 0 100;
#X connect 0 0 6 0;
#X connect 1 0 2 0;
#X connect 2 0 9 0;
#X connect 3 0 4 0;
#X connect 4 0 0 0;
#X connect 5 0 6 1;
#X connect 6 0 7 0;
#X connect 6 0 7 1;
#X connect 8 0 12 0;
#X connect 8 0 3 0;
#X connect 8 0 16 0;
#X connect 8 0 15 0;
#X connect 9 0 11 0;
#X connect 10 0 11 1;
#X connect 11 0 7 0;
#X connect 11 0 7 1;
#X connect 12 0 5 0;
#X connect 13 0 14 0;
#X connect 14 0 6 0;
#X connect 15 0 13 0;
#X connect 16 0 10 0;
