#N canvas 205 151 638 483 10;
#X obj 121 233 osc~;
#X obj 398 194 noise~;
#X msg 137 73 220 \, 110 100;
#X obj 143 112 vline~;
#X obj 212 183 vline~;
#X obj 105 274 *~;
#X obj 98 361 dac~;
#X msg 289 60 bang;
#X obj 376 233 *~ 0.25;
#X obj 430 262 vline~;
#X obj 375 310 *~;
#X msg 295 110 1 \, 0 100;
#X obj 15 124 vline~;
#X obj 23 161 osc~;
#X msg 9 85 330 \, 110 50;
#X msg 470 202 1 \, 0 100;
#X obj 357 272 lop~ 1000;
#X obj 84 123 random 100;
#X obj 83 155 / 100;
#X obj 156 156 random 100;
#X obj 155 188 / 100;
#X connect 0 0 5 0;
#X connect 1 0 8 0;
#X connect 2 0 3 0;
#X connect 3 0 0 0;
#X connect 4 0 5 1;
#X connect 5 0 6 0;
#X connect 5 0 6 1;
#X connect 7 0 11 0;
#X connect 7 0 2 0;
#X connect 7 0 15 0;
#X connect 7 0 14 0;
#X connect 7 0 17 0;
#X connect 7 0 19 0;
#X connect 8 0 16 0;
#X connect 9 0 10 1;
#X connect 10 0 6 0;
#X connect 10 0 6 1;
#X connect 11 0 4 0;
#X connect 12 0 13 0;
#X connect 13 0 5 0;
#X connect 14 0 12 0;
#X connect 15 0 9 0;
#X connect 16 0 10 0;
#X connect 17 0 18 0;
#X connect 18 0 13 1;
#X connect 19 0 20 0;
#X connect 20 0 0 1;
