#N canvas 421 225 738 649 10;
#X obj 245 43 phasor~ 22.5;
#X obj 137 280 +~;
#X obj 99 339 dac~;
#X obj 122 43 phasor~ 110.25;
#X obj 54 79 attenuator~;
#X obj 132 85 attenuator~;
#X obj 207 111 attenuator~;
#X obj 111 311 moog~;
#X obj 368 65 metro 5000;
#X obj 397 168 random 8;
#X obj 385 245 mtof;
#X obj 400 341 vline~;
#X obj 382 35 tgl 15 0 empty empty empty 17 7 0 10 -262144 -1 -1 1
1;
#X msg 231 271 3;
#X obj 27 41 phasor~ 220;
#X obj 393 202 + 90;
#X msg 413 303 \$1 2500;
#X connect 0 0 6 0;
#X connect 1 0 7 0;
#X connect 3 0 5 0;
#X connect 4 0 1 0;
#X connect 5 0 1 0;
#X connect 6 0 1 0;
#X connect 7 0 2 0;
#X connect 7 0 2 1;
#X connect 8 0 9 0;
#X connect 9 0 15 0;
#X connect 10 0 16 0;
#X connect 11 0 7 1;
#X connect 11 0 14 0;
#X connect 12 0 8 0;
#X connect 13 0 7 2;
#X connect 14 0 4 0;
#X connect 15 0 10 0;
#X connect 16 0 11 0;
