#N canvas 290 184 573 531 10;
#X obj 145 302 moog~;
#X obj 261 225 vline~;
#X obj 263 320 +~ 50;
#X obj 311 274 *~;
#X msg 226 279 3;
#X obj 261 294 *~ 3000;
#X msg 261 192 1 \, 0 800;
#X obj 146 366 *~;
#X obj 119 407 dac~;
#X obj 64 250 phasor~ 110;
#X connect 0 0 7 0;
#X connect 1 0 3 0;
#X connect 1 0 3 1;
#X connect 1 0 7 1;
#X connect 2 0 0 1;
#X connect 3 0 5 0;
#X connect 4 0 0 2;
#X connect 5 0 2 0;
#X connect 6 0 1 0;
#X connect 7 0 8 0;
#X connect 7 0 8 1;
#X connect 9 0 0 0;
