#N canvas 290 184 573 531 10;
#X obj 145 302 moog~;
#X obj 261 225 vline~;
#X obj 263 320 +~ 50;
#X obj 311 274 *~;
#X msg 226 279 3;
#X obj 261 294 *~ 3000;
#X obj 64 250 phasor~ 109;
#X obj 144 248 phasor~ 111;
#X msg 261 192 1 \, 0 800;
#X obj 146 366 *~;
#X obj 119 407 dac~;
#X obj 114 71 mtof;
#X obj 115 144 + 5;
#X obj 168 145 - 5;
#X msg 115 42 40;
#X obj 226 35 t b b;
#X obj 228 9 bng 15 250 50 0 empty empty empty 17 7 0 10 -262144 -1
-1;
#X obj 188 103 hsl 128 15 0 5 0 0 empty empty empty -2 -8 0 10 -262144
-1 -1 5700 1;
#X connect 0 0 9 0;
#X connect 1 0 3 0;
#X connect 1 0 3 1;
#X connect 1 0 9 1;
#X connect 2 0 0 1;
#X connect 3 0 5 0;
#X connect 4 0 0 2;
#X connect 5 0 2 0;
#X connect 6 0 0 0;
#X connect 7 0 0 0;
#X connect 8 0 1 0;
#X connect 9 0 10 0;
#X connect 9 0 10 1;
#X connect 11 0 12 0;
#X connect 11 0 13 0;
#X connect 12 0 6 0;
#X connect 13 0 7 0;
#X connect 14 0 11 0;
#X connect 15 0 14 0;
#X connect 15 1 8 0;
#X connect 16 0 15 0;
#X connect 17 0 12 1;
#X connect 17 0 13 1;
