#N canvas 290 184 573 531 10;
#X obj 145 302 moog~;
#X obj 261 225 vline~;
#X obj 263 320 +~ 50;
#X obj 311 274 *~;
#X obj 261 294 *~ 3000;
#X obj 146 366 *~;
#X obj 119 407 dac~;
#X obj 64 250 phasor~ 110;
#X obj 184 55 step_seq;
#X obj 285 51 step_seq;
#X obj 386 51 step_seq;
#X msg 244 129 5;
#X msg 415 155 3;
#X obj 128 195 mtof;
#X msg 129 24 bang;
#X msg 261 192 1 \, 0 300;
#X msg 226 279 2;
#X msg 313 132 19;
#X obj 481 50 step_seq;
#X obj 128 167 + 40;
#X connect 0 0 5 0;
#X connect 1 0 3 0;
#X connect 1 0 3 1;
#X connect 1 0 5 1;
#X connect 2 0 0 1;
#X connect 3 0 4 0;
#X connect 4 0 2 0;
#X connect 5 0 6 0;
#X connect 5 0 6 1;
#X connect 7 0 0 0;
#X connect 8 0 9 0;
#X connect 8 1 11 0;
#X connect 9 0 10 0;
#X connect 9 1 17 0;
#X connect 10 0 18 0;
#X connect 10 1 12 0;
#X connect 11 0 19 0;
#X connect 12 0 19 0;
#X connect 13 0 7 0;
#X connect 14 0 8 0;
#X connect 15 0 1 0;
#X connect 16 0 0 2;
#X connect 17 0 19 0;
#X connect 18 0 8 0;
#X connect 19 0 13 0;
#X connect 19 0 15 0;
