#N canvas 0 27 1440 852 10;
#X obj 516 354 cnv 15 100 200 empty empty Enveloppe 20 12 0 14 -4034
-66577 0;
#X obj 77 349 cnv 15 140 200 empty empty Oscillateurs 20 12 0 14 -257985
-66577 0;
#X obj 109 444 phasor~;
#X obj 175 444 osc~;
#X obj 172 477 /~ 2;
#X obj 110 477 /~ 8;
#X obj 131 62 f;
#X obj 168 62 + 1;
#X msg 49 137 12;
#X msg 98 136 3;
#X msg 206 134 7;
#X obj 160 0 tgl 15 0 empty empty empty 17 7 0 10 -262144 -1 -1 1 1
;
#X obj 162 236 mtof;
#X floatatom 210 223 5 0 0 0 - - -;
#X obj 131 87 % 12;
#X msg 246 134 24;
#X obj 538 410 vline~;
#X obj 241 276 *;
#X obj 288 100 vsl 15 128 0 8 0 0 empty empty empty 0 -9 0 10 -262144
-1 -1 12700 1;
#X obj 667 347 cnv 15 100 200 empty empty Enveloppe 20 12 0 14 -4034
-66577 0;
#X obj 677 435 vline~;
#X obj 677 476 *~;
#X obj 168 647 *~;
#X obj 269 344 cnv 15 140 200 empty empty Oscillateurs 20 12 0 14 -257985
-66577 0;
#X obj 301 439 phasor~;
#X obj 367 439 osc~;
#X obj 328 310 mtof;
#X msg 680 389 1 \, 0 2000;
#X obj 364 472 /~ 2;
#X obj 230 648 *~;
#X obj 302 472 /~ 8;
#X obj 81 408 +~;
#X obj 171 410 -~;
#X obj 273 403 -~;
#X obj 359 405 +~;
#X obj 534 129 osc~ 0.05;
#X obj 598 130 osc~ 0.05;
#X msg 520 70 0;
#X msg 560 67 0.25;
#X obj 548 31 bng 15 250 50 0 empty empty empty 17 7 0 10 -262144 -1
-1;
#X obj 541 168 *~ 32;
#X obj 605 169 *~ 32;
#X obj 834 76 *~ 8;
#X obj 945 37 osc~ 0.125;
#X obj 931 79 *~ 8;
#X obj 168 168 + 40;
#X obj 848 34 osc~ 0.0125;
#X obj 924 96 vsl 15 128 0 127 0 0 empty empty empty 0 -9 0 10 -262144
-1 -1 300 1;
#X obj 1079 371 osc~;
#X obj 1086 238 vline~;
#X obj 1041 125 t b b;
#X obj 1044 268 *~;
#X obj 1076 399 *~;
#X msg 1043 190 0.25;
#X obj 1000 237 osc~ 0.25;
#X obj 1095 49 f;
#X obj 1132 49 + 1;
#X obj 1101 102 sel 0;
#X obj 1095 74 % 4;
#X msg 1089 194 1 \, 0 300;
#X msg 1161 190 0.25;
#X obj 1092 309 *~ 120;
#X obj 1108 351 +~ 50;
#X obj 1281 392 osc~;
#X obj 1288 259 vline~;
#X obj 1243 146 t b b;
#X obj 1246 289 *~;
#X obj 1278 420 *~;
#X msg 1245 211 0.25;
#X obj 1297 70 f;
#X obj 1334 70 + 1;
#X obj 1303 123 sel 0;
#X obj 1294 330 *~ 120;
#X obj 1297 95 % 2;
#X obj 1323 422 noise~;
#X obj 1270 453 *~;
#X msg 1291 215 1 \, 0 125;
#X msg 1363 211 0;
#X obj 1310 372 +~ 0;
#X obj 1202 258 osc~ 0.125;
#X obj 202 674 audio/disto1~;
#X obj 223 791 audio/output~;
#X msg 153 136 24;
#X obj 150 619 moog~ 5;
#X obj 212 620 moog~ 5;
#X msg 535 380 \$1 \, 20 700;
#X obj 116 111 sel 0 1 3 4 6 8 11;
#X obj 151 31 metro 250;
#X connect 2 0 5 0;
#X connect 3 0 4 0;
#X connect 4 0 83 0;
#X connect 5 0 83 0;
#X connect 6 0 7 0;
#X connect 6 0 14 0;
#X connect 7 0 6 1;
#X connect 8 0 45 0;
#X connect 9 0 45 0;
#X connect 10 0 45 0;
#X connect 11 0 87 0;
#X connect 12 0 17 0;
#X connect 12 0 27 0;
#X connect 12 0 31 0;
#X connect 12 0 32 0;
#X connect 14 0 86 0;
#X connect 15 0 45 0;
#X connect 16 0 83 1;
#X connect 16 0 84 1;
#X connect 17 0 85 0;
#X connect 18 0 17 1;
#X connect 20 0 21 0;
#X connect 20 0 21 1;
#X connect 21 0 22 1;
#X connect 21 0 29 1;
#X connect 22 0 80 0;
#X connect 24 0 30 0;
#X connect 25 0 28 0;
#X connect 26 0 33 0;
#X connect 26 0 34 0;
#X connect 27 0 20 0;
#X connect 28 0 84 0;
#X connect 29 0 80 1;
#X connect 30 0 84 0;
#X connect 31 0 2 0;
#X connect 32 0 3 0;
#X connect 33 0 24 0;
#X connect 34 0 25 0;
#X connect 35 0 40 0;
#X connect 36 0 41 0;
#X connect 37 0 35 1;
#X connect 38 0 36 1;
#X connect 38 0 43 0;
#X connect 39 0 37 0;
#X connect 39 0 38 0;
#X connect 40 0 31 1;
#X connect 40 0 32 1;
#X connect 41 0 33 1;
#X connect 41 0 34 1;
#X connect 42 0 35 0;
#X connect 43 0 44 0;
#X connect 44 0 36 0;
#X connect 45 0 12 0;
#X connect 45 0 13 0;
#X connect 45 0 26 0;
#X connect 46 0 42 0;
#X connect 47 0 41 1;
#X connect 47 0 40 1;
#X connect 48 0 52 0;
#X connect 49 0 51 1;
#X connect 49 0 52 1;
#X connect 50 0 53 0;
#X connect 50 1 59 0;
#X connect 50 1 60 0;
#X connect 51 0 61 0;
#X connect 52 0 80 0;
#X connect 52 0 80 1;
#X connect 53 0 54 1;
#X connect 54 0 51 0;
#X connect 55 0 56 0;
#X connect 55 0 58 0;
#X connect 56 0 55 1;
#X connect 57 0 50 0;
#X connect 57 0 69 0;
#X connect 58 0 57 0;
#X connect 59 0 49 0;
#X connect 60 0 48 1;
#X connect 61 0 62 0;
#X connect 62 0 48 0;
#X connect 63 0 67 0;
#X connect 64 0 66 1;
#X connect 64 0 67 1;
#X connect 65 0 68 0;
#X connect 65 1 76 0;
#X connect 65 1 77 0;
#X connect 66 0 72 0;
#X connect 67 0 75 0;
#X connect 68 0 79 1;
#X connect 69 0 70 0;
#X connect 69 0 73 0;
#X connect 70 0 69 1;
#X connect 71 0 65 0;
#X connect 72 0 78 0;
#X connect 73 0 71 0;
#X connect 74 0 75 1;
#X connect 75 0 52 0;
#X connect 76 0 64 0;
#X connect 77 0 63 1;
#X connect 78 0 63 0;
#X connect 79 0 66 0;
#X connect 80 0 81 0;
#X connect 80 1 81 1;
#X connect 82 0 45 0;
#X connect 83 0 22 0;
#X connect 84 0 29 0;
#X connect 85 0 16 0;
#X connect 86 0 8 0;
#X connect 86 1 9 0;
#X connect 86 2 82 0;
#X connect 86 3 10 0;
#X connect 86 4 82 0;
#X connect 86 5 8 0;
#X connect 86 6 15 0;
#X connect 87 0 6 0;
#X connect 87 0 55 0;
